<svg width="129" height="18" fill="none" xmlns="http://www.w3.org/2000/svg"><path d="M8.656 11.959V14h-6.76v-2.041h6.76zM2.75 1.299V14H.134V1.3H2.75zm5.024 5.173v1.99h-5.88v-1.99h5.88zM8.647 1.3v2.05H1.896V1.3h6.751zm6.472 10.572V7.667c0-.302-.049-.56-.148-.776a1.103 1.103 0 00-.462-.515c-.204-.122-.468-.183-.794-.183-.28 0-.52.05-.724.149-.203.093-.36.23-.47.41-.111.174-.167.38-.167.619H9.842c0-.401.093-.782.28-1.143a2.85 2.85 0 01.81-.95c.355-.28.777-.498 1.265-.655a5.46 5.46 0 011.658-.235c.732 0 1.384.122 1.954.366.57.244 1.017.61 1.343 1.1.331.488.497 1.098.497 1.83v4.04c0 .517.032.941.096 1.273.064.325.157.61.279.855V14h-2.538a3.627 3.627 0 01-.28-.96 7.914 7.914 0 01-.087-1.168zm.332-3.62l.017 1.422h-1.404c-.332 0-.62.037-.864.113a1.607 1.607 0 00-.601.323c-.157.133-.274.29-.35.47a1.63 1.63 0 00-.104.594c0 .215.05.41.148.584.1.169.242.303.428.402.186.093.404.14.654.14.378 0 .706-.077.986-.228.279-.15.494-.337.645-.558.157-.22.238-.43.244-.628l.663 1.064a4.316 4.316 0 01-.384.742 3.463 3.463 0 01-.601.724 3.104 3.104 0 01-.882.55c-.343.139-.75.209-1.22.209a3.67 3.67 0 01-1.632-.358 2.974 2.974 0 01-1.151-1.003 2.634 2.634 0 01-.419-1.466c0-.494.093-.933.28-1.317a2.57 2.57 0 01.82-.968c.366-.268.822-.468 1.369-.602.546-.14 1.18-.21 1.901-.21h1.457zm9.237 3.14a.816.816 0 00-.157-.489c-.105-.145-.3-.279-.584-.4-.28-.129-.684-.245-1.213-.35a9.446 9.446 0 01-1.334-.392 4.628 4.628 0 01-1.064-.585 2.543 2.543 0 01-.698-.802 2.232 2.232 0 01-.253-1.073c0-.395.084-.768.253-1.116.174-.35.421-.658.741-.925a3.508 3.508 0 011.186-.637c.471-.157 1-.235 1.588-.235.82 0 1.524.13 2.11.392.594.262 1.047.622 1.362 1.082.32.453.48.97.48 1.552h-2.513a1.34 1.34 0 00-.157-.654 1.037 1.037 0 00-.47-.462c-.21-.116-.483-.175-.82-.175-.28 0-.521.05-.725.149a1.11 1.11 0 00-.47.384.924.924 0 00-.158.523c0 .145.03.276.087.392.064.11.166.213.306.306.14.093.32.18.54.261.227.076.506.146.838.21.68.14 1.288.322 1.823.55.535.22.96.523 1.273.906.315.378.472.876.472 1.492 0 .419-.094.803-.28 1.151a2.777 2.777 0 01-.802.916 4.065 4.065 0 01-1.256.602 5.87 5.87 0 01-1.631.21c-.878 0-1.623-.158-2.233-.472-.605-.314-1.064-.712-1.378-1.195-.309-.488-.463-.988-.463-1.5h2.381c.012.343.1.62.262.829.169.21.381.36.637.453.262.093.544.14.846.14.326 0 .596-.044.811-.13a1.17 1.17 0 00.489-.367.884.884 0 00.174-.541zm6.874 1.544l2.503-8.374h2.695l-3.794 10.86a5.879 5.879 0 01-.332.767 3.108 3.108 0 01-.55.777 2.57 2.57 0 01-.863.61c-.343.157-.764.236-1.264.236-.239 0-.434-.015-.585-.044-.151-.029-.331-.07-.54-.122v-1.84h.2c.07.005.137.008.2.008.332 0 .602-.037.812-.113.21-.076.378-.192.506-.349.128-.151.23-.349.305-.593l.707-1.823zm-1.047-8.374l2.05 6.839.357 2.66-1.71.183-3.392-9.682h2.695zM45.15 1.3V14h-2.608V1.3h2.608zm4.754 5.277V14h-2.512V4.562h2.355l.157 2.015zM49.54 8.95h-.68c0-.698.09-1.326.27-1.884a4.29 4.29 0 01.759-1.44 3.26 3.26 0 011.16-.916c.453-.215.96-.322 1.518-.322.442 0 .846.064 1.212.192.366.127.68.331.942.61.268.28.471.649.61 1.108.146.46.219 1.02.219 1.683V14h-2.53V7.973c0-.419-.058-.745-.174-.977a.98.98 0 00-.515-.489c-.22-.099-.494-.148-.82-.148-.337 0-.63.067-.88.2-.245.134-.449.32-.611.559a2.634 2.634 0 00-.358.82 4.021 4.021 0 00-.122 1.012zm12.543-4.388v1.78h-5.495v-1.78h5.495zm-4.135-2.329h2.513v8.923c0 .274.035.483.104.628a.628.628 0 00.332.306c.145.052.328.078.55.078a4.7 4.7 0 00.418-.017c.128-.018.236-.035.323-.053l.008 1.85a4.73 4.73 0 01-.697.165c-.25.041-.527.062-.83.062-.551 0-1.034-.09-1.447-.27a1.994 1.994 0 01-.942-.89c-.221-.408-.332-.943-.332-1.606V2.233zm9.91 11.942c-.733 0-1.39-.117-1.972-.35a4.329 4.329 0 01-1.483-.985 4.382 4.382 0 01-.924-1.457 4.906 4.906 0 01-.323-1.78v-.348c0-.715.102-1.37.305-1.963a4.615 4.615 0 01.872-1.544 3.83 3.83 0 011.396-1.003c.547-.238 1.163-.357 1.85-.357.668 0 1.261.11 1.779.331.517.221.95.535 1.3.942.354.407.622.896.802 1.466.18.564.27 1.192.27 1.884v1.046h-7.501V8.383h5.033V8.19c0-.35-.064-.66-.192-.934a1.482 1.482 0 00-.558-.663c-.25-.162-.57-.244-.96-.244a1.61 1.61 0 00-.855.218 1.687 1.687 0 00-.584.61c-.145.263-.256.57-.332.926a5.88 5.88 0 00-.104 1.15v.35c0 .378.052.727.157 1.046.11.32.264.597.462.83.204.232.448.412.733.54.29.128.619.192.985.192a3.06 3.06 0 001.265-.262c.396-.18.736-.45 1.02-.811l1.222 1.326a3.712 3.712 0 01-.811.82 4.33 4.33 0 01-1.222.645c-.476.163-1.02.245-1.63.245zm11.278-9.613h2.276v9.124c0 .86-.192 1.59-.575 2.19a3.55 3.55 0 01-1.588 1.369c-.68.314-1.471.47-2.372.47-.396 0-.815-.052-1.257-.156a5.024 5.024 0 01-1.255-.489 3.318 3.318 0 01-.995-.837l1.108-1.483c.29.337.628.6 1.012.785.383.192.808.288 1.273.288.454 0 .838-.084 1.152-.253.314-.163.555-.404.724-.724.168-.314.252-.695.252-1.143v-6.96l.245-2.18zm-6.35 4.832v-.183c0-.72.087-1.375.261-1.962a4.75 4.75 0 01.76-1.527 3.45 3.45 0 011.203-.985 3.551 3.551 0 011.596-.35c.628 0 1.154.117 1.579.35.425.232.773.564 1.047.994.273.424.485.927.636 1.509.157.576.28 1.207.367 1.893v.401a11.178 11.178 0 01-.393 1.832 5.63 5.63 0 01-.689 1.483 3.05 3.05 0 01-1.064.976c-.419.233-.919.35-1.5.35-.582 0-1.108-.12-1.58-.358a3.527 3.527 0 01-1.194-1.003 4.78 4.78 0 01-.768-1.518 6.591 6.591 0 01-.261-1.902zm2.512-.183v.183c0 .39.038.754.113 1.09.076.338.192.637.35.9.162.255.362.456.601.601.244.14.532.21.864.21.459 0 .834-.097 1.125-.288.29-.198.509-.469.654-.812a3.49 3.49 0 00.253-1.186V8.766a3.862 3.862 0 00-.148-.985 2.363 2.363 0 00-.367-.76 1.582 1.582 0 00-.61-.488 2.093 2.093 0 00-.89-.174c-.332 0-.62.076-.864.227a1.86 1.86 0 00-.602.602 3.048 3.048 0 00-.357.907 4.831 4.831 0 00-.122 1.116zm10.58-2.59V14h-2.512V4.562h2.364l.148 2.059zm2.844-2.12l-.044 2.329a6.07 6.07 0 00-.445-.044 4.52 4.52 0 00-.462-.026c-.355 0-.663.047-.924.14a1.65 1.65 0 00-.646.392 1.713 1.713 0 00-.384.637c-.081.25-.128.535-.14.855l-.505-.157c0-.61.06-1.172.183-1.684.122-.517.3-.968.532-1.352.239-.383.53-.68.872-.89a2.219 2.219 0 011.178-.313c.14 0 .282.011.427.035.146.017.265.043.358.078zm5.984 7.37V7.668c0-.302-.05-.56-.149-.776a1.103 1.103 0 00-.462-.515c-.203-.122-.468-.183-.794-.183-.279 0-.52.05-.724.149-.203.093-.36.23-.47.41-.111.174-.166.38-.166.619h-2.513c0-.401.093-.782.28-1.143.186-.36.456-.677.81-.95.356-.28.777-.498 1.266-.655a5.46 5.46 0 011.657-.235c.733 0 1.384.122 1.954.366.57.244 1.017.61 1.343 1.1.332.488.497 1.098.497 1.83v4.04c0 .517.032.941.096 1.273.064.325.157.61.28.855V14H95.07a3.628 3.628 0 01-.28-.96 7.9 7.9 0 01-.086-1.168zm.331-3.62l.017 1.423H93.65c-.331 0-.62.037-.863.113a1.607 1.607 0 00-.602.323c-.157.133-.273.29-.35.47a1.63 1.63 0 00-.104.594c0 .215.05.41.148.584.1.169.242.303.428.402.186.093.404.14.654.14.378 0 .707-.077.986-.228.279-.15.494-.337.645-.558.157-.22.239-.43.245-.628l.662 1.064a4.316 4.316 0 01-.383.742 3.46 3.46 0 01-.602.724 3.104 3.104 0 01-.881.55c-.343.139-.75.209-1.221.209a3.67 3.67 0 01-1.632-.358 2.973 2.973 0 01-1.15-1.003 2.633 2.633 0 01-.42-1.466c0-.494.093-.933.28-1.317a2.57 2.57 0 01.82-.968c.366-.268.822-.468 1.369-.602.547-.14 1.18-.21 1.901-.21h1.457zm8.758-3.689v1.78h-5.496v-1.78h5.496zM99.66 2.233h2.512v8.923c0 .274.035.483.105.628a.627.627 0 00.331.306c.146.052.329.078.55.078.157 0 .296-.006.419-.017a5.42 5.42 0 00.322-.053l.009 1.85c-.215.07-.448.125-.698.165-.25.041-.526.062-.828.062-.553 0-1.036-.09-1.448-.27a1.998 1.998 0 01-.943-.89c-.22-.408-.33-.943-.33-1.606V2.233zm8.217 2.33V14h-2.521V4.562h2.521zm-2.678-2.46c0-.367.128-.67.384-.908s.599-.357 1.029-.357c.425 0 .765.119 1.021.357.261.239.392.541.392.907 0 .367-.131.67-.392.907-.256.239-.596.358-1.021.358-.43 0-.773-.12-1.029-.358a1.186 1.186 0 01-.384-.907zm4.353 7.274v-.183c0-.692.098-1.329.296-1.91a4.425 4.425 0 01.864-1.527 3.87 3.87 0 011.395-1.003c.553-.244 1.187-.366 1.902-.366.715 0 1.352.122 1.91.366a3.854 3.854 0 011.404 1.003c.384.43.675.94.873 1.527a5.92 5.92 0 01.296 1.91v.183a5.97 5.97 0 01-.296 1.91 4.454 4.454 0 01-.873 1.527c-.378.43-.843.764-1.395 1.003-.553.238-1.187.357-1.902.357-.715 0-1.352-.119-1.91-.357a3.949 3.949 0 01-1.404-1.003 4.534 4.534 0 01-.864-1.527 5.945 5.945 0 01-.296-1.91zm2.512-.183v.183c0 .395.035.765.104 1.108.07.343.181.645.332.907.157.256.36.456.61.602.25.145.556.218.916.218.349 0 .649-.073.899-.218.25-.146.45-.346.602-.602.151-.262.261-.564.331-.907.076-.343.113-.713.113-1.108v-.183c0-.384-.037-.745-.113-1.082a2.86 2.86 0 00-.34-.907 1.688 1.688 0 00-.602-.628c-.25-.151-.552-.227-.907-.227s-.657.076-.907.227c-.245.151-.445.36-.602.628a3.005 3.005 0 00-.332.907 5.39 5.39 0 00-.104 1.082zm10.432-2.617V14h-2.512V4.562h2.355l.157 2.015zm-.366 2.373h-.681c0-.698.09-1.326.271-1.884.18-.565.433-1.044.758-1.44a3.264 3.264 0 011.161-.916 3.493 3.493 0 011.517-.322c.442 0 .846.064 1.213.192.366.127.68.331.942.61.267.28.471.649.61 1.108.146.46.218 1.02.218 1.683V14h-2.529V7.973c0-.419-.058-.745-.175-.977a.977.977 0 00-.514-.489c-.221-.099-.494-.148-.82-.148a1.85 1.85 0 00-.881.2c-.244.134-.448.32-.611.559a2.624 2.624 0 00-.357.82 3.994 3.994 0 00-.122 1.012z" fill="#37474F"/></svg>