<svg width="129" height="18" viewBox="0 0 129 18" fill="none" xmlns="http://www.w3.org/2000/svg">
<path d="M8.65594 11.9589V14H1.89591V11.9589H8.65594ZM2.75073 1.29986V14H0.133941V1.29986H2.75073ZM7.77496 6.47238V8.46113H1.89591V6.47238H7.77496ZM8.64722 1.29986V3.34968H1.89591V1.29986H8.64722ZM15.1194 11.8717V7.66738C15.1194 7.36499 15.07 7.10622 14.9711 6.89106C14.8723 6.67009 14.7182 6.49854 14.5088 6.37643C14.3053 6.25431 14.0407 6.19325 13.7151 6.19325C13.4359 6.19325 13.1946 6.24268 12.9911 6.34154C12.7876 6.43458 12.6306 6.57123 12.5201 6.7515C12.4096 6.92595 12.3543 7.13239 12.3543 7.37081H9.84222C9.84222 6.96957 9.93526 6.58868 10.1213 6.22814C10.3074 5.86761 10.5778 5.55069 10.9325 5.27738C11.2873 4.99825 11.7089 4.78019 12.1973 4.62318C12.6916 4.46617 13.244 4.38767 13.8546 4.38767C14.5873 4.38767 15.2386 4.50979 15.8085 4.75402C16.3784 4.99825 16.8261 5.3646 17.1518 5.85307C17.4832 6.34154 17.649 6.95212 17.649 7.68482V11.7234C17.649 12.2409 17.681 12.6654 17.7449 12.9969C17.8089 13.3225 17.9019 13.6075 18.024 13.8517V14H15.4858C15.3636 13.7441 15.2706 13.4243 15.2066 13.0405C15.1485 12.6509 15.1194 12.2613 15.1194 11.8717ZM15.4509 8.25179L15.4683 9.67358H14.064C13.7325 9.67358 13.4447 9.71138 13.2004 9.78697C12.9562 9.86257 12.7556 9.97015 12.5986 10.1097C12.4416 10.2435 12.3253 10.4005 12.2497 10.5807C12.1799 10.761 12.145 10.9587 12.145 11.1739C12.145 11.389 12.1944 11.5838 12.2933 11.7583C12.3921 11.9269 12.5346 12.0607 12.7207 12.1595C12.9068 12.2526 13.1248 12.2991 13.3749 12.2991C13.7529 12.2991 14.0814 12.2235 14.3605 12.0723C14.6397 11.9211 14.8548 11.735 15.006 11.5141C15.163 11.2931 15.2444 11.0837 15.2502 10.886L15.9132 11.9502C15.8201 12.1886 15.6922 12.4357 15.5294 12.6916C15.3724 12.9475 15.1717 13.1888 14.9275 13.4156C14.6833 13.6366 14.3896 13.8197 14.0465 13.9651C13.7034 14.1047 13.2964 14.1745 12.8254 14.1745C12.2264 14.1745 11.6827 14.0552 11.1942 13.8168C10.7116 13.5726 10.3278 13.2382 10.0428 12.8137C9.76372 12.3834 9.62416 11.8949 9.62416 11.3483C9.62416 10.854 9.7172 10.415 9.90328 10.0312C10.0894 9.64741 10.3627 9.32467 10.7232 9.06299C11.0896 8.7955 11.546 8.59488 12.0927 8.46113C12.6393 8.32157 13.2731 8.25179 13.9942 8.25179H15.4509ZM24.6881 11.3919C24.6881 11.2117 24.6358 11.0488 24.5311 10.9035C24.4264 10.7581 24.2316 10.6243 23.9467 10.5022C23.6676 10.3743 23.2634 10.258 22.7343 10.1533C22.2574 10.0487 21.8126 9.91781 21.3997 9.7608C20.9926 9.59798 20.6379 9.40318 20.3355 9.17639C20.039 8.9496 19.8064 8.68211 19.6377 8.37391C19.4691 8.05989 19.3848 7.70227 19.3848 7.30102C19.3848 6.9056 19.4691 6.53343 19.6377 6.18453C19.8122 5.83562 20.0593 5.52742 20.3792 5.25993C20.7048 4.98662 21.1002 4.77437 21.5654 4.62318C22.0365 4.46617 22.5656 4.38767 23.1529 4.38767C23.9729 4.38767 24.6765 4.51851 25.2638 4.78019C25.857 5.04187 26.3105 5.4024 26.6246 5.86179C26.9444 6.31537 27.1043 6.83291 27.1043 7.41442H24.5922C24.5922 7.17019 24.5398 6.95212 24.4352 6.76022C24.3363 6.56251 24.1793 6.40841 23.9642 6.29792C23.7548 6.18162 23.4815 6.12347 23.1442 6.12347C22.8651 6.12347 22.6238 6.1729 22.4202 6.27176C22.2167 6.3648 22.0597 6.49273 21.9492 6.65555C21.8446 6.81256 21.7922 6.98701 21.7922 7.17891C21.7922 7.32429 21.8213 7.45512 21.8794 7.57143C21.9434 7.68191 22.0452 7.78368 22.1847 7.87672C22.3243 7.96976 22.5046 8.05699 22.7255 8.1384C22.9523 8.21399 23.2315 8.28377 23.5629 8.34774C24.2433 8.4873 24.851 8.67048 25.3859 8.89727C25.9209 9.11824 26.3454 9.42062 26.6594 9.80442C26.9735 10.1824 27.1305 10.6796 27.1305 11.296C27.1305 11.7147 27.0374 12.0985 26.8513 12.4474C26.6653 12.7963 26.3978 13.1016 26.0489 13.3632C25.7 13.6191 25.2813 13.8197 24.7928 13.9651C24.3101 14.1047 23.7664 14.1745 23.1617 14.1745C22.2836 14.1745 21.5393 14.0174 20.9287 13.7034C20.3239 13.3894 19.8645 12.9911 19.5505 12.5084C19.2423 12.02 19.0882 11.5199 19.0882 11.0081H21.4695C21.4811 11.3512 21.5683 11.6274 21.7312 11.8368C21.8998 12.0461 22.112 12.1973 22.3679 12.2904C22.6296 12.3834 22.9116 12.4299 23.214 12.4299C23.5396 12.4299 23.8101 12.3863 24.0252 12.2991C24.2404 12.206 24.4032 12.0839 24.5137 11.9327C24.63 11.7757 24.6881 11.5955 24.6881 11.3919ZM31.5616 12.9358L34.0649 4.56212H36.7602L32.9659 15.4218C32.8845 15.6602 32.774 15.9161 32.6344 16.1894C32.5007 16.4627 32.3175 16.7215 32.0849 16.9657C31.8581 17.2157 31.5703 17.4193 31.2214 17.5763C30.8783 17.7333 30.4567 17.8118 29.9566 17.8118C29.7182 17.8118 29.5234 17.7972 29.3722 17.7682C29.221 17.7391 29.0407 17.6984 28.8314 17.6461V15.8056C28.8953 15.8056 28.9622 15.8056 29.032 15.8056C29.1018 15.8114 29.1686 15.8143 29.2326 15.8143C29.5641 15.8143 29.8345 15.7765 30.0438 15.7009C30.2532 15.6253 30.4218 15.509 30.5497 15.352C30.6777 15.2008 30.7794 15.0031 30.855 14.7589L31.5616 12.9358ZM30.5148 4.56212L32.5647 11.4007L32.9223 14.0611L31.2126 14.2442L27.8195 4.56212H30.5148ZM45.1514 1.29986V14H42.5433V1.29986H45.1514ZM49.9052 6.57705V14H47.3931V4.56212H49.7482L49.9052 6.57705ZM49.5389 8.9496H48.8585C48.8585 8.25179 48.9487 7.62376 49.1289 7.06551C49.3092 6.50145 49.5621 6.02171 49.8878 5.62628C50.2134 5.22504 50.6001 4.91975 51.0479 4.71041C51.5015 4.49525 52.0074 4.38767 52.5656 4.38767C53.0076 4.38767 53.4117 4.45163 53.7781 4.57957C54.1444 4.7075 54.4584 4.91103 54.7201 5.19015C54.9876 5.46927 55.1911 5.83853 55.3307 6.29792C55.4761 6.75731 55.5488 7.31847 55.5488 7.98139V14H53.0192V7.97267C53.0192 7.55398 52.9611 7.22834 52.8448 6.99573C52.7285 6.76313 52.5569 6.60031 52.3301 6.50727C52.1092 6.40841 51.8358 6.35898 51.5102 6.35898C51.1729 6.35898 50.8793 6.42585 50.6292 6.5596C50.385 6.69335 50.1815 6.87943 50.0186 7.11785C49.8616 7.35045 49.7424 7.62376 49.661 7.93778C49.5796 8.25179 49.5389 8.58907 49.5389 8.9496ZM62.082 4.56212V6.34154H56.5868V4.56212H62.082ZM57.9475 2.23318H60.4596V11.1564C60.4596 11.4297 60.4945 11.6391 60.5643 11.7845C60.6399 11.9298 60.7504 12.0316 60.8957 12.0897C61.0411 12.1421 61.2243 12.1682 61.4453 12.1682C61.6023 12.1682 61.7418 12.1624 61.8639 12.1508C61.9919 12.1334 62.0995 12.1159 62.1867 12.0985L62.1954 13.9477C61.9803 14.0174 61.7476 14.0727 61.4976 14.1134C61.2476 14.1541 60.9713 14.1745 60.6689 14.1745C60.1165 14.1745 59.6339 14.0843 59.221 13.9041C58.8139 13.718 58.4999 13.4214 58.279 13.0143C58.058 12.6073 57.9475 12.0723 57.9475 11.4094V2.23318ZM67.8564 14.1745C67.1237 14.1745 66.4666 14.0582 65.8851 13.8255C65.3036 13.5871 64.8093 13.2586 64.4022 12.8399C64.001 12.4212 63.6928 11.9356 63.4776 11.3832C63.2625 10.825 63.1549 10.2318 63.1549 9.6038V9.25489C63.1549 8.53964 63.2567 7.88544 63.4602 7.2923C63.6637 6.69916 63.9545 6.18453 64.3325 5.7484C64.7162 5.31227 65.1815 4.9779 65.7281 4.7453C66.2747 4.50688 66.8911 4.38767 67.5773 4.38767C68.246 4.38767 68.8391 4.49816 69.3567 4.71913C69.8742 4.9401 70.3074 5.25412 70.6564 5.66117C71.0111 6.06823 71.2786 6.55669 71.4588 7.12657C71.6391 7.69064 71.7292 8.31866 71.7292 9.01066V10.0574H64.2278V8.38263H69.2607V8.19073C69.2607 7.84183 69.1968 7.53072 69.0688 7.25741C68.9467 6.97829 68.7606 6.75731 68.5106 6.59449C68.2605 6.43167 67.9407 6.35026 67.5511 6.35026C67.2196 6.35026 66.9347 6.42295 66.6963 6.56832C66.4579 6.7137 66.2631 6.91723 66.1119 7.17891C65.9665 7.44059 65.856 7.74879 65.7804 8.10351C65.7106 8.45241 65.6757 8.83621 65.6757 9.25489V9.6038C65.6757 9.98178 65.7281 10.3307 65.8327 10.6505C65.9432 10.9703 66.0973 11.2466 66.295 11.4792C66.4986 11.7118 66.7428 11.892 67.0277 12.02C67.3185 12.1479 67.647 12.2119 68.0134 12.2119C68.467 12.2119 68.8886 12.1246 69.2782 11.9502C69.6736 11.7699 70.0138 11.4995 70.2987 11.139L71.5199 12.4648C71.3222 12.7498 71.0518 13.0231 70.7087 13.2847C70.3714 13.5464 69.9644 13.7616 69.4875 13.9302C69.0107 14.093 68.467 14.1745 67.8564 14.1745ZM79.1347 4.56212H81.4114V13.686C81.4114 14.5466 81.2195 15.2764 80.8357 15.8754C80.4577 16.4801 79.9285 16.9366 79.2481 17.2448C78.5678 17.5588 77.7769 17.7158 76.8756 17.7158C76.4802 17.7158 76.0615 17.6635 75.6195 17.5588C75.1834 17.4542 74.7647 17.2913 74.3635 17.0704C73.968 16.8494 73.6366 16.5703 73.3691 16.233L74.4769 14.7501C74.7676 15.0874 75.1049 15.3491 75.4887 15.5352C75.8725 15.7271 76.297 15.823 76.7622 15.823C77.2158 15.823 77.5996 15.7387 77.9136 15.5701C78.2276 15.4072 78.4689 15.1659 78.6376 14.8461C78.8062 14.5321 78.8905 14.1512 78.8905 13.7034V6.74278L79.1347 4.56212ZM72.7847 9.39445V9.21128C72.7847 8.49021 72.8719 7.83601 73.0464 7.24869C73.2266 6.65555 73.4796 6.14673 73.8052 5.72223C74.1367 5.29773 74.5379 4.96918 75.0089 4.73657C75.48 4.50397 76.012 4.38767 76.6052 4.38767C77.2332 4.38767 77.7595 4.50397 78.184 4.73657C78.6085 4.96918 78.9574 5.30064 79.2307 5.73095C79.504 6.15545 79.7163 6.65846 79.8674 7.23997C80.0245 7.81566 80.1466 8.4466 80.2338 9.13278V9.53402C80.1466 10.1911 80.0157 10.8017 79.8413 11.3658C79.6668 11.9298 79.4371 12.4241 79.1522 12.8486C78.8673 13.2673 78.5125 13.5929 78.088 13.8255C77.6693 14.0582 77.1692 14.1745 76.5877 14.1745C76.0062 14.1745 75.48 14.0552 75.0089 13.8168C74.5437 13.5784 74.1454 13.244 73.8139 12.8137C73.4825 12.3834 73.2266 11.8775 73.0464 11.296C72.8719 10.7145 72.7847 10.0806 72.7847 9.39445ZM75.2968 9.21128V9.39445C75.2968 9.78407 75.3346 10.1475 75.4102 10.4848C75.4858 10.8221 75.6021 11.1215 75.7591 11.3832C75.9219 11.6391 76.1225 11.8397 76.361 11.9851C76.6052 12.1246 76.893 12.1944 77.2245 12.1944C77.6839 12.1944 78.059 12.0985 78.3497 11.9066C78.6405 11.7089 78.8585 11.4385 79.0039 11.0954C79.1493 10.7523 79.2336 10.3569 79.2569 9.90909V8.76643C79.2452 8.40008 79.1958 8.07152 79.1086 7.78077C79.0214 7.4842 78.8992 7.23124 78.7422 7.0219C78.5852 6.81256 78.3817 6.64974 78.1316 6.53343C77.8816 6.41713 77.585 6.35898 77.2419 6.35898C76.9105 6.35898 76.6226 6.43458 76.3784 6.58577C76.14 6.73115 75.9394 6.93177 75.7765 7.18763C75.6195 7.44349 75.5003 7.74588 75.4189 8.09478C75.3375 8.43787 75.2968 8.81004 75.2968 9.21128ZM85.8773 6.62066V14H83.3652V4.56212H85.729L85.8773 6.62066ZM88.7209 4.50106L88.6773 6.83C88.5552 6.81256 88.4069 6.79802 88.2324 6.78639C88.0638 6.76894 87.9097 6.76022 87.7701 6.76022C87.4154 6.76022 87.1072 6.80674 86.8455 6.89978C86.5897 6.98701 86.3745 7.11785 86.2001 7.2923C86.0314 7.46675 85.9035 7.67901 85.8163 7.92905C85.7349 8.1791 85.6883 8.46404 85.6767 8.78387L85.1708 8.62686C85.1708 8.01628 85.2319 7.45512 85.354 6.9434C85.4761 6.42585 85.6535 5.97519 85.8861 5.59139C86.1245 5.2076 86.4152 4.91103 86.7583 4.70168C87.1014 4.49234 87.4939 4.38767 87.9359 4.38767C88.0754 4.38767 88.2179 4.3993 88.3633 4.42256C88.5087 4.44 88.6279 4.46617 88.7209 4.50106ZM94.7046 11.8717V7.66738C94.7046 7.36499 94.6552 7.10622 94.5563 6.89106C94.4575 6.67009 94.3034 6.49854 94.094 6.37643C93.8905 6.25431 93.6259 6.19325 93.3003 6.19325C93.0212 6.19325 92.7798 6.24268 92.5763 6.34154C92.3728 6.43458 92.2158 6.57123 92.1053 6.7515C91.9948 6.92595 91.9396 7.13239 91.9396 7.37081H89.4274C89.4274 6.96957 89.5205 6.58868 89.7066 6.22814C89.8926 5.86761 90.163 5.55069 90.5178 5.27738C90.8725 4.99825 91.2941 4.78019 91.7825 4.62318C92.2768 4.46617 92.8293 4.38767 93.4398 4.38767C94.1725 4.38767 94.8238 4.50979 95.3937 4.75402C95.9636 4.99825 96.4114 5.3646 96.737 5.85307C97.0685 6.34154 97.2342 6.95212 97.2342 7.68482V11.7234C97.2342 12.2409 97.2662 12.6654 97.3301 12.9969C97.3941 13.3225 97.4871 13.6075 97.6093 13.8517V14H95.071C94.9489 13.7441 94.8558 13.4243 94.7919 13.0405C94.7337 12.6509 94.7046 12.2613 94.7046 11.8717ZM95.0361 8.25179L95.0535 9.67358H93.6492C93.3177 9.67358 93.0299 9.71138 92.7857 9.78697C92.5414 9.86257 92.3408 9.97015 92.1838 10.1097C92.0268 10.2435 91.9105 10.4005 91.8349 10.5807C91.7651 10.761 91.7302 10.9587 91.7302 11.1739C91.7302 11.389 91.7796 11.5838 91.8785 11.7583C91.9774 11.9269 92.1198 12.0607 92.3059 12.1595C92.492 12.2526 92.7101 12.2991 92.9601 12.2991C93.3381 12.2991 93.6666 12.2235 93.9458 12.0723C94.2249 11.9211 94.44 11.735 94.5912 11.5141C94.7482 11.2931 94.8297 11.0837 94.8355 10.886L95.4984 11.9502C95.4053 12.1886 95.2774 12.4357 95.1146 12.6916C94.9576 12.9475 94.757 13.1888 94.5127 13.4156C94.2685 13.6366 93.9748 13.8197 93.6317 13.9651C93.2887 14.1047 92.8816 14.1745 92.4106 14.1745C91.8116 14.1745 91.2679 14.0552 90.7794 13.8168C90.2968 13.5726 89.913 13.2382 89.6281 12.8137C89.3489 12.3834 89.2094 11.8949 89.2094 11.3483C89.2094 10.854 89.3024 10.415 89.4885 10.0312C89.6746 9.64741 89.9479 9.32467 90.3084 9.06299C90.6748 8.7955 91.1313 8.59488 91.6779 8.46113C92.2245 8.32157 92.8583 8.25179 93.5794 8.25179H95.0361ZM103.794 4.56212V6.34154H98.2984V4.56212H103.794ZM99.6591 2.23318H102.171V11.1564C102.171 11.4297 102.206 11.6391 102.276 11.7845C102.351 11.9298 102.462 12.0316 102.607 12.0897C102.753 12.1421 102.936 12.1682 103.157 12.1682C103.314 12.1682 103.453 12.1624 103.576 12.1508C103.703 12.1334 103.811 12.1159 103.898 12.0985L103.907 13.9477C103.692 14.0174 103.459 14.0727 103.209 14.1134C102.959 14.1541 102.683 14.1745 102.381 14.1745C101.828 14.1745 101.345 14.0843 100.933 13.9041C100.526 13.718 100.212 13.4214 99.9905 13.0143C99.7696 12.6073 99.6591 12.0723 99.6591 11.4094V2.23318ZM107.876 4.56212V14H105.355V4.56212H107.876ZM105.198 2.10234C105.198 1.73599 105.326 1.43361 105.582 1.19519C105.838 0.95677 106.181 0.837561 106.611 0.837561C107.036 0.837561 107.376 0.95677 107.632 1.19519C107.893 1.43361 108.024 1.73599 108.024 2.10234C108.024 2.46869 107.893 2.77108 107.632 3.00949C107.376 3.24791 107.036 3.36712 106.611 3.36712C106.181 3.36712 105.838 3.24791 105.582 3.00949C105.326 2.77108 105.198 2.46869 105.198 2.10234ZM109.551 9.37701V9.19383C109.551 8.50184 109.649 7.86509 109.847 7.28358C110.045 6.69626 110.333 6.18744 110.711 5.75712C111.089 5.3268 111.554 4.99244 112.106 4.75402C112.659 4.50979 113.293 4.38767 114.008 4.38767C114.723 4.38767 115.36 4.50979 115.918 4.75402C116.476 4.99244 116.944 5.3268 117.322 5.75712C117.706 6.18744 117.997 6.69626 118.195 7.28358C118.392 7.86509 118.491 8.50184 118.491 9.19383V9.37701C118.491 10.0632 118.392 10.6999 118.195 11.2873C117.997 11.8688 117.706 12.3776 117.322 12.8137C116.944 13.244 116.479 13.5784 115.927 13.8168C115.374 14.0552 114.74 14.1745 114.025 14.1745C113.31 14.1745 112.673 14.0552 112.115 13.8168C111.563 13.5784 111.094 13.244 110.711 12.8137C110.333 12.3776 110.045 11.8688 109.847 11.2873C109.649 10.6999 109.551 10.0632 109.551 9.37701ZM112.063 9.19383V9.37701C112.063 9.77243 112.098 10.1417 112.167 10.4848C112.237 10.8279 112.348 11.1303 112.499 11.3919C112.656 11.6478 112.859 11.8484 113.109 11.9938C113.359 12.1392 113.665 12.2119 114.025 12.2119C114.374 12.2119 114.674 12.1392 114.924 11.9938C115.174 11.8484 115.374 11.6478 115.526 11.3919C115.677 11.1303 115.787 10.8279 115.857 10.4848C115.933 10.1417 115.97 9.77243 115.97 9.37701V9.19383C115.97 8.81004 115.933 8.4495 115.857 8.11223C115.787 7.76914 115.674 7.46675 115.517 7.20508C115.366 6.93758 115.165 6.72824 114.915 6.57705C114.665 6.42585 114.363 6.35026 114.008 6.35026C113.653 6.35026 113.351 6.42585 113.101 6.57705C112.856 6.72824 112.656 6.93758 112.499 7.20508C112.348 7.46675 112.237 7.76914 112.167 8.11223C112.098 8.4495 112.063 8.81004 112.063 9.19383ZM122.495 6.57705V14H119.983V4.56212H122.338L122.495 6.57705ZM122.129 8.9496H121.448C121.448 8.25179 121.538 7.62376 121.719 7.06551C121.899 6.50145 122.152 6.02171 122.477 5.62628C122.803 5.22504 123.19 4.91975 123.638 4.71041C124.091 4.49525 124.597 4.38767 125.155 4.38767C125.597 4.38767 126.001 4.45163 126.368 4.57957C126.734 4.7075 127.048 4.91103 127.31 5.19015C127.577 5.46927 127.781 5.83853 127.92 6.29792C128.066 6.75731 128.138 7.31847 128.138 7.98139V14H125.609V7.97267C125.609 7.55398 125.551 7.22834 125.434 6.99573C125.318 6.76313 125.147 6.60031 124.92 6.50727C124.699 6.40841 124.426 6.35898 124.1 6.35898C123.763 6.35898 123.469 6.42585 123.219 6.5596C122.975 6.69335 122.771 6.87943 122.608 7.11785C122.451 7.35045 122.332 7.62376 122.251 7.93778C122.169 8.25179 122.129 8.58907 122.129 8.9496Z" fill="#37474F"/>
</svg>
