<svg width="117" height="40" fill="none" xmlns="http://www.w3.org/2000/svg"><path d="M32.163 18.304c0-3.11.789-5.58 2.367-7.41 1.577-1.831 3.854-2.746 6.829-2.746 1.713 0 3.164.266 4.354.798s2.029 1.303 2.516 2.312c.324.667.27 1.118-.163 1.353l-1.622.865c-.568.306-1.037.135-1.407-.514-.234-.415-.672-.789-1.312-1.122-.63-.334-1.375-.5-2.23-.5-1.894 0-3.22.599-3.977 1.798-.757 1.19-1.136 2.912-1.136 5.166 0 2.254.379 3.98 1.136 5.18.758 1.19 2.083 1.784 3.976 1.784 1.019 0 1.875-.23 2.57-.69.703-.46 1.19-.896 1.46-1.311.442-.676.91-.848 1.406-.514l1.623 1.082c.442.297.487.748.135 1.352-.523.902-1.42 1.672-2.69 2.313-1.272.64-2.818.96-4.64.96-2.93 0-5.197-.915-6.801-2.745-1.596-1.83-2.394-4.3-2.394-7.411zm19.176 0c0-3.11.802-5.58 2.407-7.41 1.605-1.831 3.895-2.746 6.87-2.746s5.265.915 6.87 2.745c1.605 1.83 2.407 4.3 2.407 7.41 0 3.111-.802 5.581-2.407 7.412-1.605 1.83-3.895 2.745-6.87 2.745s-5.265-.915-6.87-2.745c-1.605-1.83-2.407-4.3-2.407-7.411zm4.22 0c0 2.254.4 3.98 1.203 5.18.811 1.19 2.096 1.784 3.854 1.784s3.038-.595 3.84-1.785c.812-1.199 1.218-2.925 1.218-5.18 0-2.253-.406-3.975-1.217-5.165-.803-1.2-2.083-1.799-3.841-1.799s-3.043.6-3.854 1.799c-.803 1.19-1.204 2.912-1.204 5.166zM74.165 28c-.63 0-.946-.338-.946-1.014V9.622c0-.676.315-1.014.946-1.014h3.922c.523 0 .897.36 1.122 1.082l3.665 11.86c.162.513.275.937.338 1.27.063.325.118.713.163 1.164h.08c.046-.451.1-.839.163-1.163.063-.334.176-.758.338-1.272l3.665-11.86c.225-.72.6-1.081 1.122-1.081h3.922c.631 0 .947.338.947 1.014v17.364c0 .676-.316 1.014-.947 1.014H90.61c-.632 0-.947-.338-.947-1.014v-11.17c0-.541.022-1.082.067-1.623h-.094l-3.908 12.712c-.226.73-.613 1.095-1.163 1.095h-2.3c-.55 0-.937-.365-1.162-1.095l-3.909-12.712H77.1c.045.54.067 1.082.067 1.623v11.17c0 .676-.315 1.014-.946 1.014h-2.056zm23.774-8.073V9.35c0-.495.316-.743.947-.743h2.055c.631 0 .947.248.947.743v10.44c0 2.435.356 3.958 1.068 4.571.722.604 1.533.906 2.434.906.902 0 1.709-.302 2.421-.906.721-.613 1.082-2.136 1.082-4.57V9.351c0-.496.316-.744.947-.744h2.055c.631 0 .947.248.947.743v10.576c0 3.155-.667 5.368-2.002 6.64-1.334 1.262-3.151 1.893-5.45 1.893-2.298 0-4.115-.631-5.45-1.893-1.334-1.272-2-3.485-2-6.64z" fill="#323232"/><rect x="15.8" y="3.274" width="9.257" height="23.084" rx="4.628" transform="rotate(31.858 15.8 3.274)" fill="#4A3503"/><rect y="5.354" width="8.581" height="23.796" rx="4.29" transform="rotate(-15.917 0 5.354)" fill="#7B61FF"/><rect x="12.324" y="5.586" width="8.581" height="23.796" rx="4.29" transform="rotate(-15.917 12.324 5.586)" fill="#FE9563"/></svg>