<svg width="435" height="474" fill="none" xmlns="http://www.w3.org/2000/svg"><path d="M434.035 156.194H314.928s11.794-32.928 29.963-32.928 23.906 22.746 23.906 22.746 12.219-12.348 22.313-12.348 18.806 16.248 18.806 16.248 14.238-8.666 24.119 6.282zM367.31 42.57h-55.676s12.432-18.415 22.207-18.415 12.75 12.349 12.75 12.349 6.906-5.741 13.281-4.658c6.375 1.083 7.438 10.723 7.438 10.723zM110.501 277.403H54.826s12.431-18.414 22.206-18.414 12.75 12.24 12.75 12.24 6.907-5.741 13.282-4.658c6.375 1.083 7.437 10.832 7.437 10.832zm-2.019-130.957H0s14.875-33.795 30.706-35.962c15.832-2.166 23.482 25.13 23.482 25.13s10.306-9.64 18.275-9.64c7.969 0 14.344 12.673 14.344 12.673s16.15-8.665 21.675 7.799z" fill="#FFDFCF"/><path d="M184.666 62.825h-73.313s12.644-24.48 26.244-24.805c13.6-.325 20.825 18.522 20.825 18.522s21.357-17.439 26.244 6.283z" fill="#EBEBEB"/><path d="M359.128 297.008h-73.313s12.644-24.48 26.244-24.805c13.6-.325 20.825 18.523 20.825 18.523s21.25-17.439 26.244 6.282z" fill="#FFDFCF"/><path d="M216.965 474c75.815 0 137.276-6.741 137.276-15.057 0-8.315-61.461-15.056-137.276-15.056-75.816 0-137.277 6.741-137.277 15.056 0 8.316 61.461 15.057 137.277 15.057z" fill="#37474F" fill-opacity=".11"/><path d="M139.614 362.866c-5.312.217-11.263.542-15.619-3.033-4.037-3.25-7.65-8.124-7.119-13.648.107-1.625.532-2.6 2.125-1.841 2.55 1.083 4.463 3.899 6.269 5.849a57.73 57.73 0 007.332 7.149c1.912 1.516 3.931 2.708 5.843 4.224.213.217.532.325.744.542l.319.216h.106c.106 0 .213 0 .213.109v.108c0 .108-.107.217-.213.325z" fill="#37474F"/><path d="M139.83 362.433c-4.675-.109-9.669.108-13.494-3.141a21.532 21.532 0 01-4.357-5.416c-.531-.867-2.125-3.575-1.487-4.658 1.169-1.95 6.8 5.957 7.544 6.716 2.869 2.708 6.481 4.657 10.306 5.524.213.217.531.325.744.541-2.763-.541-5.313-1.624-7.756-3.032-3.294-2.058-5.207-4.983-7.757-7.799-.531-.65-2.231-2.6-2.869-1.408-.425.866 1.169 3.466 1.488 4.007 1.062 1.95 2.444 3.575 4.144 5.091 3.719 3.466 8.712 3.358 13.494 3.575z" fill="#fff"/><path d="M142.456 366.131l-.106.65s0 .108-.107.108c-.106 0-.212 0-.318-.108v-.216l.106-.217v-.108c-.956-3.575-1.275-7.366-2.338-10.941-1.062-3.574-2.125-6.824-2.762-10.29-.425-2.166-1.913-13.215 2.869-11.915 2.125.65 3.612 3.791 4.356 5.633 1.062 2.491 1.594 5.199 1.806 7.907.213 6.932-2.125 12.998-3.506 19.497z" fill="#37474F"/><path d="M144.046 352.375c.106-2.492-.212-5.091-.744-7.474-.212-.867-1.275-4.875-2.55-4.875-.85.109-1.062 1.842-1.062 2.383-.319 2.492.425 4.983.956 7.366.956 4.874 1.488 9.857 1.7 14.731 0 .325-.106.65-.106.975 0 .325-.106.542-.106.758v.434c0 .108.212.108.318.108 0-.217.107-.433.107-.65v.542l.106-.542v-.866c.637-4.225 1.062-8.558 1.381-12.89zm-1.7 11.156c-.106-2.924-.425-5.74-.85-8.665a79.39 79.39 0 00-1.275-6.932 24.8 24.8 0 01-.637-3.9c0-.975.106-4.766 2.018-2.383 1.382 1.733 1.7 5.308 1.913 7.366.212 2.274.106 4.549-.106 6.824-.213 2.599-.638 5.091-1.063 7.69z" fill="#fff"/><path d="M145.354 381.064h-.213c-4.887-.217-11.369.217-15.406-3.033-2.975-2.383-5.95-7.149-4.994-11.265 1.062-4.549 7.119.975 8.712 2.275a154.505 154.505 0 0111.901 11.806l.106.109c.106 0 0 0-.106.108z" fill="#37474F"/><path d="M145.536 380.862l-.85-.541a134.425 134.425 0 01-9.35-6.608c-.743-.541-6.268-5.524-7.012-3.791-.531 1.083 1.275 3.25 1.912 4.008 1.063 1.3 2.338 2.491 3.719 3.358 3.188 2.058 7.225 2.491 10.838 3.466.212 0 .318.108.531.108h.106c0 .108.106.108.106 0zm-9.668-2.816c-1.594-.758-2.975-1.733-4.25-2.925-.85-.758-3.719-3.791-2.975-4.982.425-.65.743-.325 1.487.108.319.217.744.433 1.063.65.85.541 1.593 1.191 2.337 1.841a57.523 57.523 0 004.038 3.141c2.231 1.625 4.568 3.25 7.012 4.766-2.869-.974-5.95-1.299-8.712-2.599z" fill="#fff"/><path d="M154.248 370.789c-1.275 5.633-4.143 10.832-8.393 14.84h-.107c-.106 0-.212 0-.212-.108-.106-.109-.106-.217 0-.325l.319-.217c.85-6.716 1.7-13.431 2.337-20.147.106-1.625 1.381-11.699 4.463-10.074 1.912.975 2.018 5.199 2.231 7.041.106 3.033 0 6.066-.638 8.99z" fill="#37474F"/><path d="M152.443 361.799c-.213-.542-.425-1.192-1.063-.759-1.168.759-1.7 5.525-1.912 6.825-.85 5.415-2.125 10.723-3.4 16.031l-.319 1.299-.212.434c0 .108.106.108.212.108v-.108c.106-.217.319-.325.425-.542 2.125-2.924 3.719-6.174 4.781-9.532.744-2.166 1.169-4.441 1.382-6.716.318-2.166.744-4.982.106-7.04zm-6.269 22.855c0 .108-.106.216-.212.216 0-.216.106-.324.106-.541 1.275-4.008 2.231-8.232 2.975-12.348.319-2.167.531-4.225.956-6.391.213-.867.638-3.466 1.381-3.791.744-.325.744.541.744 1.191v1.517c.319 7.149-1.806 14.298-5.95 20.147z" fill="#fff"/><path d="M146.736 400.237h-.956v-2.6c-.106-3.466-.213-7.041-.425-10.615-.106-2.058-.213-4.008-.425-5.958v-.216c0-.109 0-.325-.106-.542-.107-.216 0-.325-.107-.541-.425-4.441-1.593-8.883-3.293-12.999-.638-1.408-1.275-2.708-2.019-4.007l-.213-.434-.106-.108c-.106-.108-.106-.217-.212-.433-.107-.217-.107-.217-.213-.325-2.231-4.008-4.781-7.907-7.225-11.807-.744-1.083-1.381-2.275-2.125-3.358 0-.108-.106-.108-.106-.216-.107-.109-.107-.109-.107-.217-3.081-4.983-6.056-9.857-9.243-14.731-.107-.217.212-.325.318-.109 2.125 3.25 4.357 6.391 6.588 9.532l.85 1.3a34.65 34.65 0 011.7 2.492 83.557 83.557 0 013.4 5.09c3.294 4.766 6.269 9.641 8.925 14.732.213.433.425.758.531 1.191.107.217.213.542.319.758.106.217.213.542.425.867 2.019 4.983 3.081 10.29 3.294 15.598 0 .325 0 .758.106 1.083v2.275l.319 10.507c0 1.516 0 2.599.106 3.791z" fill="#37474F"/><path d="M117.728 336.328c-2.656-3.682-6.056-11.156-2.125-15.056 1.488-1.516 3.825-1.733 5.525-.433 2.125 1.516 2.975 4.441 3.719 6.824 1.806 6.391 2.975 12.89 5.206 19.172.107.217.213.433.213.65 0 .108-.106.217-.213 0l-.212-.65c-4.25-3.033-9.031-6.174-12.113-10.507z" fill="#37474F"/><path d="M130.054 346.836s0-.108-.107-.108c-.956-1.517-1.7-3.142-2.443-4.766-1.488-3.358-2.763-6.933-3.825-10.507-.425-1.408-2.338-8.124-4.675-5.416-.957 1.083-.85 3.141-.638 4.549.319 2.167.956 4.333 2.019 6.283 2.125 3.899 5.419 6.824 8.819 9.423.106.109.318.217.425.325l.106.109.106.108c0 .108.106.108.213.108l.106-.108c-.106.108-.106 0-.106 0zm-1.063-.758a36.63 36.63 0 01-7.544-7.691 17.265 17.265 0 01-2.443-5.091c-.213-.758-.425-1.625-.532-2.491-.106-.65-.106-1.3-.106-1.842 0-1.408.638-2.924 1.381-3.033.957-.216 1.275.434 2.019 1.517.213.433.425.758.638 1.191a36.53 36.53 0 011.062 3.142c.531 1.733 1.169 3.574 1.7 5.307.425 1.192.85 2.383 1.381 3.466.85 1.95 1.807 3.9 2.975 5.741l-.531-.216z" fill="#fff"/><path d="M294.926 346.633c-.425 3.575-1.062 7.149-1.806 10.724-.425 2.058-.85 4.008-1.275 6.066-.425 2.274-1.063 4.549-.531 6.715v.325c-.107.109-.213.109-.426 0l-.106-.108v-.108c-.319-.542-.637-1.192-.744-1.842-2.125-5.199-3.293-10.723-3.506-16.356-.106-3.358.319-6.824 1.063-10.073.637-2.6 1.487-6.499 3.4-8.557 1.7-1.842 3.187 1.083 3.719 2.599 1.168 3.25.637 7.149.212 10.615z" fill="#37474F"/><path d="M291.739 338.943c-1.275 0-2.231 4.224-2.656 6.066-.744 2.924-1.063 5.849-1.063 8.882 0 5.416.956 10.723 2.656 15.814.107.217.107.433.213.65v.108c0 .109.212.217.319.217 0 0 .106 0 .106-.108-.106-.433-.106-.867-.213-1.3-.106-.433-.106-.758-.106-1.192-.212-4.332.106-8.773.744-12.998.637-5.199 1.7-16.139 0-16.139zm-.956 29.896c.106.541.106 1.191.212 1.733-.106-.433-.212-.867-.425-1.3-1.381-4.549-2.231-9.207-2.444-13.973-.106-2.708.107-5.308.532-7.907.212-1.408.637-2.817 1.062-4.116.213-.542 1.169-4.116 1.913-4.008.531.108.637 3.358.743 3.358v1.949c0 1.3-.106 2.708-.212 4.008-.213 2.816-.638 5.741-.956 8.557-.532 4.008-.744 7.908-.425 11.699z" fill="#fff"/><path d="M315.326 356.599c-2.338 4.766-6.375 8.341-10.519 11.482-2.232 1.625-4.463 3.249-6.8 4.874-2.125 1.3-4.038 2.816-5.844 4.55l-.213.216c-.425.542-.85 1.083-1.168 1.733l-.107.109c0 .108 0 .108-.106.216m-.106-.108v-.758c.637-5.525 4.462-11.049 7.65-15.382 3.187-4.332 7.119-8.015 12.113-9.965 1.275-.541 4.037-1.841 5.312-.758 1.275 1.083.213 2.708-.212 3.791l-24.863 23.072z" fill="#37474F"/><path d="M311.607 356.599c-1.169-1.191-4.463 1.733-5.313 2.383-2.444 2.058-4.781 4.333-6.906 6.824-3.613 3.791-6.588 8.232-8.819 12.998l-.106.109v.541l.212-.216c.425-.542.85-1.083 1.275-1.517l.213-.216c3.187-3.358 6.694-6.391 10.306-9.207 2.444-2.058 4.782-4.333 6.907-6.824.425-.759 3.187-3.9 2.231-4.875zm-1.063 2.492c-2.762 4.766-7.65 8.232-11.794 11.698-2.868 2.275-5.418 4.766-7.862 7.582 2.231-4.224 4.887-8.124 8.181-11.698 1.7-2.058 3.613-4.008 5.525-5.849 1.063-.975 2.231-1.95 3.4-2.708.744-.542 1.488-.975 2.338-1.3 1.594-.433.744 1.516.212 2.275z" fill="#fff"/><path d="M290.037 390.611c-.107.109-.107.109-.213.109l.106.108v.108h-.106c-4.356-4.549-8.606-10.073-10.837-16.139-.957-2.492-1.488-5.199-1.594-7.907 0-1.842-.106-5.633 1.381-6.933 3.188-2.708 5.95 8.774 6.375 10.615.744 3.142 1.275 6.391 2.019 9.641.744 3.466 1.806 6.932 2.869 10.29v.108z" fill="#37474F"/><path d="M290.036 390.611c-.212-.325-.318-.541-.531-.866-2.656-4.875-4.569-10.074-5.631-15.49-.531-2.708-1.169-5.416-2.125-8.124-.213-.65-1.063-3.141-2.125-1.841-.531.65-.107 5.308.106 6.499.531 2.708 1.381 5.416 2.55 7.907a59.126 59.126 0 007.225 11.915c.106.109.106.217.213.325v-.108l-.107-.108c.213 0 .319 0 .425-.109zm-6.375-9.857a39.621 39.621 0 01-2.975-7.69 17.611 17.611 0 01-.637-3.25c-.106-.866-.213-1.733-.213-2.599 0-2.167.213-2.708.532-2.708.318 0 .531.216 1.168 1.408.425.866.638 1.733.85 2.599.319 1.192.638 2.492.85 3.792.532 2.491 1.063 4.982 1.807 7.473.956 3.575 2.443 6.933 4.356 10.074a59.044 59.044 0 01-5.738-9.099z" fill="#fff"/><path d="M304.063 379.562c-.532 2.275-1.488 4.333-2.869 6.066-2.656 3.683-5.95 6.716-8.819 10.182l-1.275 1.625c0 .108-.425.866-.425.758 0-.108 0-.325.106-.758.425-2.383 1.913-9.749 3.825-13.54 1.169-2.383 2.55-4.658 4.144-6.607.85-.975 2.656-2.925 4.144-2.492 1.487.434 1.381 3.575 1.169 4.766z" fill="#37474F"/><path d="M301.725 378.046c-1.488-.975-5.419 6.174-5.95 7.149-1.913 3.466-3.506 7.149-4.463 10.94l-.318 1.3c-.107.433-.107.758-.107.758s.319-.65.425-.758l.213-.217c.319-.433.637-.866 1.062-1.299 1.7-2.6 3.507-5.2 5.1-7.799 1.169-1.842 2.338-3.9 3.188-5.958 0-.541 1.594-3.683.85-4.116zm-.425 2.058c-2.125 6.283-6.588 11.157-9.988 16.681l-.106.217c0-.108.106-.325.106-.542.957-3.141 2.125-6.174 3.613-9.098.956-1.734 1.912-3.467 3.081-5.091.531-.975 1.169-1.842 1.913-2.708.318-.325 1.168-1.3 1.487-1.084.319.217.106 1.192-.106 1.625z" fill="#fff"/><path d="M319.364 328.112c-4.568 10.615-16.468 15.598-21.569 25.779-.106.325-.318.65-.425.975 0 .109-.212.109-.212.109s-.106 0-.106-.109v-.216c0-.109.106-.109.106-.217a58.62 58.62 0 016.375-18.631c2.656-4.874 6.163-9.423 11.156-12.023 1.169-.65 3.613-1.95 4.994-.975 1.381.975.319 4.008-.319 5.308z" fill="#37474F"/><path d="M315.327 328.545c-.531-.433-1.487.109-1.912.325-1.275.65-2.338 1.408-3.401 2.383-2.125 1.95-4.037 4.116-5.525 6.608-2.656 4.116-4.887 8.665-6.481 13.323l-.956 3.249c0 .109 0 .217-.106.433.106.109.212.109.318.109l.107-.109c.106-.324.318-.649.425-.974v-.109c.85-2.166 1.912-4.116 3.187-6.066 2.125-2.924 4.356-5.74 6.906-8.34.85-.758 9.457-9.315 7.438-10.832zm-.744 2.492c-1.381 2.491-3.506 4.549-5.419 6.607a159.565 159.565 0 00-5.631 6.391c-1.487 1.733-2.762 3.574-3.931 5.524-.956 1.625-1.806 3.358-2.444 5.091.531-1.842 1.063-3.575 1.806-5.308v-.108a85.482 85.482 0 014.357-8.882v-.108c1.381-2.6 3.081-4.983 4.993-7.149 1.063-1.192 2.232-2.167 3.613-3.142 1.488-.975 2.763-1.624 3.188-1.083.425.542-.107 1.408-.532 2.167z" fill="#fff"/><path d="M303.531 340.569c-1.381 3.033-2.656 6.066-3.931 9.098-.638 1.409-1.169 2.817-1.807 4.333v.108c-.212.542-.425 1.084-.637 1.517-1.913 4.658-4.144 9.424-5.313 14.406-.637 2.6-.956 5.308-1.062 8.016v1.516c-.107 2.275 0 4.658 0 6.933.106 3.141.318 6.282.637 9.423v1.408c.106.975.213 2.058.319 3.033h-.956c-.638-3.033-.957-6.174-1.169-9.315v-2.275c0-.866-.106-1.841-.106-2.708-.213-5.199.106-10.507 1.062-15.706l.106-.433v-.217c0-.108 0-.216.107-.325l.106-.433c.106-.325.106-.542.212-.866 0-.109 0-.217.107-.217 1.487-4.441 3.187-8.774 5.206-12.89.319-.758.744-1.516 1.062-2.275l.638-1.299.956-1.95v-.109c1.488-3.032 2.975-5.957 4.357-8.882 0-.108.212 0 .106.109zm-180.384 59.342h-66.62s.107-10.073 6.694-12.781c3.613-1.625 7.863-.542 10.413 2.599 0 0 2.656-18.522 14.875-18.522s18.063 16.031 18.063 16.031 2.762-4.874 9.456-3.899c6.694.975 7.119 16.572 7.119 16.572zm303.742.015s-2.019-9.748-6.163-11.156c-4.144-1.408-6.587 2.816-6.587 2.816s-.957-9.315-6.8-12.023c-5.844-2.708-9.988 2.816-9.988 2.816s-4.463-11.807-12.325-11.807c-7.863 0-11.9 17.223-11.9 17.223s-4.675-5.091-9.457-2.275c-4.781 2.816-4.781 14.298-4.781 14.298l68.001.108z" fill="#37474F"/><path d="M68.428 399.911H7.12s2.019-8.774 6.056-9.424c4.038-.65 5.95 3.467 5.95 3.467s-.212-12.349 7.438-14.407c7.65-2.058 14.025 8.774 14.025 8.774s4.781-6.174 11.262-5.849c6.482.325 8.182 10.615 8.182 10.615s5.844-3.466 8.394 6.824zm294.816.016h-37.719s.107-5.741 3.825-7.257c2.019-.975 4.463-.325 5.95 1.408 0 0 1.488-10.507 8.394-10.507 6.907 0 10.2 9.099 10.2 9.099 1.169-1.734 3.294-2.6 5.419-2.275 3.825.541 3.931 9.532 3.931 9.532z" fill="#455A64"/><path d="M0 400.235l54.294-.325 54.188-.108 108.482-.108 108.589.108 54.188.108 54.294.325-54.294.217-54.188.108-108.589.217-108.482-.217-54.188-.108L0 400.235z" fill="#263238"/><path d="M150.24 123.374c0 10.399 0 59.9 45.688 68.024 0 0 .743 5.199 2.231 13.431 1.7 9.966 4.569 24.155 8.181 38.67v.108a338.934 338.934 0 004.144 14.84v.108c.106.433.319.975.425 1.408 2.869 9.316 5.313 18.739 7.119 28.38 14.025 74.089-15.832 112.001-15.832 112.001h62.901s15.619-69.324-17.531-138.864c-6.057-12.89 18.275-23.397 29.006-47.335 9.031-20.256 8.713-120.125 4.356-126.516-4.356-6.39-11.368-4.874-11.368 4.008s0 91.745-6.163 107.885c-6.163 16.139-32.3 35.42-32.3 35.42s-13.388-22.422-20.932-71.49c-3.506-23.072-5.737-52.101-4.675-87.413.213-7.474.638-15.273 1.169-23.288.637-9.207-8.713-5.2-11.9 2.924-3.188 8.124-7.544 54.701-1.275 117.525 0 0-31.344-4.441-31.344-54.7 0-9.641-11.9-5.524-11.9 4.874z" fill="#FFC727"/><path opacity=".5" d="M150.24 123.374c0 10.399 0 59.9 45.688 68.024 0 0 .743 5.199 2.231 13.431 1.7 9.966 4.569 24.155 8.181 38.67v.108a338.934 338.934 0 004.144 14.84v.108c.106.433.319.975.425 1.408 2.869 9.316 5.313 18.739 7.119 28.38 14.025 74.089-15.832 112.001-15.832 112.001h62.901s15.619-69.324-17.531-138.864c-6.057-12.89 18.275-23.397 29.006-47.335 9.031-20.256 8.713-120.125 4.356-126.516-4.356-6.39-11.368-4.874-11.368 4.008s0 91.745-6.163 107.885c-6.163 16.139-32.3 35.42-32.3 35.42s-13.388-22.422-20.932-71.49c-3.506-23.072-5.737-52.101-4.675-87.413.213-7.474.638-15.273 1.169-23.288.637-9.207-8.713-5.2-11.9 2.924-3.188 8.124-7.544 54.701-1.275 117.525 0 0-31.344-4.441-31.344-54.7 0-9.641-11.9-5.524-11.9 4.874z" fill="#000"/><g opacity=".1" fill="#000"><path d="M233.856 260.613c3.613 12.565 8.5 24.805 12.113 37.37 3.719 12.673 6.375 25.563 8.075 38.669a205.387 205.387 0 011.275 37.912c-.531 8.665-2.55 17.114-3.931 25.671h5.737c6.8-19.822 5.844-42.244 2.338-62.283-2.444-13.106-5.844-26.104-10.094-38.778-4.25-12.998-8.288-26.321-13.6-38.994-.425-1.083-2.232-.758-1.913.433z"/><path d="M208.569 185.766c2.55 26.429 14.025 52.209 22.206 77.447 8.288 25.455 11.582 52.209 9.882 78.964 0 .65-1.063.65-1.063 0-.212-14.515-.531-29.029-3.4-43.327-2.656-12.89-6.8-25.563-11.05-38.02-4.144-12.24-8.713-24.48-12.113-36.936-3.294-12.457-5.312-25.239-5.737-38.128.106-.759 1.168-.65 1.275 0z"/><path d="M208.675 400.235h6.375c1.807-3.574 3.294-7.257 4.888-10.831a153.32 153.32 0 009.775-32.821c4.144-22.097 3.187-43.977-1.806-65.857-.107-.65-1.063-.325-1.063.216 3.719 21.772 2.656 44.628-2.337 66.183-2.444 10.615-5.738 20.905-9.988 30.979-1.594 4.116-3.613 8.124-5.844 12.131zm23.589-28.595c1.487-4.874 2.337-10.832 4.781-15.381a5.71 5.71 0 014.463-3.142c.106 0 .318-.108.425 0 .212 0 .425 0 .637.109.425 0 .744.108 1.169.216.744.217 1.594.867 1.806 1.625v.109c2.763 4.116 1.806 12.781 1.381 15.922-.637 4.983-2.018 18.089-10.518 16.898-8.182-1.083-5.525-11.698-4.144-16.356zm-34.106-166.919c1.7 9.965 4.569 24.155 8.181 38.67v.108c.425 1.625.956 3.25 1.488 4.983.956 3.358 1.912 6.607 2.762 9.965v.108c.106.434.319.975.425 1.408 2.869 9.316 5.313 18.739 7.119 28.38 1.487-12.457-.85-24.805-4.463-37.153-4.568-15.815-9.668-31.196-15.512-46.469zm76.816-31.954c0-.867.213-1.841.638-2.6.425-.65 1.275-.975 2.019-.866.743.108 1.381.65 1.7 1.3 0 .108.106.216.106.216l.319.65c.106.433.106.758 0 1.192.425 1.083.212 2.274-.744 3.033-.956.866-2.444.758-3.294-.325l-.106-.109c-.638-.65-.85-1.624-.638-2.491zm-35.698 64.775c14.875-16.139 32.3-35.095 32.194-57.408 0-.542.85-.542.956 0 3.4 24.588-13.706 42.785-31.875 58.6-.744.758-1.913-.325-1.275-1.192zm2.337 10.831c.744-4.008 4.144-7.474 7.013-10.398 3.931-3.9 8.075-7.583 11.369-12.024.425-.541 1.381-.108 1.062.542-2.55 3.899-5.418 7.582-8.606 10.94-3.4 3.683-6.163 8.016-9.669 11.482-.319.325-.744.325-1.062 0-.107-.109-.107-.325-.107-.542zM278.27 101.71c0-.434.638-.434.744 0 2.869 19.605 3.294 40.619-.638 60.116-.106.65-1.169.434-1.169-.108 0-20.039 1.063-40.078 1.063-60.008zm-4.676 30.33c0-.109.213-.109.213 0 .106 12.998.106 26.971-2.975 39.644-.213.758-1.488.542-1.488-.216.213-12.999 2.763-26.43 4.25-39.428zm-112.521 20.581c3.188 8.557 6.8 16.356 14.344 22.53 3.506 2.924 7.331 5.416 11.369 7.365 3.931 1.842 8.394 2.708 12.219 4.766.531.325.212.975-.319 1.084-9.244.974-19.869-5.85-25.819-11.807-6.481-6.391-12.325-14.731-12.963-23.722-.106-.758.957-.866 1.169-.216z"/><path d="M159.693 133.123c1.913 16.031 11.157 29.571 23.163 40.836.319.325-.106.867-.531.65-14.982-9.207-22.419-25.346-22.951-41.486 0-.108.213-.108.319 0zm35.488-35.095c.106-.65 1.062-.65 1.062 0-.637 35.637 6.8 70.624 9.775 106.152 0 .65-1.062.758-1.168.109-3.4-17.331-6.057-34.987-8.182-52.535-2.125-17.872-3.294-35.745-1.487-53.726zm4.783 20.688c1.062 15.273 4.462 30.221 10.2 44.411-3.507-23.072-5.738-52.101-4.675-87.413-1.594 4.874-2.975 9.965-3.932 15.056-1.806 9.315-2.231 18.631-1.593 27.946zm-4.357-40.402c.531-3.141 2.019-6.066 2.656-9.207.107-.65 1.382-.65 1.488 0 .425 2.708-.425 4.983-1.169 7.69-1.062 3.684-1.275 7.475-1.806 11.266a.58.58 0 01-.744.541c-.319 0-.531-.216-.531-.541-.425-3.142-.319-6.5.106-9.749zm41.65 173.634c8.712 13.756 14.131 28.596 17.425 44.194.106.649-.85.866-1.063.216-5.418-14.839-11.581-29.462-17.318-44.085-.213-.434.637-.759.956-.325zm-15.619 12.456c2.762 5.308 5.95 13.106 4.675 19.172 0 .109-.213.109-.319 0-1.488-2.708-1.913-5.741-2.656-8.665-.85-3.358-2.019-6.716-2.869-10.074-.106-.541.85-1.083 1.169-.433zm19.232 133.665c3.931-5.091 6.587-11.157 7.756-17.547 1.488-7.583 3.081-15.815 1.488-23.505-1.275-6.283-3.613-12.24-4.569-18.631a91.403 91.403 0 01-.319-22.855c0-.542.85-.542.85 0a87.737 87.737 0 002.763 26.321c1.912 7.149 4.887 14.081 4.887 21.447 0 11.373-1.912 27.621-11.794 35.528-.531.434-1.593-.108-1.062-.758zm-13.389 2.166h3.718c.213-1.95.107-3.899-.531-5.741-1.275-4.441-3.719-9.315-2.975-13.973 0-.216-.425-.433-.531-.216-2.975 6.607-.531 13.214.319 19.93zm.958-23.938c-.319.541-.531 1.191-.425 1.841 0-.65.106-1.3.425-1.841z"/></g><path d="M358.918 261.046c13.203 0 23.906-10.911 23.906-24.371 0-13.46-10.703-24.372-23.906-24.372s-23.907 10.912-23.907 24.372c0 13.46 10.704 24.371 23.907 24.371z" fill="#37474F"/><path d="M370.603 230.176c-.531-5.957-4.568-11.806-11.687-11.806s-11.05 5.849-11.688 11.806c-.85 9.099 5.206 17.44 11.688 25.022 6.481-7.691 12.537-15.923 11.687-25.022zm-11.687 6.499c-3.507 0-6.375-2.924-6.375-6.499 0-3.574 2.868-6.499 6.375-6.499 3.506 0 6.375 2.925 6.375 6.499 0 3.575-2.869 6.499-6.375 6.499z" fill="#fff"/><path d="M213.989 102.902c27.874 0 50.469-23.035 50.469-51.45C264.458 23.034 241.863 0 213.989 0c-27.873 0-50.469 23.035-50.469 51.451s22.596 51.451 50.469 51.451z" fill="#455A64"/><path d="M212.714 37.26c-.106 3.25 0 6.608 0 10.074h12.538c-.532 4.225-.957 8.124-1.594 11.915 0 .433-.956.867-1.488.867-2.975.108-6.056 0-9.35 0v42.677a50.086 50.086 0 01-13.281-2.166V60.332h-11.05v-12.89h10.731c0-.974.106-1.733.106-2.49.107-3.359 0-6.825.213-10.183.637-7.365 5.1-12.565 12.325-13.54 4.463-.65 9.031-.108 13.706-.108V32.82h-4.993a14.52 14.52 0 00-4.357.325c-1.912.324-3.4 2.058-3.506 4.116z" fill="#fff"/><path d="M121.978 243.391c27.873 0 50.469-23.035 50.469-51.451s-22.596-51.451-50.469-51.451c-27.874 0-50.47 23.035-50.47 51.451s22.596 51.451 50.47 51.451z" fill="#455A64"/><path d="M94.457 216.094c6.481.325 12.963-1.733 18.169-5.741-7.544-2.274-10.519-4.657-11.581-8.99l4.993-.217c-5.95-2.274-9.456-6.391-9.88-12.998l5.205 1.408c-5.418-6.932-6.587-12.348-3.293-17.439a37.602 37.602 0 0026.669 13.648c0-.866-.107-1.516-.107-2.166-.212-5.741 2.125-10.074 7.119-12.565 4.994-2.492 9.882-1.842 14.132 1.733.743.758 1.912.975 2.868.65a584.695 584.695 0 006.269-2.383c-.956 2.599-2.656 4.874-4.994 6.499.107.108.107.217.107.325l6.268-1.625.213.217c-1.594 1.624-3.188 3.358-4.888 4.982-.85.65-1.381 1.733-1.381 2.817.106 19.389-14.344 35.528-33.256 37.261-7.544.758-15.088-.758-21.676-4.549-.106-.325-.637-.65-.956-.867z" fill="#fff"/><path d="M227.165 282.494c19.541 0 35.381-16.149 35.381-36.07 0-19.92-15.84-36.07-35.381-36.07s-35.382 16.15-35.382 36.07c0 19.921 15.841 36.07 35.382 36.07z" fill="#455A64"/><path d="M213.352 227.576h.106c1.062.108 2.019.542 2.762 1.3.638.65 1.169 1.516 1.275 2.491.319 1.517-.318 3.142-1.487 4.225a4.25 4.25 0 01-2.125.975c-.425.108-.85.108-1.275.108-1.806-.217-3.4-1.408-3.825-3.25-.107-.325-.107-.65-.107-.975 0-.108.001-.108-.106-.108v-.433c.107 0 .106-.108.106-.108v-.434c.107-.866.532-1.733 1.063-2.383.744-.866 1.806-1.408 2.975-1.408h.638zm15.831 15.922l.106-.108c1.169-1.733 2.869-3.033 4.888-3.574.637-.109 1.381-.217 2.018-.325h1.382c1.275.108 2.656.433 3.825.975 1.168.649 2.231 1.516 2.869 2.816.425.758.743 1.625.956 2.383.212.541.319 1.191.319 1.733 0 .325 0 .542.106.866 0 .542.106 1.084.106 1.625v14.948c0 .325 0 .325-.319.325h-7.119c-.425 0-.425-.108-.425-.433v-13.107c0-.866-.106-1.624-.318-2.491-.107-.433-.319-.975-.638-1.3-.425-.65-1.169-1.191-1.912-1.3-.319-.108-.638-.108-.957-.108h-.956c-1.381.108-2.656.975-3.187 2.275-.213.65-.425 1.191-.532 1.841-.106.65-.106 1.408-.106 2.058v12.457c0 .108-.106.216-.212.216h-7.119.106c-.319 0-.319-.108-.319-.325v-24.588c0-.216.107-.216.213-.216h6.906c.213 0 .213.108.213.216v2.817c0 .216 0 .216.106.324zm-19.976 9.208v-12.457c0-.108.106-.108.106-.108h7.225c.319 0 .319.108.319.325v24.696c0 .108-.106.217-.212.217h-7.225c-.213 0-.319-.109-.319-.325l.106-12.348z" fill="#fff"/><path d="M329.486 214.686c27.873 0 50.469-23.035 50.469-51.451 0-28.415-22.596-51.451-50.469-51.451-27.874 0-50.47 23.036-50.47 51.451 0 28.416 22.596 51.451 50.47 51.451z" fill="#FE9563"/><path d="M359.553 146.338c0-8.34-5.1-13.756-13.281-13.865a1750.777 1750.777 0 00-33.682 0c-7.969.109-13.069 5.416-13.175 13.54-.106 5.741 0 11.482 0 17.114v16.79c.106 8.557 5.206 13.973 13.494 14.081 11.05.108 22.206.108 33.363 0 8.075-.108 13.281-5.524 13.387-13.756 0-11.374 0-22.639-.106-33.904zm-5.312 33.904c0 5.307-2.869 8.232-7.969 8.232-11.157.108-22.207.108-33.363 0-5.206 0-7.969-2.925-8.075-8.232a1842.217 1842.217 0 010-34.229c0-5.199 2.869-8.232 7.969-8.232 11.156-.108 22.206-.108 33.362 0 5.101 0 7.969 3.033 8.076 8.232.106 5.741 0 11.374 0 17.114v17.115z" fill="#fff"/><path d="M329.485 147.095c-8.712-.108-15.725 7.041-15.831 15.923-.106 8.882 6.906 16.031 15.619 16.14 8.606.108 15.725-7.041 15.831-15.815.106-8.882-6.8-16.139-15.406-16.248h-.213zm-.106 26.755c-5.631-.217-10.2-4.766-10.306-10.507 0-5.849 4.675-10.723 10.519-10.723 5.737 0 10.518 4.766 10.518 10.723-.318 5.849-4.993 10.507-10.731 10.507zm20.507-27.08c0 1.841-1.382 3.358-3.188 3.358h-.531c-1.806.108-3.4-1.3-3.506-3.141 0-.325 0-.542.106-.867.106-2.275 1.594-3.249 3.825-3.358 2.125.325 3.506 1.625 3.294 4.008z" fill="#fff"/><path d="M298.139 282.71c18.837 0 34.107-15.567 34.107-34.77 0-19.203-15.27-34.77-34.107-34.77-18.836 0-34.106 15.567-34.106 34.77 0 19.203 15.27 34.77 34.106 34.77z" fill="#FE9563"/><path d="M285.391 261.263v-26.754l31.238 13.431-31.238 13.323z" fill="#fff"/><path d="M175.104 279.028c12.391-5.148 18.342-19.56 13.293-32.192-5.05-12.632-19.188-18.699-31.578-13.551-12.39 5.148-18.342 19.56-13.292 32.192 5.049 12.631 19.187 18.698 31.577 13.551z" fill="#37474F"/><path d="M179.458 259.314c-4.037 8.232-13.494 13.106-13.494 13.106s-9.456-4.874-13.494-13.106c-3.293-6.824-1.168-14.19 4.038-15.815 7.544-2.275 9.456 11.049 9.456 11.049s1.913-13.324 9.457-11.049c5.206 1.625 7.331 8.991 4.037 15.815z" fill="#fff"/><path d="M301.86 106.801c19.54 0 35.381-16.15 35.381-36.07s-15.841-36.07-35.381-36.07c-19.541 0-35.382 16.15-35.382 36.07s15.841 36.07 35.382 36.07z" fill="#37474F"/><path d="M312.164 56l.638.975-.638-.975zm.638 1.083l.425.217-.425-.217zm6.056 6.5v-2.817c-.319-.108-.744-.108-1.062-.216a12.833 12.833 0 01-1.807-.759c-.531-.325-1.062-.65-1.594-1.083-.212-.216-.531-.433-.743-.65l-.107-.108-.106-.108a3.296 3.296 0 01-.531-.759c-.106 0-.213-.108-.213-.216-.425-.325-.743-.758-1.062-1.192-.531-.65-.956-1.3-1.381-2.058-.319-.758-.638-1.516-.85-2.383-.107-.325-.107-.541-.213-.866v-.109h-5.419c-.106 0-.106 0-.106.109v28.379c0 .433 0 .867-.106 1.3-.106.541-.106 1.083-.319 1.624l-.319.65a8.124 8.124 0 01-1.168 1.517c-.744.758-1.807 1.191-2.869 1.408l-.638.108h-.637c-.744 0-1.488-.216-2.231-.433-.532-.217-.957-.433-1.382-.867-.425-.433-.85-.866-1.168-1.408-.213-.433-.319-.866-.425-1.3.106.434.212.759.425 1.192-.107-.108-.319-.217-.425-.325-.213-.108-.319-.325-.532-.433-.425-.433-.743-.975-.956-1.625-.106-.325-.212-.758-.319-1.083-.106-.325-.106-.542-.106-.867v-.541c0-.65.106-1.3.319-1.842.212-.65.425-1.191.85-1.733.425-.541.956-1.083 1.594-1.408.531-.325 1.168-.541 1.806-.758.319-.108.531-.108.85-.108h1.275c.319 0 .637 0 .956.108.106 0 .106 0 .106-.108v-6.066h-1.381c-.531 0-1.062.108-1.594.216-.531.109-1.168.217-1.7.434-.425.108-.743.325-1.168.433-.638.325-1.169.65-1.7.975-.425.216-.744.541-1.063.866-.425.325-.744.65-1.062.975-.425.434-.744.975-1.169 1.408-.425.65-.744 1.192-1.063 1.842-.212.541-.425.975-.637 1.516-.213.758-.425 1.408-.532 2.167-.106.325-.106.758-.106 1.083-.106.758-.106 1.408-.106 2.166 0 .433 0 .867.106 1.192l.319 1.95.637 1.95c.319.757.638 1.407 1.063 2.057.106.108.212.325.319.433.106.109.531.65.85.975-.213-.216-.425-.541-.638-.758v-.108l.106.108c.107.108.213.108.213.217.319.325.744.541 1.169.866.531.325 1.062.65 1.594.867.637.325 1.381.65 2.125.866.318.109.743.217 1.062.217l.956.217h.425c.532 0 .957.108 1.488.108.425 0 .85 0 1.275-.108.531 0 .956-.109 1.487-.217.744-.217 1.488-.433 2.125-.758.85-.325 1.594-.867 2.232-1.3.531-.433 1.062-.867 1.593-1.408.425-.433.744-.867 1.063-1.3.425-.65.85-1.3 1.169-1.95.318-.758.637-1.625.85-2.383.106-.433.212-.866.318-1.408.107-.541.107-.65.107-.975v-.541c.106-2.6 0-5.2.106-7.8.106-2.599 0-5.199 0-7.798v-.217l.212.217 1.275.975c.425.216.85.433 1.275.758.744.325 1.594.65 2.338.866.531.217 1.169.325 1.806.434.638.108.957.216 1.382.216.318 0 .531.109.85.109h.531c.106 0 .106 0 .106-.109v-2.708z" fill="#FEFEFE"/><path d="M320.558 68.132c0 .108 0 .108-.106.108-.425 0-.85-.108-1.169-.108-.319 0-.638-.109-.956-.109-.319 0-.744-.108-1.063-.216-.744-.109-1.381-.325-2.019-.542l-1.593-.65c-.638-.325-1.275-.65-1.913-1.083-.319-.216-.637-.541-.956-.758v14.84c0 .433 0 .758-.106 1.191 0 .217-.107.542-.107.758 0 .217-.106.758-.212 1.083-.106.325-.213.975-.425 1.517-.213.65-.425 1.191-.744 1.733-.319.65-.744 1.408-1.169 1.95-.212.325-.425.541-.637.866a4.689 4.689 0 00-.638.758c-.318.325-.637.65-.956.867-.319.217-.637.433-.956.758-.531.325-1.169.65-1.806.975-.532.217-1.063.433-1.7.542-.319.108-.744.108-1.063.216-.319.109-.744.109-1.063.109h-1.806c-.425 0-.744 0-1.169-.109l-.956-.108c-.637-.108-1.381-.325-2.019-.542-.425-.108-.743-.325-1.062-.433-.638-.325-1.275-.65-1.806-1.083-.319-.217-.638-.433-.957-.758-.425-.325-.85-.65-1.168-1.084v-.108c-.319-.325-.85-.975-.85-.975.106.109.212.109.318.217l.213.217c.319.325.744.541 1.169.866.531.325 1.062.65 1.593.867.638.325 1.382.65 2.125.866.319.109.744.217 1.063.217l.956.217h.425c.531 0 .956.108 1.488.108.425 0 .85 0 1.275-.108.531 0 .956-.109 1.487-.217.744-.217 1.488-.433 2.125-.758.85-.325 1.594-.867 2.232-1.3.531-.433 1.062-.867 1.593-1.408.425-.434.744-.867 1.063-1.3.425-.65.85-1.3 1.169-1.95.318-.758.637-1.625.85-2.383.106-.433.212-.866.318-1.408.107-.542.107-.65.107-.975v-.541c.106-2.6 0-5.2.106-7.8.106-2.599 0-5.199 0-7.798v-.542l.212.217 1.275.975c.425.216.85.433 1.275.758.744.325 1.594.65 2.338.866.531.217 1.169.325 1.806.434.638.108.956.216 1.381.216.319 0 .532.109.85.109h.532c.106 0 .106 0 .106-.109v-5.524c.212 0 .319.108.531.108.213 0 .531.109.744.109h.319c.106 0 .106 0 .106.108v7.04z" fill="#455A64"/><path d="M298.139 65.965h-1.381c-.531 0-1.062.108-1.594.216-.531.109-1.168.217-1.7.434-.425.108-.743.325-1.168.433-.638.325-1.169.65-1.7.975-.425.217-.744.541-1.063.867-.425.324-.744.65-1.062.974-.425.434-.744.975-1.169 1.408-.425.65-.744 1.192-1.063 1.842-.212.541-.425.975-.637 1.516-.213.758-.425 1.409-.531 2.167-.107.325-.107.758-.107 1.083-.106.758-.106 1.408-.106 2.166 0 .433 0 .867.106 1.192l.319 1.95.638 1.95c.318.757.637 1.407 1.062 2.057.106.109.213.325.319.434l-.319-.217c-.425-.433-.85-.975-1.275-1.517-.425-.541-.744-1.083-1.062-1.624a10.417 10.417 0 01-.957-2.275c-.212-.542-.318-1.192-.425-1.841 0-.325-.106-.759-.106-1.084v-2.274c0-.325 0-.65.106-.975.213-1.3.532-2.6.957-3.791.425-.975.85-1.842 1.487-2.708a7.59 7.59 0 01.85-1.083 5.095 5.095 0 011.063-1.084c.637-.541 1.275-1.083 2.018-1.516.744-.433 1.594-.867 2.444-1.083.638-.217 1.169-.325 1.806-.433l1.063-.109h1.594c.425 0 .85 0 1.275.109h.425c.106 0 .106 0 .106.108-.213.65-.213 1.191-.213 1.733z" fill="#FE9563"/><path d="M309.189 50.367h-5.419c-.106 0-.106 0-.106.109v28.379c0 .433 0 .867-.106 1.3-.106.541-.106 1.083-.319 1.624l-.319.65a8.129 8.129 0 01-1.169 1.517c-.743.758-1.806 1.191-2.868 1.408l-.638.108h-.637c-.744 0-1.488-.216-2.232-.433-.531-.217-.956-.433-1.381-.867-.425-.433-.85-.866-1.169-1.408l.213.109c1.062.541 2.231.866 3.4.758.744-.108 1.594-.325 2.231-.65a3.82 3.82 0 001.063-.758 5.683 5.683 0 001.275-1.517c.318-.433.425-.974.531-1.516l.106-1.083V48.635s0-.11.106-.11h6.801c.212 0 .212 0 .212.218 0 .541 0 .974.106 1.516.213 0 .319 0 .319.108z" fill="#FE9563"/><path d="M299.84 67.59v6.174c0 .109 0 .109-.106.109h-1.169c-.638 0-1.275 0-1.806.216-.957.217-1.913.65-2.657 1.3-.531.433-.85.975-1.168 1.517-.319.541-.425 1.083-.532 1.624 0 .217-.106.434-.106.758v.867c0 .325.106.758.106 1.083l.107.325c.106.433.318.867.425 1.3-.213-.108-.319-.217-.532-.325-.212-.108-.318-.325-.531-.433-.425-.434-.744-.975-.956-1.625-.106-.325-.213-.758-.319-1.083-.106-.325-.106-.542-.106-.867v-.541c0-.65.106-1.3.319-1.842.212-.65.425-1.191.85-1.733.425-.541.956-1.083 1.593-1.408.532-.325 1.169-.541 1.807-.758.318-.109.531-.109.85-.109h1.275c.318 0 .637 0 .956.109.106 0 .106 0 .106-.109v-6.065h.213c.425 0 .85 0 1.168.108h.213c.106 0 .106 0 .106.108l-.106 1.3z" fill="#455A64"/><path d="M312.801 57.083c-.106 0-.212-.108-.212-.216-.425-.325-.744-.758-1.063-1.192-.531-.65-.956-1.3-1.275-2.058-.318-.758-.637-1.516-.85-2.383-.106-.325-.106-.541-.212-.866v-.109h1.487c.107 0 .107 0 .107.109 0 .433 0 .866.106 1.3.106.65.212 1.407.425 2.057.212.542.425 1.192.637 1.733.107.217.213.325.213.542.212.433.425.758.637 1.083z" fill="#263238"/><path d="M318.859 59.249v1.516c-.319-.108-.744-.108-1.063-.216a12.872 12.872 0 01-1.806-.758c-.531-.325-1.062-.65-1.594-1.084-.212-.216-.531-.433-.743-.65l-.107-.108c-.212-.217-.425-.541-.637-.866l.425.216c.425.325.956.542 1.381.758.319.109.638.325.956.434.638.216 1.275.325 1.913.433.425.108.85.108 1.275.108v.217z" fill="#FE9563"/><path d="M224.299 207.646c27.873 0 50.469-23.035 50.469-51.451 0-28.415-22.596-51.451-50.469-51.451s-50.469 23.036-50.469 51.451c0 28.416 22.596 51.451 50.469 51.451z" fill="#37474F"/><path d="M192.102 189.015c1.381-5.091 2.656-9.857 4.037-14.623.425-1.409.319-2.925-.425-4.225-9.775-20.039 3.188-44.194 24.969-46.902 20.082-2.491 37.082 12.89 36.657 33.254-.319 16.681-14.238 31.087-30.601 31.846a32.797 32.797 0 01-16.043-3.142c-.957-.433-2.019-.433-3.082-.216-5.1 1.191-10.094 2.599-15.512 4.008zm7.862-7.691c3.188-.867 5.95-1.625 8.606-2.275.957-.216 1.913 0 2.869.434a29.083 29.083 0 0013.069 3.466c16.682.325 30.069-15.49 26.882-32.062-2.232-11.482-9.138-18.956-20.188-21.556-11.475-2.708-21.144 1.083-28.05 10.724-6.8 9.423-6.907 19.605-1.382 29.787.532.975.638 2.167.425 3.25-.637 2.599-1.487 5.199-2.231 8.232z" fill="#fff"/><path d="M210.591 142.438c2.231-3.033 5.1-2.383 6.694.867.637 1.3.743 1.733 1.381 3.249.85 2.275.637 3.791-.85 5.2-1.169 1.083-1.063 1.949-.213 3.141a23.97 23.97 0 009.775 8.449c.957.649 2.338.325 2.976-.65v-.109c2.868-3.466 2.868-3.466 6.906-1.516l1.381.65c3.081 1.516 3.506 4.333 1.063 6.824-2.338 2.383-5.844 3.249-9.032 2.275-8.606-2.275-14.875-7.799-19.656-15.273a12.56 12.56 0 01-2.444-7.474c.106-1.842.85-3.9 2.019-5.633z" fill="#fff"/><path d="M71.508 154.137c13.204 0 23.907-10.912 23.907-24.372 0-13.46-10.704-24.371-23.907-24.371s-23.906 10.911-23.906 24.371c0 13.46 10.703 24.372 23.906 24.372z" fill="#455A64"/><path fill-rule="evenodd" clip-rule="evenodd" d="M67.893 140.489c-.744-.434-1.381-1.084-2.338-.975-.318 0-.318-.217-.318-.434v-10.94c0-.216.106-.541.319-.65 2.762-1.408 3.93-4.224 5.63-6.607 1.7-2.383 2.444-5.416 1.913-8.34-.106-.542.213-1.192.744-1.3h.212c.744-.325 1.594 0 2.02.65a13.288 13.288 0 011.593 4.766c0 1.408-.106 2.816-.531 4.116-.106.975-.319 2.058-.531 3.033.212.216.53.108.743.108h9.138c1.275 0 1.912.325 2.125 1.191.212 1.084-.425 2.167-1.381 2.6-.213.108-.638 0-.638.433 0 .434.425.325.638.434 1.062.758.956 2.383-.32 3.249-.318.217-.85.108-.955.542-.107.433.53.325.85.65.743.866.53 2.166-.32 2.924-.212.109-.318.217-.53.325-.213.109-.32.109-.532.217-.106.108-.318.216 0 .433a1.8 1.8 0 01.744 2.491c-.212.325-.425.65-.744.759l-.425.325c-.53.325-1.062.433-1.593.325H69.168c-.425.108-.85 0-1.275-.325zM54.4 134.097v-6.932c0-.433 0-.65.639-.65h8.287c.531 0 .638.217.638.65v14.081c0 .65-.107.759-.744.759h-8.075c-.638 0-.744-.217-.744-.867v-7.041z" fill="#fff"/><path d="M185.302 228.01c6.631 0 12.006-5.48 12.006-12.24s-5.375-12.24-12.006-12.24-12.007 5.48-12.007 12.24 5.376 12.24 12.007 12.24z" fill="#FE9563"/><path d="M185.09 207.321a4.485 4.485 0 013.081.866c.744.542 1.275 1.409 1.594 2.275.106.325.106.65.106.975v1.516c0 .434-.106.867-.106 1.192 0 .216 0 .216.106.216a.887.887 0 00.744 0c.106 0 .212-.108.318-.108.319-.108.638 0 .957.217.106.108.106.433 0 .541-.213.217-.425.325-.638.434-.212.108-.425.108-.637.216-.107.109-.213.109-.319.217-.319.217-.425.542-.319.975.106.433.319.758.638 1.191.425.65 1.062 1.3 1.7 1.733.425.325.956.434 1.487.542.106 0 .213.108.213.217v.108l-.319.325c-.319.217-.744.325-1.169.433l-.637.108c-.107 0-.213.109-.213.217-.106.217-.106.433-.212.758-.107.325-.107.325-.425.217-.319-.108-.638-.108-.957-.108-.743-.109-1.487.108-2.125.65l-.956.649c-.531.325-1.169.434-1.806.434-.744 0-1.381-.217-1.913-.65l-.956-.65a1.767 1.767 0 00-1.062-.325c-.532 0-1.063 0-1.488.108-.319 0-.425 0-.425-.325s-.106-.433-.106-.65c0-.108-.106-.325-.319-.325-.531-.108-1.169-.216-1.594-.433-.106 0-.212-.108-.212-.216l-.213-.217c0-.108 0-.217.107-.217h.106c.319-.108.744-.216 1.062-.433a4.579 4.579 0 001.7-1.516c.319-.434.638-.867.85-1.409.107-.108.107-.216.107-.433 0-.325-.107-.65-.425-.758l-.638-.325c-.319-.108-.531-.217-.744-.433-.106 0-.106-.109-.212-.109-.106-.108-.106-.433 0-.541.212-.217.531-.217.85-.109.212.109.531.217.744.217.106 0 .318 0 .425-.108l.106-.109c0-.541-.106-1.191-.106-1.733v-1.299c0-.325.106-.65.212-.975.425-1.3 1.381-2.275 2.656-2.708.319-.325.85-.325 1.382-.325z" fill="#fff"/><path d="M276.146 127.165c6.631 0 12.006-5.48 12.006-12.24s-5.375-12.24-12.006-12.24-12.006 5.48-12.006 12.24 5.375 12.24 12.006 12.24z" fill="#455A64"/><path d="M276.147 114.385c2.23 0 4.037-1.843 4.037-4.117 0-2.273-1.807-4.116-4.037-4.116s-4.038 1.843-4.038 4.116c0 2.274 1.808 4.117 4.038 4.117zm6.906 7.148v1.517H269.24v-1.517c0-3.899 3.081-7.04 6.906-7.04 3.825 0 6.907 3.141 6.907 7.04z" fill="#fff"/><path d="M96.372 102.685c2.125 20.689 20.294 35.745 40.694 33.579 7.862-.867 15.3-4.225 21.25-9.749l18.488 2.817-9.244-16.357c7.756-19.28-1.381-41.269-20.294-49.176-18.913-7.907-40.482 1.408-48.238 20.689-2.444 5.849-3.294 12.023-2.656 18.197z" fill="#455A64"/><path d="M107.422 71.598c8.181-8.232 19.656-12.131 31.025-10.507a36.922 36.922 0 0115.832 6.066c4.781 3.25 8.712 7.474 11.581 12.565 5.844 10.29 6.694 22.747 2.337 33.687v-.758l9.244 16.356.638 1.191-1.382-.216-18.487-2.925.425-.108c-5.1 4.766-11.475 7.907-18.275 9.207-1.7.325-3.4.541-5.1.541-8.607.434-17.107-2.274-24.013-7.582a58.75 58.75 0 01-3.931-3.358c-1.169-1.191-2.338-2.599-3.4-3.899-11.475-15.273-9.988-36.937 3.506-50.26z" fill="#FE9563"/><path d="M112.521 99.978c0 2.491 2.019 4.549 4.463 4.549s4.462-2.058 4.462-4.55c0-2.49-2.018-4.549-4.462-4.549s-4.463 1.95-4.463 4.55zm16.044 0c0 2.491 2.018 4.549 4.462 4.549s4.463-2.058 4.463-4.55c0-2.49-2.019-4.549-4.463-4.549s-4.462 1.95-4.462 4.55zm16.045 0c0 2.491 2.018 4.549 4.462 4.549s4.463-2.058 4.463-4.55c0-2.49-2.019-4.549-4.463-4.549s-4.462 1.95-4.462 4.55z" fill="#263238"/><path d="M386.329 90.12c-1.381 13.324-13.069 22.964-26.138 21.556-5.1-.542-9.881-2.708-13.6-6.282l-12.006 1.841 5.95-10.507c-1.487-3.683-2.019-7.69-1.594-11.698 1.169-13.323 12.644-23.18 25.819-22.097 13.069 1.191 22.738 12.89 21.675 26.321-.106.325-.106.65-.106.867z" fill="#455A64"/><path d="M386.33 90.12c-.425 4.441-2.125 8.774-4.781 12.24a23.753 23.753 0 01-2.125 2.491c-.744.759-1.594 1.517-2.55 2.167-1.7 1.408-3.719 2.491-5.738 3.249-2.019.867-4.144 1.3-6.375 1.517-1.062.108-2.231.108-3.294.108-1.062 0-2.231-.108-3.294-.325-4.356-.866-8.5-2.925-11.793-5.957l.318.108-11.9 1.841-.85.109.425-.759 5.95-10.507v.434c-5.1-12.348.744-26.755 12.963-31.846 12.219-5.09 26.35.867 31.344 13.323 1.594 3.792 2.125 7.8 1.7 11.807z" fill="#455A64"/><path d="M375.917 88.387c0 1.625-1.275 2.925-2.869 2.925-1.594 0-2.869-1.3-2.869-2.925 0-1.625 1.275-2.925 2.869-2.925 1.594 0 2.869 1.3 2.869 2.925zm-10.412 0c0 1.625-1.275 2.925-2.868 2.925-1.594 0-2.869-1.3-2.869-2.925 0-1.625 1.275-2.925 2.869-2.925 1.593 0 2.868 1.3 2.868 2.925zm-10.308 0c0 1.625-1.275 2.925-2.868 2.925-1.594 0-2.869-1.3-2.869-2.925 0-1.625 1.275-2.925 2.869-2.925 1.593 0 2.868 1.3 2.868 2.925z" fill="#fff"/><path d="M140.466 57.733c13.203 0 23.906-10.911 23.906-24.371 0-13.46-10.703-24.372-23.906-24.372S116.56 19.902 116.56 33.362c0 13.46 10.703 24.371 23.906 24.371z" fill="#FE9563"/><path d="M151.619 26.538c0 2.708-2.125 4.982-4.888 4.982-2.656 0-4.887-2.166-4.887-4.982 0-2.708 2.125-4.983 4.887-4.983 2.657.108 4.888 2.275 4.888 4.983zm3.507 13.648v1.841h-16.681v-1.841c0-4.766 3.719-8.557 8.394-8.557 4.569 0 8.287 3.9 8.287 8.557z" opacity=".5" fill="#000"/><path d="M139.189 29.571c0 2.708-2.125 4.983-4.888 4.983-2.656 0-4.887-2.167-4.887-4.983 0-2.708 2.125-4.983 4.887-4.983 2.656 0 4.888 2.275 4.888 4.983zm3.4 13.648v1.841h-16.787v-1.84c.212-4.766 4.037-8.449 8.712-8.232 4.463.108 7.969 3.682 8.075 8.232z" fill="#fff"/><path d="M277.815 207.646c1.531-6.578-2.458-13.175-8.91-14.736s-12.923 2.506-14.455 9.083c-1.531 6.578 2.458 13.175 8.91 14.736s12.924-2.506 14.455-9.083z" fill="#455A64"/><path d="M261.485 208.837h-.956c-.637 0-1.062-.542-1.062-1.083 0-.542.531-1.083 1.062-1.083h1.381l.638-3.792h-1.275c-.638 0-1.063-.541-1.063-1.083 0-.541.532-1.083 1.063-1.083h1.594l.425-2.6c.106-.541.531-.974 1.062-.974.638 0 1.063.541 1.063 1.191v.108l-.425 2.167h3.293l.425-2.6c.107-.541.532-.975 1.169-.975.638 0 1.063.542 1.063 1.192v.108l-.319 2.166h.956c.638 0 1.063.542 1.063 1.084 0 .541-.532 1.083-1.063 1.083h-1.381l-.638 3.791h1.169c.638 0 1.063.433 1.063 1.083 0 .65-.425 1.083-1.063 1.083h-1.594l-.425 2.6c-.106.542-.531.975-1.062.975-.638 0-1.063-.542-1.063-1.192v-.108l.425-2.275h-3.293l-.425 2.6c-.107.542-.532.975-1.063.975-.637 0-1.062-.433-1.062-1.083v-.217l.318-2.058zm5.95-2.275l.638-3.791h-3.294l-.637 3.791h3.293z" fill="#fff"/><path d="M106.582 62.445c6.479-1.441 10.585-7.964 9.171-14.568-1.414-6.604-7.812-10.79-14.29-9.349-6.478 1.441-10.584 7.964-9.17 14.568 1.413 6.605 7.811 10.79 14.289 9.349z" fill="#37474F"/><path d="M103.171 42.46c-4.356.542-7.437 4.55-6.906 8.99.531 4.442 4.463 7.583 8.819 7.041.637-.108 1.275-.216 1.912-.433.319-.108.532-.433.425-.758v-.108c0-.109-.106-.325-.212-.325a.667.667 0 00-.638 0 4.19 4.19 0 01-1.593.325c-3.613.433-6.8-2.167-7.225-5.85-.425-3.682 2.124-6.932 5.737-7.365 3.613-.434 6.8 2.166 7.225 5.849.106 1.083 0 2.166-.425 3.141-.212.542-.531.975-1.062 1.192h-.319c-.106-.109-.106-.325-.213-.434-.212-.758-.425-3.25-.425-3.25v-.324c-.425-2.275-2.55-3.791-4.781-3.358-2.231.433-3.719 2.6-3.294 4.874.425 2.167 2.338 3.683 4.569 3.466.956-.108 1.913-.65 2.55-1.408v.325c.106.434.213.759.531 1.084.425.433.957.541 1.488.541.106 0 .319-.108.425-.108.85-.434 1.487-1.083 1.806-1.95.425-1.191.531-2.491.425-3.791-.637-4.658-4.462-7.799-8.819-7.366zm1.169 10.94a2.765 2.765 0 01-2.975-2.6c-.212-1.516.744-3.032 2.338-3.249 1.487-.108 2.868 1.083 2.975 2.6.318 1.516-.744 2.924-2.338 3.25z" fill="#fff"/><path d="M110.711 462.301c.744-2.274 41.226-54.484 43.988-55.459.319-.108 17.638 12.999 17.638 12.999.744.975 34.319-5.525 34.319-5.525l-.531 41.161-60.988-2.599s-8.288 4.766-15.938 8.665c-3.294 1.733-6.587 3.358-9.987 4.658-3.082.866-9.351-1.625-8.501-3.9z" fill="#AD6359"/><path d="M119.212 466.31c3.4-1.3 6.8-2.925 9.988-4.658 7.65-3.899 15.937-8.665 15.937-8.665l13.601.541 21.993-34.445c-4.675.758-8.181 1.191-8.393.867 0 0-17.319-13.107-17.638-12.999-2.763.975-43.244 53.185-43.988 55.459-.744 2.275 5.419 4.658 8.5 3.9z" fill="#fff"/><path d="M110.287 462.41c.85-2.275 41.437-54.484 44.2-55.459 1.063-.433 9.563 5.199 17.744 12.998l-26.244 33.579s-23.8 12.24-26.988 12.998c-3.187.758-9.456-1.841-8.712-4.116z" fill="#FE9563"/><path d="M112.943 463.276c7.013-8.557 34.532-43.868 40.907-52.859 0-.108 0-.108-.106 0-7.119 8.341-34.426 43.869-41.013 52.859 0 .109.106.217.212 0zm10.52 1.409c1.593-1.95 2.337-4.441 2.018-6.932-.318-2.167-1.381-4.225-3.081-5.633-.106 0-.106.108-.106.108 3.081 3.358 3.506 8.449 1.169 12.457 0 0-.107 0 0 0zm19.55-9.099c2.762-3.466 4.675-8.557 3.612-12.998 0-.217-.319-.108-.319 0a57.768 57.768 0 01-3.718 12.673c0 .108.106.325.212.325.106.108.213 0 .213 0zm-3.081 1.841c2.762-3.466 4.675-8.557 3.612-12.998 0-.216-.319-.108-.319 0-.85 4.333-2.018 8.666-3.825 12.674 0 .108 0 .324.213.324.106.109.212.109.319 0zm-3.188 1.842c2.763-3.466 4.675-8.557 3.613-12.998 0-.217-.319-.109-.319 0-.85 4.332-2.019 8.557-3.719 12.673-.106.108 0 .325.106.433.107.108.319.108.319-.108zm-3.082 1.949c2.762-3.466 4.675-8.557 3.612-12.998 0-.216-.318-.108-.318 0-.85 4.333-2.019 8.666-3.825 12.782 0 .108.106.325.212.325s.213-.109.319-.109zm26.565-41.918c3.081-3.899-2.975-8.774-5.95-4.874-2.975 3.899 2.869 8.774 5.95 4.874z" fill="#263238"/><path d="M149.281 466.742c2.869-.65 3.188-4.007 2.55-6.282-1.169-3.9-3.4-7.474-6.269-10.29 0 0-.106-.109-.212 0-.213-.109-.531 0-.744.216v.109c-.212 3.899-.956 8.015-.106 11.806.531 2.383 2.125 5.091 4.781 4.441zm-3.931-10.182c.106-1.949.212-3.791.212-5.74 1.275 1.949 2.444 4.007 3.507 6.065.531.975.956 2.058 1.275 3.142.531 1.624.743 7.474-3.294 4.766-2.125-1.408-1.806-5.958-1.7-8.233z" fill="#263238"/><path d="M150.981 440.53c-2.868 2.708-4.462 6.499-6.268 9.857-.107.217 0 .542.212.759h.213c0 .108 0 .108.106.108 3.931-.65 7.756-2.383 10.837-5.091 1.807-1.517 3.294-4.549 1.275-6.607-2.018-2.059-4.675-.65-6.375.974zm3.613-.541c4.781 0 1.487 4.766.106 5.849-.85.65-1.806 1.3-2.762 1.95-2.019 1.191-4.144 2.166-6.269 3.141 1.062-1.625 1.912-3.25 2.869-4.874 1.168-2.167 3.4-6.066 6.056-6.066z" fill="#263238"/><path d="M208.569 404.568l27.519-2.166s39.738-11.699 62.688-5.633c26.351 7.041 29.963 38.345 3.294 50.91-26.456 12.456-142.908 7.799-142.908 7.799l24.969-37.695s38.357-9.207 71.932-7.366l-47.494 5.524v-11.373z" fill="#37474F"/><path d="M208.888 412.583c4.144-.649 8.181-1.083 12.325-1.408 4.144-.433 8.287-.65 12.538-.975 8.287-.541 16.681-.649 24.969-.433l2.337.108c.213 0 .319-.108.531-.108.425-.108.85-.216 1.169-.216l2.231-.325c1.594-.217 3.188-.325 4.782-.65 0 0 .106 0 .106.108s0 .108-.106.108c-1.594.325-3.188.759-4.782 1.083l-1.381.217c3.081.217 6.056.542 9.138.867.106 0 .106.108 0 .108-4.144-.325-8.288-.433-12.432-.433s-8.287 0-12.325.108c-8.394.325-16.681.867-24.969 1.625-4.675.433-9.35.866-14.025.975-.531.108-.531-.65-.106-.759zm-37.824 42.137c1.487-2.383 2.868-4.983 4.25-7.474l4.25-7.474c2.869-4.982 12.962-21.555 14.025-22.747.106-.108.212 0 .106.109-.531 1.299-6.906 12.348-8.287 14.731-2.975 4.874-5.95 9.749-9.032 14.623a89.815 89.815 0 01-2.656 4.116c-.956 1.408-1.806 2.816-2.656 4.116-.107.108 0 .217 0 0z" fill="#263238"/><path d="M307.702 469.992c-.637-2.275-38.675-56.434-41.332-57.517-.318-.108-18.275 12.131-18.275 12.131-.743.975-34-7.149-34-7.149l-1.381 41.161 60.988.325s8.075 5.2 15.512 9.424c3.188 1.95 6.375 3.683 9.776 5.199 3.081.759 9.35-1.3 8.712-3.574z" fill="#AD6359"/><path d="M299.094 473.458c-3.4-1.516-6.588-3.25-9.775-5.199-7.438-4.225-15.513-9.424-15.513-9.424l-13.6-.108-20.294-35.529c4.675.975 8.075 1.625 8.394 1.3 0 0 17.956-12.348 18.275-12.131 2.656 1.083 40.694 55.242 41.332 57.516.637 2.275-5.844 4.442-8.819 3.575z" fill="#fff"/><path d="M308.126 469.992c-.743-2.383-38.888-56.434-41.65-57.517-1.063-.433-9.775 4.766-18.275 12.132l24.65 34.878s23.269 13.431 26.35 14.298c3.081.867 9.563-1.408 8.925-3.791z" fill="#FE9563"/><path d="M305.471 470.751c-6.588-8.883-32.513-45.494-38.357-54.809 0-.109 0-.109.106 0 6.8 8.665 32.301 45.493 38.463 54.7 0 .217-.106.325-.212.109zm-10.627.867c-1.487-1.95-2.125-4.55-1.7-7.041.319-2.166 1.594-4.224 3.294-5.524l.106.108c-3.187 3.25-3.825 8.341-1.594 12.348 0 .109-.106.217-.106.109zm-19.124-9.967c-2.656-3.574-4.356-8.665-2.975-13.106 0-.217.319-.109.319 0 .638 4.332 1.7 8.665 3.188 12.781.106.108 0 .325-.107.433-.212 0-.318 0-.425-.108z" fill="#263238"/><path d="M278.803 463.602c-2.657-3.574-4.357-8.665-2.975-13.106 0-.217.318-.109.318 0 .638 4.332 1.7 8.665 3.188 12.781 0 .109 0 .325-.213.325-.106.217-.318.108-.318 0z" fill="#263238"/><path d="M281.779 465.659c-2.657-3.574-4.357-8.773-2.975-13.106 0-.217.318-.109.318 0 .638 4.333 1.7 8.665 3.188 12.781.106.109 0 .325-.106.325-.107.217-.319.109-.425 0z" fill="#263238"/><path d="M284.857 467.718c-2.656-3.575-4.356-8.774-2.975-13.107 0-.216.319-.108.319 0 .637 4.333 1.7 8.666 3.187 12.782.107.108 0 .325-.106.325-.212.108-.319.108-.425 0zm-24.648-43.219c-2.869-4.116 3.294-8.666 6.269-4.55 2.975 4.116-3.4 8.666-6.269 4.55zm13.811 43.868c1.062-3.791.531-7.907.531-11.807 0-.325-.319-.541-.531-.541h-.213s-.106-.108-.212 0c-3.082 2.708-5.419 6.066-6.801 9.965-.743 2.275-.531 5.633 2.232 6.391 2.762.758 4.25-1.733 4.994-4.008zm-2.869 2.383c-4.144 2.491-3.719-3.249-3.081-4.874.425-1.083.956-2.058 1.487-3.141 1.169-2.058 2.55-4.008 3.825-5.958-.106 1.95 0 3.791 0 5.741 0 2.275.106 6.824-2.231 8.232z" fill="#263238"/><path d="M262.227 444.971c-2.125 1.949-.744 5.09.956 6.715 2.975 2.817 6.694 4.658 10.625 5.524.106 0 .106 0 .106-.108.319 0 .532-.325.532-.541v-.217c-1.7-3.466-3.188-7.366-5.844-10.182-1.7-1.625-4.463-3.141-6.375-1.191zm8.5 6.715c.85 1.625 1.7 3.358 2.656 4.983-2.019-1.083-4.144-2.058-6.162-3.358-.957-.65-1.807-1.3-2.763-2.058-1.275-1.192-4.356-5.958.425-5.849 2.656.216 4.781 4.224 5.844 6.282z" fill="#263238"/><path d="M212.608 404.784l-27.413-.758s-28.263-14.84-51.425-9.749c-26.563 5.741-30.813 39.537-11.369 51.993 24.65 15.815 136.107 15.923 136.107 15.923l-22.95-42.244s-36.869-8.991-70.444-8.666l47.175 7.908.319-14.407z" fill="#37474F"/><path d="M237.045 422.657v-.433l-.106-.433c-.106-.325-.106-.542-.213-.867-.106-.217-.212-.541-.318-.758-.107-.217-.319-.542-.425-.758h-.319c-4.038-.867-31.663-5.633-35.7-6.283-4.038-.65-8.288-1.083-12.432-1.625a239.735 239.735 0 00-24.969-1.624h-2.337l-.531-.109-1.169-.325c-.744-.108-1.488-.325-2.232-.433-1.593-.325-3.187-.541-4.675-.866-.106 0-.106.108 0 .108 1.594.433 3.082.866 4.675 1.3l1.382.325c-3.082.108-6.163.216-9.138.433 0 0-.106 0-.106.108 0 .109 0 .109.106.109 4.144-.109 8.288 0 12.538.108s8.287.433 12.325.758c8.287.758 16.575 1.733 24.863 2.816 4.675.65 32.725 5.525 37.4 5.958 0 .108.106.217.106.325 0 .108.213.541.425.758.213.217.213.542.425.758l.213.325.106.217c0 .108.106.108.106.217-.106.108 0 0 0-.109z" fill="#263238"/><path d="M249.795 459.485c-1.382-2.491-2.657-5.091-3.932-7.69l-3.931-7.691c-2.656-5.091-12.006-22.205-12.963-23.397-.106-.108-.212 0-.106.109.425 1.3 6.269 12.673 7.65 15.164 2.657 5.091 5.525 9.966 8.394 15.057.85 1.408 1.594 2.816 2.444 4.224.85 1.408 1.7 2.816 2.444 4.224 0 .109.106 0 0 0z" fill="#263238"/><path d="M160.013 288.994l4.25 32.062c.212.975-.319 1.625-1.169 1.516l-15.725-1.841c-.956-.217-1.806-.975-2.019-1.95l-4.144-32.062c-.212-.975.319-1.625 1.169-1.516l15.725 1.841c.957.325 1.7.975 1.913 1.95z" fill="#37474F"/><path d="M158.207 288.777l4.25 32.062c.213.975-.319 1.624-1.169 1.516l-15.725-1.841c-.956-.217-1.806-.975-2.019-1.95l-4.25-32.062c-.212-.975.319-1.625 1.169-1.517l15.725 1.842c.957.216 1.807.975 2.019 1.95z" fill="#455A64"/><path d="M153.742 289.751c-.106.758.532 1.408 1.276 1.516.743.108 1.381-.542 1.487-1.3.106-.758-.531-1.408-1.169-1.516-.956 0-1.594.541-1.594 1.3z" fill="#263238"/><path d="M205.7 340.011c-10.944 18.414-33.894 41.269-42.075 42.136-3.932.433-11.05.541-15.725-4.658-10.201-11.265-17.638-31.629-18.488-42.894-.319-4.008 19.338-10.507 21.781-7.041 5.738 8.233 11.688 23.722 12.857 23.722 4.25.108 20.294-11.157 33.256-19.172 15.407-9.424 12.75.541 8.394 7.907zm-74.695-25.78c2.763-7.799 4.675-9.315 3.613-17.114-.638-5.199 2.231-7.799 5.312-3.358 4.994 7.149 3.4 17.981 1.807 21.555l-10.732-1.083z" fill="#FFC4C0"/><path d="M129.838 338.061s-2.338-11.482-.106-20.039c1.487-5.958 6.268-18.414 23.481-23.505 4.144-1.192 10.731.108 4.781 4.441-4.25 3.141-7.862 3.791-9.987 6.066 0 0 8.287 2.599 9.35 6.824a99.648 99.648 0 011.912 11.265c-.637.217-1.381.433-2.018.541 0 0 .85 4.008-2.55 9.208l-24.863 5.199z" fill="#FFC4C0"/><path d="M132.174 312.606c2.55-1.841 8.181-5.524 13.812-7.041 6.269-1.624 18.7-2.924 19.763 1.734.85 3.466-3.931 4.441-3.931 4.441s5.206.541 5.312 3.791c.107 3.033-3.612 3.466-3.612 3.466s3.187.866 2.656 3.791c-.638 3.466-7.013 1.083-10.625 4.008-.85.758-23.375-14.19-23.375-14.19z" fill="#FFC4C0"/><path d="M146.519 312.605c4.888-1.841 10.201-2.274 15.194-.974.107 0 .213.108.107.108-5.207-.325-10.307 0-15.301.866-.106 0 0 .109 0 0zm1.699 6.391c2.444-.866 9.669-1.949 15.3 0 .106 0 .106.109 0 .109-5.1-.542-10.2-.542-15.3 0v-.109z" fill="#263238"/><path d="M191.888 360.158l-23.162-11.698s22.1-14.732 32.406-19.173c10.732-4.549 14.344-2.058 5.525 10.832-8.819 12.89-14.769 20.039-14.769 20.039z" fill="#FE9563"/><path d="M195.926 355.175l-.106.108a54.071 54.071 0 00-4.25-2.383c-1.382-.758-2.869-1.3-4.357-1.733l-.318-.108-.425-.109c-1.807-.433-3.613-.433-5.419-.108-1.488.325-2.869.866-4.25 1.516l-.319-.108c1.381-.758 2.975-1.3 4.569-1.625 1.806-.325 3.719-.216 5.525.109l.637.108.319.108c1.488.433 2.869.975 4.25 1.733 1.275.867 2.763 1.625 4.144 2.492zm14.131-21.664a19.43 19.43 0 00-4.462 3.358 19.76 19.76 0 00-3.294 4.549c-.956 1.733-1.7 3.575-2.338 5.416 0 .108-.106.108-.106.217a9222.43 9222.43 0 01-1.594 4.874c.213-.217.425-.542.532-.758.425-1.408.85-2.708 1.275-4.116 0-.109 0-.109.106-.217a46.42 46.42 0 012.231-5.307c1.806-3.358 4.463-6.066 7.65-7.799l.425-.217.107-.325-.532.325zm-9.881 13.431h-.319c-1.806-.325-3.612-.216-5.312.109-1.807.433-3.507 1.191-5.1 2.166a18.863 18.863 0 00-2.338 1.733l-.212.217c-.638.541-1.169 1.083-1.7 1.625-.85.866-1.594 1.841-2.232 2.816l.213.108c.637-.975 1.381-1.841 2.231-2.708.638-.65 1.169-1.191 1.913-1.733l.212-.216c.744-.542 1.381-1.084 2.231-1.625 1.594-.975 3.294-1.733 4.994-2.167 1.7-.433 3.506-.433 5.206-.108h.319c.425.108.956.217 1.488.325l.106-.217a47.288 47.288 0 01-1.7-.325z" fill="#fff"/><path d="M192.313 355.283c-.531-.325-1.062-.65-1.594-.866l-1.7-.867a50.227 50.227 0 00-3.4-1.733c-2.337-1.192-4.568-2.383-6.906-3.466-.637-.325-1.275-.65-1.912-.867a16.012 16.012 0 01-2.019-.866s-.106 0 0 .108c.531.325 1.062.65 1.7.975.637.325 1.169.65 1.7.975l3.4 1.733c2.231 1.083 4.569 2.274 6.8 3.358l1.912.866c.638.109 1.382.542 2.019.65 0 .108 0 .108 0 0z" fill="#263238"/><path opacity=".1" d="M206.657 340.227c-8.819 12.999-14.769 20.039-14.769 20.039l-10.307-5.199 28.582-27.513c2.55.867 1.913 4.766-3.506 12.673z" fill="#000"/><path d="M179.776 404.46c.957 1.083 64.389.434 64.707 0 .957-1.083-10.2-56.867-21.356-73.873-3.719-5.741-15.725-6.932-19.869-1.3-11.9 16.032-24.225 74.198-23.482 75.173z" fill="#FE9563"/><path d="M235.665 363.082c-1.169 1.191-2.55 2.166-4.038 2.924-1.594.867-3.4 1.625-5.206 2.058-1.806.434-3.719.542-5.525.434-1.806-.217-3.719-.542-5.419-1.192-1.7-.65-3.4-1.408-5.1-2.274-1.806-.975-3.506-2.058-5.206-3.25l-.319-.217-3.825-2.599-3.825-2.6-.213-.108c-1.487-.975-2.868-1.842-4.462-2.6 0-.108 0-.108.106-.216 1.488.866 2.975 1.733 4.463 2.707l.212.217 3.825 2.6c1.275.866 2.55 1.841 3.825 2.708.106.108.213.108.319.216l.425.325 4.781 2.925a36.697 36.697 0 005.1 2.275c1.7.65 3.507 1.083 5.419 1.191 1.806.217 3.719 0 5.525-.433 1.806-.433 3.506-1.192 5.1-2.058 1.382-.758 2.657-1.625 3.719-2.708.106 0 .106-.109.213-.217.106 0 .106-.108.106-.108zm-11.688-31.412c-1.062-.217-2.125-.434-3.187-.542h-.957c-1.487-.108-3.081.108-4.568.433a19.361 19.361 0 00-5.207 2.058 19.452 19.452 0 00-4.462 3.358 19.765 19.765 0 00-3.294 4.55c-.956 1.733-1.7 3.574-2.338 5.415 0 .109-.106.109-.106.217a285.48 285.48 0 00-1.594 4.983c-.425 1.3-.85 2.599-1.275 3.791 0 0 0 .108-.106.108-.744 2.167-1.806 4.333-3.187 6.174-.85 1.192-1.913 2.275-3.082 3.25l-.212.217-.638.433c-.531.325-.956.65-1.487.975l-.106.433c.637-.325 1.275-.65 1.806-1.083.319-.217.531-.434.85-.65l.319-.217c1.062-.866 2.018-1.95 2.868-3.141 1.382-1.95 2.444-4.008 3.188-6.283v-.108c.531-1.3.956-2.599 1.275-3.899.531-1.625 1.062-3.358 1.594-4.983 0-.108 0-.108.106-.217a46.42 46.42 0 012.231-5.307c1.806-3.358 4.463-6.066 7.65-7.799 1.594-.867 3.294-1.625 5.1-2.058 1.382-.325 2.869-.542 4.357-.542h1.168c1.063.109 2.232.325 3.294.542v-.108zm-1.806-2.383c-.85.541-1.594 1.191-2.338 1.841l-.212.217-.956.975c-1.275 1.408-2.338 3.032-3.188 4.657a63.185 63.185 0 00-3.506 10.724c-.319 1.3-.744 2.599-1.169 3.899v.108c-.637 2.275-1.7 4.333-2.975 6.391-.85 1.192-1.806 2.383-2.869 3.358 0 0 0 .108-.106.108-.212.217-.531.434-.744.65-1.487 1.084-3.081 2.058-4.781 2.708-1.7.65-3.506.975-5.419.975-.956 0-1.912-.108-2.869-.216-.106 0-.318 0-.425-.109-.637-.108-1.168-.216-1.806-.325l-.106.217 1.594.325.425.108a16.052 16.052 0 008.712-.65c1.7-.65 3.294-1.625 4.781-2.816.319-.217.638-.433.851-.758l.106-.109a17.523 17.523 0 002.869-3.357c1.275-1.95 2.231-4.117 2.975-6.391v-.109c.425-1.299.85-2.599 1.168-4.007a63.1 63.1 0 013.507-10.724c.85-1.733 1.806-3.249 3.081-4.657.319-.434.744-.759 1.169-1.192.106-.108.106-.108.212-.108.638-.65 1.381-1.192 2.125-1.733-.106.108-.106 0-.106 0zm13.494 33.795v-.108h-.319c-1.806-.109-3.719-.434-5.419-.975-1.806-.542-3.506-1.3-5.1-2.058a71.135 71.135 0 01-4.887-2.708c-1.594-.975-3.188-1.95-4.675-2.925-1.275-.866-2.657-1.625-3.932-2.491-.106-.109-.212-.109-.318-.217a66.37 66.37 0 00-5.419-2.924c-1.7-.759-3.4-1.3-5.207-1.734h-.318c-1.7-.324-3.507-.324-5.207.109 0 .108-.106.216-.106.325 1.7-.434 3.506-.434 5.206-.109h.319a22.39 22.39 0 015.207 1.625c1.912.867 3.718 1.842 5.418 2.816l.319.217c1.275.758 2.656 1.625 3.931 2.383 3.188 1.95 6.269 4.008 9.669 5.633 1.7.866 3.4 1.516 5.206 2.166 1.807.542 3.613.867 5.419.975h.213zm4.144 16.248c-1.7.65-3.294 1.408-4.782 2.491a55.589 55.589 0 00-8.181 7.69c-.956.975-1.806 1.95-2.869 2.817l-.106.108c-1.7 1.625-3.506 3.033-5.631 4.116-1.594.867-3.4 1.408-5.207 1.733h-.106a22.636 22.636 0 01-5.419 0 13.254 13.254 0 01-4.144-1.3l-.318-.216-.638-.325c-1.594-.975-3.081-2.058-4.462-3.358-2.338-2.166-4.463-4.549-6.907-6.716l-.212-.108c-.319-.325-.638-.542-1.063-.867a21.876 21.876 0 00-4.781-2.924l-.637-.217h-.107v.108l.744.325c1.7.759 3.294 1.734 4.675 2.925l.956.867.213.108c2.444 2.166 4.569 4.549 6.906 6.716 1.381 1.299 2.869 2.491 4.463 3.357l.425.217.318.217c1.382.758 2.869 1.191 4.463 1.408 1.806.217 3.719.217 5.525 0h.106a18.45 18.45 0 005.207-1.733c2.018-1.083 3.931-2.492 5.631-4.116l.106-.109 2.869-2.924c2.444-2.816 5.206-5.416 8.075-7.691 1.488-1.083 3.081-1.841 4.675-2.491.213 0 .213-.108.213-.108zm-10.626 22.313c-.956-1.625-1.806-3.249-2.762-4.874a81.05 81.05 0 00-2.338-4.116l-.106-.325c-1.062-1.842-2.125-3.575-3.4-5.2a25.367 25.367 0 00-3.187-3.574l-.213-.217-.425-.325c-1.487-1.191-3.081-2.166-4.887-2.708-1.807-.541-3.719-.649-5.525-.541a23.626 23.626 0 00-5.526.975c-.637.216-1.168.433-1.806.65-.106 0-.212.108-.319.108-2.762 1.191-5.312 2.816-7.65 4.549l-.212.109-.106.108a85.487 85.487 0 01-8.819 6.066h-.106v.216h.106l.106-.108c3.081-1.841 6.056-3.899 8.925-6.066l.106-.108.107-.108c2.443-1.842 5.1-3.358 7.862-4.658l.319-.108c.531-.217 1.062-.434 1.594-.542a23.78 23.78 0 015.419-.975c1.806-.108 3.718.109 5.418.542 1.807.541 3.4 1.408 4.888 2.599l.319.325c.106.109.212.109.212.217a25.374 25.374 0 013.188 3.574c1.275 1.625 2.337 3.358 3.4 5.2l.106.325c.744 1.3 1.594 2.708 2.337 4.116 1.488 2.708 2.975 5.524 4.675 8.124h.107c-.425-1.084-1.063-2.167-1.807-3.25zm-14.343-.541l-1.594-2.6c-.106-.108-.106-.217-.213-.325-.425-.65-.743-1.3-1.168-1.95-.85-1.3-1.594-2.708-2.444-4.008l-.213-.216c-1.062-1.733-2.337-3.466-3.612-5.091a19.805 19.805 0 00-4.038-3.9c-.744-.541-1.487-.974-2.231-1.408l-.319-.108c-.744-.325-1.594-.65-2.444-.867a15.88 15.88 0 00-5.525-.325c-1.806.109-3.718.542-5.418 1.192-.425.217-.957.325-1.382.542v.324h.107c.425-.216.85-.433 1.381-.541 1.7-.65 3.506-1.083 5.312-1.192 1.807-.216 3.719-.108 5.419.325.744.217 1.488.434 2.125.759l.319.108c.85.433 1.7.866 2.444 1.516a19.826 19.826 0 014.037 3.9c1.275 1.625 2.55 3.249 3.613 5.091 0 .108.106.216.212.216.85 1.3 1.7 2.6 2.444 4.008l1.169 1.95.212.325c1.382 2.166 2.763 4.441 4.25 6.499h.107c-.744-1.625-1.594-2.925-2.55-4.224zm24.862-22.531c-1.275-.65-2.55-1.083-3.931-1.299-1.806-.325-3.719-.434-5.525-.217-1.913.108-3.719.542-5.419 1.191-1.7.65-3.4 1.625-4.887 2.817-.957.758-1.807 1.516-2.657 2.274l-.106.109c-1.806 1.733-3.4 3.683-4.994 5.524-.85.975-1.806 2.058-2.762 2.924l-.106.109c-1.594 1.733-3.4 3.141-5.419 4.333l-.638.324-.319.109c-1.275.65-2.762 1.083-4.143 1.408-1.807.325-3.613.433-5.525.217-1.807-.217-3.613-.65-5.207-1.517a26.48 26.48 0 01-4.568-3.141c-.532-.433-.957-.867-1.488-1.3v.325l1.381 1.192c1.382 1.299 2.975 2.383 4.569 3.249a15.88 15.88 0 005.313 1.625c1.806.217 3.718.108 5.525-.217 1.593-.325 3.081-.866 4.462-1.516l.319-.109c.106-.108.319-.108.425-.216 2.019-1.192 3.825-2.6 5.419-4.333l.106-.108c.956-.975 1.913-2.058 2.763-3.033 1.7-1.95 3.293-3.791 4.993-5.524 0-.109.107-.109.107-.109l2.55-2.274c1.487-1.192 3.081-2.058 4.781-2.708 1.7-.65 3.506-1.083 5.312-1.192 1.807-.216 3.719-.108 5.526.217 1.381.216 2.762.65 4.037 1.3.106-.217.106-.325.106-.434z" fill="#fff"/><path d="M229.923 333.728c26.351 22.747 49.513 53.076 46.645 62.175-2.975 9.64-22.632 19.497-39.632 20.689-3.506.216-12.644-26.105-9.031-27.08 2.762-.758 15.512-3.574 17.106-5.307 1.063-1.192-17.425-27.513-22.95-42.461-5.525-15.49.85-14.082 7.862-8.016z" fill="#FFC4C0"/><path d="M235.131 389.187s-10.519.433-17.425 1.083c-3.825.325-10.413 1.517-13.069 3.141-4.038 2.383-19.55 14.84-16.681 18.739 2.656 3.575 7.118-1.516 7.118-1.516s-5.525 5.091-1.806 7.691c3.719 2.599 8.925-4.441 8.925-4.441s-6.162 4.982-2.019 7.474c3.613 2.166 10.626-5.416 10.626-5.416s-7.013 4.441-3.613 7.04c3.825 2.817 15.725-7.149 15.725-7.149 8.925 1.625 14.557 1.3 20.932-.108 1.275-.433-8.713-26.538-8.713-26.538z" fill="#FFC4C0"/><path d="M200.495 415.508l1.275-1.625c.85-1.083 1.7-2.058 2.763-3.033a35.533 35.533 0 012.975-2.707c1.062-.867 2.231-1.734 3.293-2.6.107-.108.213 0 .107.108-1.063.867-2.019 1.842-2.975 2.925l-2.869 2.924c-.956.975-1.913 1.842-2.869 2.817l-1.381 1.408c-.425.433-.85.975-1.275 1.3-.107 0-.107 0-.107-.109.319-.433.744-.975 1.063-1.408zm-6.481-3.899c1.488-2.058 3.081-4.008 4.888-5.849 1.806-1.842 3.719-3.358 5.844-4.766.106 0 .106 0 .106.108-1.806 1.841-3.613 3.574-5.419 5.416-.85.866-4.781 4.983-5.206 5.307-.213.109-.319-.108-.213-.216zm12.644 7.69a56.614 56.614 0 014.675-5.415c1.913-1.517 3.825-2.925 5.95-4.225.107 0 .213.108.107.108-1.913 1.517-3.719 3.033-5.526 4.766-.85.759-4.143 4.225-5.1 4.875 0 0-.106 0-.106-.109 0 .109 0 .109 0 0z" fill="#263238"/><path d="M231.839 364.49l24.969-6.607s-18.7-19.064-27.944-25.455c-9.562-6.715-13.6-4.982-7.543 9.424 6.056 14.406 10.518 22.638 10.518 22.638z" fill="#FE9563"/><path d="M234.387 336.545c-1.062-.65-2.018-1.3-3.081-1.842-1.594-.866-3.294-1.733-5.1-2.383-1.7-.65-3.612-1.083-5.419-1.191h-2.231v.216h2.231c1.807.109 3.613.542 5.419 1.192 1.7.65 3.4 1.408 5.1 2.275a41.874 41.874 0 013.719 2.166l-.638-.433zm-11.687-7.583c-1.063.65-2.019 1.3-2.869 2.167l-.212.216-.957.975-.106.109v.433c.106-.108.213-.217.213-.325.318-.433.743-.758 1.168-1.192.107-.108.107-.108.213-.108a27.334 27.334 0 012.762-2.166l-.212-.109zm29.644 24.264a17.984 17.984 0 01-6.588 6.715 22.093 22.093 0 01-3.187 1.625l1.487-.433c.638-.325 1.275-.65 1.913-1.083 1.594-.975 3.081-2.167 4.356-3.575.85-.975 1.594-2.058 2.338-3.141l-.319-.108zm-8.288-7.907c-.213.758-.532 1.516-.744 2.166-.956 3.683-2.338 7.149-3.931 10.615a19.765 19.765 0 01-3.294 4.55l-.213.216c.744 0 1.488 0 2.125-.108l-1.062.325h-1.275c-.213.217-.319.325-.531.433l-.638.217c.213-.217.531-.433.744-.65a31.615 31.615 0 01-4.463-.65c0-.108-.106-.108-.106-.217 1.488.434 3.081.65 4.569.759h.106c.213-.109.319-.325.425-.434 1.275-1.299 2.444-2.816 3.294-4.441 1.7-3.358 2.975-6.932 3.931-10.507.213-.758.531-1.624.744-2.383l.319.109z" fill="#fff"/><path d="M232.476 359.616c.531-.216 1.169-.433 1.806-.541l1.806-.542a48.25 48.25 0 003.719-1.083c2.444-.65 4.994-1.3 7.438-1.95l2.019-.541c.743-.109 1.487-.217 2.231-.434m0 .109c-.638.216-1.169.433-1.806.65l-1.807.65c-1.275.325-2.443.649-3.719.974-2.443.65-4.887 1.3-7.331 1.842l-2.019.541c-.743.217-1.487.434-2.125.542-.106 0-.106-.108 0-.108l18.807-5.091zm-28.263-5.742s0-.108 0 0c.743.758 1.381 1.517 1.912 2.383-.212-.433-.425-.866-.531-1.3-.638-1.408-1.169-2.816-1.806-4.116 0 0 0-.108.106 0 1.169 2.383 2.55 4.658 3.719 7.041 1.168 2.383 2.337 4.766 3.4 7.149.637 1.3 1.275 3.033 1.912 4.333.744-.109 1.7-.325 2.444-.434.106 0 .106.109 0 .109-.85.216-1.806.65-2.656.758-.107 0-4.25-8.449-6.057-12.457a34.33 34.33 0 01-2.443-3.466z" fill="#263238"/><path d="M207.081 339.577c3.612 1.083 10.094-4.224 12.856-8.665.213-.325-.106-3.683-.318-7.691a92.152 92.152 0 010-7.69c0-.542-15.726 2.924-15.726 2.924a37.969 37.969 0 01.957 9.749c0 .325-.107.65-.107.975v.216c-.531 1.842-1.168 9.099 2.338 10.182z" fill="#FFC4C0"/><path d="M218.663 315.423c-.956 4.224-4.144 14.298-12.325 14.081-.531 0-1.063-.108-1.594-.216v-.217c.106-.325.106-.65.213-.975.106-3.249-.319-6.499-.957-9.749-.106.109 11.263-2.491 14.663-2.924z" fill="#263238"/><path d="M221.639 296.9c1.382 5.633-2.231 21.664-6.268 25.13-5.951 4.982-15.194 4.982-19.232-2.167-3.931-6.932 1.169-27.729 5.738-30.762 6.587-4.549 17.637-.65 19.762 7.799z" fill="#AD6359"/><path d="M221.639 296.9c1.382 5.633-2.231 21.664-6.268 25.13-5.951 4.982-15.194 4.982-19.232-2.167-3.931-6.932 1.169-27.729 5.738-30.762 6.587-4.549 17.637-.65 19.762 7.799z" fill="#FFC4C0"/><path d="M205.382 306.216l.106.108c-.318 1.083-.425 2.383.425 2.925 0 0 0 .108 0 0-1.062-.434-.956-2.167-.531-3.033z" fill="#263238"/><path d="M206.656 305.241c1.7.217 1.062 3.791-.531 3.574-1.594-.216-.957-3.791.531-3.574zm-7.225-.109s-.106 0-.106.109c-.107 1.083-.532 2.274-1.594 2.491 1.169.108 1.7-1.625 1.7-2.6z" fill="#263238"/><path d="M198.689 303.724c-1.7-.433-2.444 3.033-.85 3.466 1.594.433 2.231-3.033.85-3.466zm9.988-1.192c-.425-.109-.85-.325-1.381-.542-.531-.108-.956-.433-1.275-.758-.212-.325-.106-.65.106-.867.532-.433 1.275-.433 1.913-.216.637.216 1.169.65 1.594 1.191.212.433.106.867-.319 1.083-.213.109-.425.109-.638.109zm-11.051-.649c.532 0 .957 0 1.488-.108.531 0 1.062-.109 1.487-.434.213-.216.319-.65.107-.866a1.745 1.745 0 00-1.7-.65c-.638 0-1.275.217-1.807.758-.318.325-.318.867 0 1.083 0 .217.213.217.425.217zm7.651 14.73c-.319.217-.638.542-.956.433-.425-.108-.744-.216-1.063-.541 0 0-.106 0 0 0 .213.541.744.866 1.275.866.531 0 .956-.325 1.063-.866-.107.108-.213.108-.319.108zm-.427-3.465c-.744.759-1.7 1.192-2.763 1.192-.425 0-.85-.109-1.275-.217l-.212-.108-.213-.109c-.106 0-.212-.108-.212-.324v-.217c.106-.867.425-2.058.425-2.058-.319.108-2.019.541-1.913.108a48.636 48.636 0 013.506-10.94c0-.108.213 0 .213.108-.744 3.467-2.019 6.824-2.763 10.291.638-.109 1.169-.217 1.807-.217.106.108-.638 2.383-.638 2.816 1.381.433 2.763.217 4.038-.433 0 0 .106.108 0 .108z" fill="#263238"/><path d="M201.346 313.797c.319.65.85 1.3 1.488 1.733.319.217.744.325 1.169.325.956-.108 1.062-.866 1.062-1.624 0-.325-.106-.759-.212-1.084a5.027 5.027 0 01-3.507.65z" fill="#263238"/><path d="M202.831 315.531c.319.216.744.325 1.169.325.956-.109 1.063-.867 1.063-1.625-.957-.108-1.913.433-2.232 1.3z" fill="#FF97B8"/><path opacity=".2" d="M221.002 308.707c-.956-.434-2.656-4.658-3.4-6.283-.744-1.624.425-9.532.744-11.265 1.593 1.517 2.762 3.466 3.293 5.633.638 2.491.319 7.257-.637 11.915z" fill="#263238"/><path d="M204 294.3c.956 1.733 2.656 2.816 4.568 2.925 1.913.108 3.825-.867 4.888-2.492m.106 0c-1.062 1.842-2.975 2.925-4.994 2.925-2.018-.217-3.825-1.408-4.675-3.358 0-.108.107-.108.107-.108l9.562.541zm-1.168-12.889c2.869.65 5.313 2.708 6.375 5.524.425 1.408.319 2.816-.212 4.116h-.107c.638-2.491-.106-5.091-1.912-6.824-1.913-1.95-4.675-2.925-7.438-2.491-1.275.108-2.55.758-3.4 1.733-.106.108-.319 0-.212-.109 1.168-1.841 4.037-2.708 6.906-1.949zm-19.656 3.032c.85-1.516 2.125-2.599 3.719-3.141 2.231-.866 4.356-.217 6.481.542.106 0 0 .108 0 .108-1.806-.758-3.719-.867-5.525-.542-1.594.434-2.869 1.409-3.825 2.708-1.913 2.817-1.488 6.716 1.062 8.991 1.488 1.3 3.294 1.841 5.207 1.625.106 0 .106.108 0 .108-3.825.541-7.332-2.167-7.863-5.958-.319-1.516 0-3.033.744-4.441z" fill="#263238"/><path d="M222.064 300.15s4.144-5.091 2.337-8.991c-1.062-2.166-5.737-2.924-5.737-2.924a8.499 8.499 0 00-4.675-4.766c-3.719-1.733-8.925-.325-8.925-.325s-3.294-2.925-7.225-1.625c-5.419 1.841-6.269 9.532-1.913 12.998 3.081 2.383 8.394.217 8.394.217.425.108 4.462 3.899 8.819.433 0 0 2.337 3.141 5.206 1.842.531 1.841 2.019 3.032 3.719 3.141z" fill="#263238"/><path d="M217.708 309.898s3.931-4.983 6.162-3.466c2.231 1.516-.956 8.882-3.719 9.748-1.381.542-3.081-.216-3.612-1.624v-.109l1.169-4.549z" fill="#FFC4C0"/><path d="M222.807 308.49c-2.019.65-3.081 2.383-3.931 4.225.531-.759 1.487-.867 2.125-.325.106 0 .106.108.212.108 0 0 0 .108-.106.108-.637-.325-1.487-.108-1.912.434a4.556 4.556 0 00-.957 1.516c-.106.217-.425 0-.318-.108.106-2.6 2.231-5.958 4.887-5.958zm-1.061 23.613a72.676 72.676 0 01-5.525 5.957c-1.807 1.842-4.144 3.142-6.694 3.467-2.444.216-4.888-.325-5.738-3.358-.637-2.6-.637-5.416-.106-8.016 0 0 0-.108-.106-.108 0 0-.106 0-.106.108v.109c-.638 4.007-1.276 10.181 2.337 11.59 4.038 1.624 7.863-.434 10.731-3.25 2.019-1.95 3.719-4.116 5.207-6.499 0-.108 0 .108 0 0z" fill="#263238"/></svg>