<svg width="57" height="57" fill="none" xmlns="http://www.w3.org/2000/svg"><g clip-path="url(#clip0_19_593)"><rect x="3.064" y="3.064" width="49.873" height="49.873" rx="8.906" fill="#FE9563"/><path d="M28 12.415c-9.838 0-17.812 6.477-17.812 14.472 0 3.45 1.49 6.61 3.966 9.093-.87 3.507-3.778 6.631-3.813 6.666a.553.553 0 00-.104.605c.09.209.285.334.508.334 4.613 0 8.07-2.212 9.783-3.576A21.22 21.22 0 0028 41.359c9.838 0 17.812-6.478 17.812-14.472 0-7.995-7.974-14.472-17.812-14.472zm2.226 18.368c0 .306-.25.557-.556.557H19.65a.558.558 0 01-.556-.557V29.67c0-.306.25-.557.557-.557H29.67c.306 0 .556.25.556.557v1.113zm6.68-6.68c0 .307-.25.557-.557.557H19.651a.558.558 0 01-.557-.556V22.99c0-.306.25-.556.557-.556h16.698c.306 0 .557.25.557.556v1.114z" fill="#FAFBFC"/></g><defs><clipPath id="clip0_19_593"><path fill="#fff" d="M0 0h56.997v56.997H0z"/></clipPath></defs></svg>