<svg width="511" height="542" fill="none" xmlns="http://www.w3.org/2000/svg"><path d="M62.163 379.44l-15.394.353-7.873.117c-2.586 0-5.288 0-7.874.118h-.47v-.47l-.117-13.161v-.588h.587l15.512.118c5.17 0 10.34.117 15.511.235h.352v.352c0 2.233-.117 4.466-.117 6.698l-.117 6.228zm0 0l-.118-6.698c0-2.232-.118-4.348-.118-6.463l.353.353c-5.17.117-10.34.235-15.511.235l-15.512.117.588-.587-.118 13.161-.47-.47c2.585 0 5.17 0 7.638.117l7.756.118 15.511.117zm-17.392 16.57l-15.394.352-7.873.118c-2.585 0-5.288 0-7.873.117h-.47v-.47l-.118-13.161v-.588h.588l15.511.118c5.17 0 10.341.117 15.512.235h.352v.352c0 2.233-.117 4.466-.117 6.699l-.118 6.228zm0 0l-.117-6.698c0-2.233-.118-4.348-.118-6.464l.353.353c-5.17.118-10.341.235-15.512.235l-15.511.118.588-.588-.236 13.044-.47-.47c2.586 0 5.17 0 7.639.117l7.755.118 15.63.235zm34.783-13.162h-31.14v13.161h31.14v-13.161z" fill="#EBEBEB"/><path d="M433.378 193.892l-15.393.353-7.874.117c-2.585 0-5.288 0-7.873.118h-.47v-.47l-.117-13.161v-.588h.587l15.511.118c5.171 0 10.341.117 15.512.235h.352v.352c0 2.233-.117 4.465-.117 6.698l-.118 6.228zm0 0l-.117-6.698c0-2.233-.118-4.348-.118-6.463l.353.353c-5.171.117-10.341.235-15.511.235l-15.512.117.588-.587-.118 13.161-.47-.47c2.585 0 5.171 0 7.638.117l7.756.118 15.511.117zm-17.391 16.568l-15.394.353-7.873.117c-2.586 0-5.288 0-7.874.118h-.47v-.47l-.117-13.161v-.588h.587l15.512.118c5.17 0 10.341.117 15.511.235h.353v.352c0 2.233-.118 4.466-.118 6.698l-.117 6.228zm0 0l-.118-6.698c0-2.233-.118-4.348-.118-6.463l.353.353c-5.17.117-10.341.235-15.511.235l-15.512.117.588-.587-.118 13.161-.47-.47c2.586 0 5.171 0 7.639.117l7.755.118 15.512.117zm34.781-13.043h-31.14v13.161h31.14v-13.161z" fill="#FE9563"/><path d="M480.616 382.848h-31.14v13.161h31.14v-13.161z" fill="#EBEBEB"/><path d="M480.616 52.41h-31.14v13.16h31.14V52.41z" fill="#FE9563"/><path d="M498.008 82.14l-15.393.353-7.874.117c-2.585 0-5.288 0-7.873.118h-.47v-.47l-.117-13.162v-.587h.587l15.512.117c5.17 0 10.34.118 15.511.235h.352v.353c0 2.233-.117 4.465-.117 6.698l-.118 6.228zm0 0l-.117-6.698c0-2.233-.118-4.348-.118-6.463l.353.352c-5.171.118-10.341.235-15.511.235l-15.512.118.588-.588-.118 13.161-.47-.47c2.585 0 5.171 0 7.638.118l7.756.117 15.511.118zM44.77 65.57l-15.393.353-7.873.118c-2.585 0-5.288 0-7.873.117h-.47v-.47l-.118-13.161v-.587h.588l15.511.117c5.17 0 10.341.117 15.511.235h.353v.352c0 2.233-.118 4.466-.118 6.699l-.117 6.228zm0 0l-.117-6.697c0-2.233-.117-4.348-.117-6.463l.352.352c-5.17.117-10.34.235-15.51.235l-15.512.118.587-.588-.117 13.161-.47-.47c2.585 0 5.17 0 7.638.118l7.756.117 15.51.118zm13.028 234.288h31.14v-13.161h-31.14v13.161zm17.408-29.82l15.394-.352 7.873-.118c2.585 0 5.288 0 7.873-.117h.47v.47l.118 13.279v.587h-.588l-15.511-.117c-5.17 0-10.34-.118-15.511-.235h-.353v-.353c0-2.233.118-4.465.118-6.698l.117-6.346zm0 0l.118 6.699c0 2.232.117 4.347.117 6.463l-.352-.353c5.17-.117 10.34-.235 15.511-.235l15.511-.117-.352.705.117-13.162.47.471c-2.585 0-5.17 0-7.638-.118l-7.755-.118-15.747-.235z" fill="#EBEBEB"/><path d="M506.116 512.155H305.761l-4.113-82.258h208.698l-4.23 82.258z" fill="#999"/><path d="M313.516 439.063h87.193l-1.528 28.555h-83.785l-1.88-28.555zm86.018.94h-85.078l1.646 26.557h81.904l1.528-26.557zm-84.256 34.665h81.787l-1.292 25.735h-78.967l-1.528-25.735zm80.73.94h-79.672l1.528 23.737h76.969l1.175-23.737z" fill="#DBDBDB"/><path d="M348.181 449.522h15.864l-.94 6.933h-14.101l-.823-6.933zm14.807.94h-13.514l.587 4.818H362.4l.588-4.818zm-14.807 33.607h15.864l-.94 6.933h-14.101l-.823-6.933zm14.807 1.058h-13.514l.587 4.818H362.4l.588-4.818zm49.003-46.064h87.192l-1.527 28.555h-83.785l-1.88-28.555zm86.135.94h-85.078l1.646 26.557h81.904l1.528-26.557zm-84.372 34.665h81.787l-1.293 25.735h-78.967l-1.527-25.735zm80.847.94h-79.79l1.528 23.737h76.969l1.293-23.737z" fill="#DBDBDB"/><path d="M446.773 449.521h15.864l-.94 6.933h-14.101l-.823-6.933zm14.689.94h-13.514l.588 4.818h12.339l.587-4.818zm-14.689 33.608h15.864l-.94 6.933h-14.101l-.823-6.933zm14.689 1.058h-13.514l.588 4.818h12.339l.587-4.818z" fill="#DBDBDB"/><path d="M488.254 512.154l1.175 8.931 2.585 17.979h4.935v-26.91h-8.695z" fill="#999"/><path d="M488.254 512.154l1.175 8.931h7.52v-8.931h-8.695z" fill="#868484"/><path d="M323.741 512.154l-1.175 8.931-2.585 17.979h-4.936v-26.91h8.696z" fill="#999"/><path d="M323.741 512.154l-1.175 8.931h-7.521v-8.931h8.696z" fill="#868484"/><path d="M451.325 429.946v-60.635h-15.277v60.635h15.277z" fill="#C7C7C7"/><path d="M451.306 372.701v-6.698h-15.277v6.698h15.277zm.057 10.986v-2.467h-15.277v2.467h15.277zm-.05 38.259v-6.698h-15.276v6.698h15.276zm-15.299 7.93v-70.741h-10.693v70.741h10.693z" fill="#DBDBDB"/><path d="M433.996 392.981v-27.145h-6.346v27.145h6.346z" fill="#EBEBEB"/><path d="M356.891 429.845l50.311-49.731-7.517-7.605-50.311 49.731 7.517 7.605z" fill="#C7C7C7"/><path d="M367.187 416.593l19.305-19.083-4.46-4.513-19.306 19.083 4.461 4.513z" fill="#DBDBDB"/><path d="M425.44 429.858v-53.702h-18.096v53.702h18.096z" fill="#A6A6A6"/><path d="M425.414 424.308v-5.053h-18.096v5.053h18.096zm-.06-8.286v-1.997h-18.097v1.997h18.097z" fill="#C7C7C7"/><path d="M482.638 425.099l-19.934-46.432-11.446 4.914 19.934 46.432 11.446-4.914z" fill="#A6A6A6"/><path d="M480.497 420.058l-1.854-4.319-11.446 4.914 1.854 4.319 11.446-4.914zm-11.776-27.511l-1.854-4.319-11.446 4.913 1.854 4.32 11.446-4.914zm1.991 4.703l-.742-1.728-11.446 4.914.742 1.728 11.446-4.914z" fill="#C7C7C7"/><path d="M467.22 89.543V0" stroke="#FE9563" stroke-width="1.175" stroke-miterlimit="10"/><path d="M424.212 131.141l3.408 7.638h79.32l3.407-7.638-33.725-23.384h-18.684l-33.726 23.384z" fill="#FE9563"/><path d="M455.588 85.312l2.35 22.445h18.684l2.35-22.445h-23.384z" fill="#FE9563"/><path d="M424.212 131.141l3.408 7.638h79.32l3.407-7.638h-86.135z" fill="#FFC7AC"/><path d="M374.741 64.983V0" stroke="#FE9563" stroke-width="1.175" stroke-miterlimit="10"/><path d="M331.615 106.582l3.525 7.638h79.202l3.525-7.638-33.843-23.385H365.34l-33.725 23.385z" fill="#FE9563"/><path d="M362.99 60.635l2.35 22.562h18.684l2.35-22.562H362.99z" fill="#FE9563"/><path d="M331.615 106.582l3.525 7.638h79.202l3.525-7.638h-86.252z" fill="#FFC7AC"/><path d="M33.959 114.339l72.033-12.574-10.458-49.472L23.5 64.867l10.459 49.472z" fill="#FE9563"/><path d="M68.977 51.588l25.5-4.465 1.057 5.17-26.91 4.7.353-5.405z" fill="#FE9563"/><path d="M34.077 114.222l71.916-12.456-4.7-46.182L29.259 68.04l4.818 46.182z" fill="#FFC7AC"/><path d="M75.323 55.232l25.382-4.466.588 4.818-26.91 4.583.94-4.935z" fill="#FFC7AC"/><path d="M64.862 163.691l89.191 5.523 1.645-61.81-89.19-5.523-1.646 61.81z" fill="#FE9563"/><path d="M124.323 99.06l31.493 1.998-.118 6.346-33.373-1.998 1.998-6.345z" fill="#FE9563"/><path d="M64.982 163.692l89.19 5.523 7.403-56.287-89.19-5.523-7.403 56.287z" fill="#FFC7AC"/><path d="M130.788 105.172l31.61 1.881-.823 5.875-33.373-1.998 2.586-5.758z" fill="#FFC7AC"/><path d="M423.508 273.798v-24.442l25.03 12.221-25.03 12.221zm72.151-6.228v-11.986l12.221 5.993-12.221 5.993z" fill="#FE9563"/><path d="M485.906 267.57v-11.986l12.221 5.993-12.221 5.993z" fill="#FE9563"/><path d="M376.387 255.584v11.986l-12.221-5.993 12.221-5.993z" fill="#EBEBEB"/><path d="M386.14 255.584v11.986l-12.221-5.993 12.221-5.993z" fill="#FE9563"/><path d="M364.283 251.471h-2.468V271.8h2.468v-20.329z" fill="#EBEBEB"/><path d="M510.347 251.471h-2.467V271.8h2.467v-20.329zm-50.998 207.335c.47-11.869.235-23.737-.47-35.488-1.645-24.325-5.641-48.532-11.164-72.386-3.055-13.396-6.933-26.558-10.928-39.719-.118-.352-.705-.235-.588.118 12.339 46.299 22.445 94.125 21.74 142.305-.235 13.513-1.763 26.674-3.056 40.07 0 .353.588.471.588.118 2.468-11.281 3.408-23.267 3.878-35.018z" fill="#FE9563"/><path d="M436.199 311.448s-18.684 47.357-14.454 58.403c4.231 11.163 12.809 13.514 12.809 13.514s-11.398 16.334-3.408 31.61c7.991 15.276 25.735 14.571 26.91 31.845-.235 0 .823-72.386-21.857-135.372z" fill="#FE9563"/><path d="M455.823 416.973v-.235c-2.585-32.198-8.343-64.278-18.097-95.183 0-.118-.235-.118-.117 0 3.643 13.866 6.933 27.732 9.753 41.716-2.467-2.468-5.64-3.878-8.93-4.936-.118 0-.118.118 0 .118 3.407 1.527 6.698 3.173 9.165 6.11.588 2.703 1.058 5.523 1.528 8.226-4.113-4.7-9.988-6.933-15.746-9.166-.118 0-.118.118 0 .118 5.993 2.468 11.986 5.64 16.098 10.811 1.411 7.873 2.703 15.746 3.761 23.619-3.055-3.173-6.816-5.288-11.164-6.345-.117 0-.235.117-.117.235 4.465 1.292 8.226 3.76 11.281 7.168h.117c.353 2.82.705 5.523 1.058 8.343-2.35-1.998-4.936-3.525-7.756-4.7-.117 0-.117.117 0 .117a27.122 27.122 0 017.756 5.171h.117c.353 2.702.588 5.288.94 7.99-4.23-5.17-9.518-8.93-15.863-11.281-.118 0-.235.118-.118.235 6.111 2.586 11.399 6.816 15.629 11.986.117.118.235.118.352.118.353 4.113.706 8.108 1.058 12.221 0 0 .118.117.118 0-.118-4.113-.47-8.343-.823-12.456z" fill="#263238"/><path d="M440.9 353.635c-3.29-2.233-7.285-3.173-11.163-3.526-.117 0-.117.118 0 .118 3.995.587 7.403 1.998 11.046 3.643.117.117.235-.118.117-.235zm2.231 50.059c-2.585-1.528-5.523-2.35-8.46-2.82-.118 0-.118.117 0 .117 2.937.588 5.64 1.645 8.343 2.938.117 0 .235-.118.117-.235z" fill="#263238"/><path d="M508.35 370.673c-7.755 5.523-15.276 11.751-21.622 18.92-6.815 7.52-11.633 16.098-15.158 25.617-7.051 19.506-10.929 40.658-11.281 61.34-.235 11.634.822 23.15 3.29 34.548.117.47.705.353.587-.118-3.055-19.976-2.937-40.423.353-60.282 3.173-19.624 8.226-40.894 20.682-56.758 6.815-8.695 15.276-15.511 23.619-22.561.47-.471-.117-1.058-.47-.706z" fill="#FE9563"/><path d="M463.109 462.449s6.345-10.811 15.746-20.095c9.283-9.283 17.157-15.981 18.449-22.092 1.175-6.11-9.401-10.693-9.401-10.693s12.926 2.35 16.452-3.055c3.525-5.406 5.288-36.781 5.288-36.781s-23.502 16.804-34.431 40.306c-11.046 23.385-12.103 52.41-12.103 52.41z" fill="#FE9563"/><path d="M501.417 377.724c-9.871 9.753-19.859 20.094-25.617 32.785-1.998 4.348-3.643 8.931-5.171 13.514-.352.94-.587 1.88-.94 2.82v.117c-2.82 9.519-4.935 19.389-6.698 29.025 0 .118.117.118.117 0 1.058-4.935 2.116-9.871 3.408-14.806h.118c1.997-.823 3.995-1.41 6.11-1.528.118 0 .118-.235 0-.235-2.115.118-4.113.47-6.11 1.058 1.175-4.465 2.35-8.931 3.76-13.279 4.583-1.057 9.283-1.762 13.984-1.762v-.118c-4.701-.235-9.166.235-13.749 1.175.235-.705.47-1.527.705-2.232 3.055-.706 6.111-1.293 9.283-1.528v-.118c-3.055.118-6.11.353-9.048 1.058a181.664 181.664 0 014.231-11.163c1.292-3.056 2.82-5.876 4.465-8.579 2.468-.587 4.935-1.057 7.521-1.292.117 0 .117-.118 0-.118-2.351-.117-4.818 0-7.051.705 1.293-1.997 2.585-3.995 3.878-5.875 5.288-1.175 10.576-2.233 15.981-1.293.118 0 .118-.117 0-.117-5.17-1.293-10.223-.588-15.276.47a27.228 27.228 0 001.645-2.233c3.29-1.058 6.463-1.528 9.871-1.528.117 0 .117-.117 0-.117-3.055-.353-6.228 0-9.166.822 4.348-5.405 9.166-10.458 13.866-15.511.235-.235.118-.352-.117-.117z" fill="#263238"/><path d="M501.182 399.111c-1.528-.118-3.173-.353-4.7-.118-.235 0-.118.353 0 .353 1.527 0 3.055-.118 4.582 0 .118-.118.235-.235.118-.235zm-16.921 30.435c-2.468 0-4.936.587-7.286 1.41v.117c2.35-.587 4.818-.822 7.168-1.175.353 0 .353-.352.118-.352zm-5.053-10.576c-1.058 0-2.115.117-3.055.235-.118 0-.118.235 0 .235.94 0 2.115 0 3.055-.118.117 0 .117-.352 0-.352z" fill="#263238"/><path d="M394.248 403.929c7.52 2.585 15.041 5.993 21.857 10.223 7.168 4.583 13.161 10.341 18.214 17.274 10.223 14.102 18.214 30.318 23.267 47.122 2.82 9.401 4.7 18.919 5.288 28.672 0 .353-.47.353-.588 0-2.115-16.921-6.933-33.372-14.219-48.766-7.168-15.159-16.099-31.14-29.847-41.129-7.521-5.405-15.864-9.048-24.325-12.808-.352-.118-.117-.705.353-.588z" fill="#FE9563"/><path d="M452.063 467.854s-7.638-7.286-17.392-12.691c-9.753-5.406-17.626-8.931-19.977-13.631-2.35-4.701 5.053-10.811 5.053-10.811s-9.87 4.818-13.983 1.292c-4.113-3.525-12.691-28.555-12.691-28.555s22.914 8.109 37.133 24.678c14.219 16.451 21.857 39.718 21.857 39.718z" fill="#FE9563"/><path d="M450.888 462.684c-11.398-21.504-26.675-40.893-47.592-53.702 5.523 3.525 10.576 7.521 15.277 11.986-4.231-.117-8.578.588-12.339 2.585-.117 0 0 .118.118.118 4.23-1.41 8.225-2.35 12.691-2.115h.117c.705.705 1.528 1.41 2.233 2.115-2.233.117-4.465.352-6.581.822v.118c2.351-.47 4.583-.588 6.934-.588 3.877 3.878 7.403 7.991 10.81 12.221-1.527-.235-3.172-.117-4.582.353-.118 0-.118.235 0 .118 1.645-.235 3.29-.235 4.935-.118.588.823 1.293 1.645 1.88 2.35-4.7-.235-9.283.118-13.866 1.293-.118 0 0 .117 0 .117 4.7-.94 9.518-1.175 14.219-.94.587.823 1.175 1.528 1.762 2.35-2.82-.117-5.523.235-8.225.941-.118 0-.118.235 0 .117a34.8 34.8 0 018.578-.705c2.468 3.408 4.818 6.816 7.05 10.341-1.175-.235-2.467-.118-3.642.235-.118 0 0 .117 0 .117 1.292-.117 2.585 0 3.877.235 1.998 3.173 3.996 6.346 5.876 9.636.117.47.588.235.47 0z" fill="#263238"/><path d="M433.027 444.822c-2.233-.235-4.466.118-6.699.823-.117 0 0 .117 0 .117a62.803 62.803 0 016.581-.705c.353 0 .353-.235.118-.235zm-19.86-26.204c-1.058-.118-2.116 0-3.056.235-.117 0-.117.235 0 .235 1.058-.118 1.998-.118 3.056-.118.117 0 .117-.235 0-.352z" fill="#263238"/><path d="M481.558 538.83h-51.587l7.286-53.937 1.88-13.866h33.138l1.998 13.866 7.285 53.937z" fill="#455A64"/><path d="M474.272 484.893h-37.015l1.88-13.866h33.138l1.997 13.866z" fill="#263238"/><path d="M477.093 466.209h-42.656v11.751h42.656v-11.751z" fill="#455A64"/><path d="M352.412 73.443H159.225c-10.811 0-19.507 8.931-19.507 19.86v397.889c0 10.928 8.814 19.859 19.507 19.859h193.187c10.811 0 19.624-8.931 19.624-19.859V93.302c0-10.928-8.813-19.859-19.624-19.859zm7.403 405.41c0 10.458-7.873 18.919-17.509 18.919H169.448c-9.635 0-17.509-8.461-17.509-18.919V108.461c0-21.386 7.874-22.326 17.509-22.326h34.666c1.998 0 3.643 2.232 3.643 5.17v1.175c0 6.698 3.643 6.698 8.108 6.698h80.142c4.465 0 8.108 0 8.108-6.698v-1.175c0-2.82 1.645-5.17 3.643-5.17h34.665c9.636 0 17.509 2.82 17.509 22.326v370.392h-.117z" fill="#37474F"/><path d="M266.747 90.835H244.89a1.304 1.304 0 01-1.293-1.293c0-.705.588-1.293 1.293-1.293h21.857c.705 0 1.293.588 1.293 1.293 0 .588-.588 1.293-1.293 1.293z" fill="#263238"/><path d="M359.813 108.462v370.391c0 10.459-7.873 18.919-17.509 18.919H169.446c-9.635 0-17.508-8.46-17.508-18.919V108.462c0-21.387 7.873-22.327 17.508-22.327h34.666c1.998 0 3.643 2.232 3.643 5.17v1.175c0 6.698 3.643 6.698 8.108 6.698h80.142c4.465 0 8.108 0 8.108-6.698v-1.175c0-2.82 1.645-5.17 3.643-5.17h34.665c9.519-.118 17.392 2.82 17.392 22.327z" fill="#fff"/><path d="M359.813 108.462v46.299H151.821v-46.299c0-21.387 7.873-22.327 17.509-22.327h34.665c1.998 0 3.643 2.233 3.643 5.17v1.175c0 6.698 3.643 6.698 8.108 6.698h80.142c4.465 0 8.108 0 8.108-6.698v-1.175c0-2.82 1.645-5.17 3.643-5.17h34.665c9.636-.118 17.509 2.82 17.509 22.327z" fill="#FE9563"/><path d="M172.856 134.314l-6.111-5.758 6.111-5.758 1.057 1.057-5.17 4.701 5.17 4.818-1.057.94zm170.859-9.284c0 .705-.587 1.175-1.175 1.175-.588 0-1.175-.587-1.175-1.175 0-.587.587-1.175 1.175-1.175.588 0 1.175.47 1.175 1.175zm0 4.231c0 .705-.588 1.175-1.175 1.175-.588 0-1.175-.588-1.175-1.175 0-.706.587-1.176 1.175-1.176.587 0 1.175.588 1.175 1.176zm0 4.347c0 .705-.588 1.175-1.175 1.175-.588 0-1.175-.587-1.175-1.175 0-.705.587-1.175 1.175-1.175.587 0 1.175.47 1.175 1.175zM198.003 94.36l-.353.353-.235.235c-.94-.823-1.998-1.293-3.173-1.293-1.292 0-2.35.47-3.172 1.293l-.235-.235-.353-.353c.118-.117.235-.235.47-.352.353-.235.588-.47.94-.588.47-.235.823-.352 1.293-.47.235 0 .47-.117.705-.117h1.057c.353 0 .823.117 1.176.235.235.117.587.235.822.352.235.118.588.353.823.588 0 .117.117.235.235.352z" fill="#fff"/><path d="M192.127 96.006c-.235-.118-.352-.353-.587-.47a3.642 3.642 0 012.115-1.058c1.292-.117 2.35.235 3.29 1.058-.235.235-.352.352-.588.47-.587-.588-1.292-.94-2.115-.94-.822 0-1.527.352-2.115.94z" fill="#fff"/><path d="M195.887 96.476l-.47.47c-.353-.353-.705-.47-1.058-.47-.47 0-.822.117-1.057.47l-.47-.47c.705-.823 2.115-.94 3.055 0zm-1.176 1.058c0 .234-.235.47-.47.47a.506.506 0 01-.47-.47c0-.236.235-.47.47-.47.353 0 .47.117.47.47zm-29.257-2.116c0-.705.587-1.41 1.41-1.41.705 0 1.41.588 1.41 1.41 0 .823-.588 1.41-1.41 1.41-.823 0-1.41-.705-1.41-1.41zm4.348 0c0-.705.587-1.41 1.41-1.41.705 0 1.41.588 1.41 1.41 0 .823-.588 1.41-1.41 1.41-.823 0-1.41-.705-1.41-1.41zm4.348 0c0-.705.587-1.41 1.41-1.41.705 0 1.41.588 1.41 1.41 0 .823-.587 1.41-1.41 1.41s-1.41-.705-1.41-1.41zm4.23 0c0-.705.588-1.41 1.41-1.41.705 0 1.41.588 1.41 1.41 0 .823-.587 1.41-1.41 1.41-.705 0-1.41-.705-1.41-1.41zm4.348 0c0-.705.588-1.41 1.41-1.41.705 0 1.411.588 1.411 1.41 0 .823-.588 1.41-1.411 1.41-.705 0-1.41-.705-1.41-1.41zm161.457 2.937h-11.281v-5.17h11.281v5.17zm-10.693-.587h10.106v-3.996h-10.106v3.996z" fill="#fff"/><path d="M341.13 94.124h-7.286v3.408h7.286v-3.407zm3.995.236h-.94v2.82h.94v-2.82z" fill="#fff"/><path d="M183.432 475.21h-1.527v7.168h-2.938v-3.642h-5.288v3.642h-2.938v-7.168h-1.645l7.168-7.403 7.168 7.403zm159.109-7.403h-17.274v2.468h17.274v-2.468zm0 6.11h-17.274v2.468h17.274v-2.468zm0 5.993h-17.274v2.468h17.274v-2.468zm-81.788-5.757l-4.935 5.171-4.936-5.171.94-.822 3.996 4.347 3.995-4.347.94.822z" fill="#EBEBEB"/><path d="M255.818 484.729a8.927 8.927 0 01-8.93-8.931 8.927 8.927 0 018.93-8.931 8.927 8.927 0 018.931 8.931 8.927 8.927 0 01-8.931 8.931zm0-16.569c-4.23 0-7.755 3.408-7.755 7.755 0 4.231 3.407 7.756 7.755 7.756 4.231 0 7.756-3.408 7.756-7.756 0-4.347-3.525-7.755-7.756-7.755z" fill="#EBEBEB"/><path d="M338.193 354.998v2.35h-2.35" stroke="#FE9563" stroke-width="1.175" stroke-miterlimit="10"/><path d="M331.26 357.348H178.027" stroke="#FE9563" stroke-width="1.175" stroke-miterlimit="10" stroke-dasharray="4.58 4.58"/><path d="M175.794 357.348h-2.35v-2.35" stroke="#FE9563" stroke-width="1.175" stroke-miterlimit="10"/><path d="M173.444 350.415V231.142" stroke="#FE9563" stroke-width="1.175" stroke-miterlimit="10" stroke-dasharray="4.68 4.68"/><path d="M173.444 228.792v-2.35h2.35" stroke="#FFC727" stroke-width="1.175" stroke-miterlimit="10"/><path d="M180.377 226.442H333.61" stroke="#FE9563" stroke-width="1.175" stroke-miterlimit="10" stroke-dasharray="4.58 4.58"/><path d="M335.843 226.442h2.35v2.35" stroke="#FFC727" stroke-width="1.175" stroke-miterlimit="10"/><path d="M338.193 233.493v119.272" stroke="#FE9563" stroke-width="1.175" stroke-miterlimit="10" stroke-dasharray="4.68 4.68"/><path d="M194.479 308.699c0 8.343 6.463 15.159 14.688 15.747h89.543c10.224 0 18.567-8.344 18.567-18.567 0-9.636-7.403-17.627-16.804-18.449-.588-16.804-14.336-30.318-31.258-30.318-13.514 0-25.03 8.579-29.377 20.447-2.468-1.293-5.288-1.998-8.344-1.998-9.87 0-17.979 7.756-18.566 17.392-.823-.118-1.645-.235-2.585-.235-8.814.117-15.864 7.285-15.864 15.981z" fill="#FE9563"/><path d="M263.928 303.881h-16.217v20.565h16.217v-20.565zm-21.74 0h27.262l-13.631-13.631-13.631 13.631zm-24.444-170.977a3.284 3.284 0 01-3.29-3.29v-3.995c0-.353.235-.588.587-.588.353 0 .588.235.588.588v3.995c0 1.058.94 1.998 1.997 1.998 1.175 0 1.998-.94 1.998-1.998v-3.995c0-.353.235-.588.588-.588.352 0 .587.235.587.588v3.995c.235 1.763-1.175 3.29-3.055 3.29zm8.579-3.055h-1.41v2.468c0 .352-.235.587-.588.587-.352 0-.587-.235-.587-.587v-6.698c0-.353.235-.588.587-.588h1.998c1.292 0 2.467 1.058 2.467 2.468 0 1.175-1.175 2.35-2.467 2.35zm-1.41-1.292h1.41c.705 0 1.175-.47 1.175-1.176 0-.705-.47-1.175-1.175-1.175h-1.41v2.351zm5.404 3.642v-6.698c0-.353.235-.588.588-.588s.588.235.588.588v5.993h3.055c.352 0 .587.235.587.587 0 .353-.235.588-.587.588h-3.643c-.353.235-.588-.118-.588-.47zm12.103-6.228a4.102 4.102 0 011.175 2.82c0 1.175-.47 2.115-1.175 2.82-.705.705-1.645 1.175-2.703 1.175-1.057 0-2.115-.47-2.82-1.175a4.102 4.102 0 01-1.175-2.82c0-1.175.47-2.115 1.175-2.82.705-.705 1.645-1.175 2.82-1.175 1.058 0 1.998.47 2.703 1.175zm-.117 2.82c0-.823-.353-1.528-.823-1.998s-1.058-.822-1.763-.822c-.705 0-1.41.235-1.88.822a2.835 2.835 0 00-.822 1.998c0 .823.235 1.528.822 1.998.47.47 1.058.822 1.88.822.705 0 1.293-.352 1.763-.822s.823-1.175.823-1.998zm7.051 2.233h-2.703l-.587 1.41a.648.648 0 01-.588.353h-.235c-.353-.118-.47-.471-.353-.823l2.468-6.698a.648.648 0 01.588-.353c.235 0 .47.118.587.353l2.468 6.698c.118.352 0 .705-.353.823h-.235a.645.645 0 01-.587-.353l-.47-1.41zm-.47-1.293l-.94-2.467-.94 2.467h1.88zm3.761 2.468v-6.698c0-.353.235-.588.587-.588h1.293a3.963 3.963 0 013.995 3.996 3.963 3.963 0 01-3.995 3.995h-1.293c-.352 0-.587-.353-.587-.705zm1.292-.588h.705c1.528 0 2.703-1.175 2.703-2.702 0-1.528-1.175-2.703-2.703-2.703h-.705v5.405zm12.809 1.176s-.117 0 0 0c-.117-.118-.117-.118 0 0l-.117-.118v-.117l-2.821-6.581c-.117-.352 0-.705.353-.822.352-.118.705 0 .822.352l2.233 5.288 2.233-5.288c.117-.352.47-.47.822-.352.353.117.47.47.353.822l-2.82 6.581v.235h-1.058s.118 0 0 0zm5.405-7.168c0-.353.235-.588.588-.588.352 0 .587.235.587.588v6.698c0 .352-.235.587-.587.587-.353 0-.588-.235-.588-.587v-6.698zm3.408 6.58v-6.698c0-.353.235-.588.588-.588h1.292a3.963 3.963 0 013.996 3.996 3.963 3.963 0 01-3.996 3.995h-1.292c-.353 0-.588-.353-.588-.705zm1.175-.588h.705c1.528 0 2.703-1.175 2.703-2.702 0-1.528-1.175-2.703-2.703-2.703h-.705v5.405zm6.346.588v-6.698c0-.353.235-.588.588-.588h3.643c.352 0 .587.235.587.588 0 .352-.235.587-.587.587h-2.938v2.116h2.585c.353 0 .588.235.588.587 0 .353-.235.588-.588.588h-2.585v2.115h3.055c.353 0 .588.235.588.587 0 .353-.235.588-.588.588h-3.643c-.47.235-.705-.118-.705-.47zm12.926-6.228a4.102 4.102 0 011.175 2.82c0 1.175-.47 2.115-1.175 2.82-.705.705-1.645 1.175-2.703 1.175-1.057 0-2.115-.47-2.82-1.175a4.102 4.102 0 01-1.175-2.82c0-1.175.47-2.115 1.175-2.82.705-.705 1.645-1.175 2.82-1.175 1.058 0 1.998.47 2.703 1.175zm-.118 2.82c0-.823-.352-1.528-.822-1.998s-1.058-.822-1.763-.822c-.705 0-1.41.235-1.88.822a2.835 2.835 0 00-.822 1.998c0 .823.235 1.528.822 1.998.47.47 1.058.822 1.88.822.705 0 1.293-.352 1.763-.822s.822-1.175.822-1.998z" fill="#fff"/><path d="M238.897 379.909c-1.527 0-2.702-1.175-2.702-2.703v-3.29c0-.235.235-.47.47-.47s.47.235.47.47v3.29c0 .94.705 1.646 1.645 1.646.94 0 1.645-.706 1.645-1.646v-3.29c0-.235.235-.47.47-.47s.47.235.47.47v3.29c.235 1.528-1.057 2.703-2.468 2.703zm4.819 1.293v-5.406c0-.235.235-.47.47-.47s.47.235.47.353c.352-.235.822-.353 1.292-.353 1.293 0 2.233 1.058 2.233 2.351 0 1.292-1.058 2.35-2.233 2.35-.47 0-.94-.118-1.292-.353v1.645c0 .235-.235.47-.588.47-.117-.117-.352-.352-.352-.587zm.94-3.643c0 .353.117.705.352.94s.588.353.94.353c.353 0 .588-.118.823-.353s.352-.587.352-.94c0-.352-.117-.705-.352-.94a1.27 1.27 0 00-.823-.352c-.352 0-.705.117-.94.352s-.352.588-.352.94zm5.64-4.23c.235 0 .47.235.47.47v5.523c0 .235-.235.47-.47.47a.505.505 0 01-.47-.47v-5.523c-.118-.235.117-.47.47-.47zm2.115 5.876c-.352-.47-.705-.941-.705-1.646 0-.587.235-1.175.705-1.645s.941-.705 1.646-.705c.587 0 1.175.235 1.527.705.47.47.705 1.058.705 1.645 0 .705-.235 1.293-.705 1.646-.352.47-.94.705-1.527.705a2.321 2.321 0 01-1.646-.705zm.47-1.646c0 .353.118.706.353.941s.588.352.94.352c.353 0 .588-.117.823-.352s.352-.588.352-.941c0-.352-.117-.705-.352-.94a1.27 1.27 0 00-.823-.352c-.352 0-.705.117-.94.352s-.353.588-.353.94zm8.931 0v1.881c0 .235-.235.47-.47.47s-.47-.235-.47-.353c-.353.235-.823.353-1.293.353a2.32 2.32 0 01-1.645-.705c-.353-.47-.588-1.058-.588-1.646 0-.705.235-1.175.588-1.645s.94-.705 1.645-.705c.47 0 .94.118 1.293.47 0-.235.235-.47.47-.47s.47.235.47.47v1.88zm-.94 0c0-.352-.118-.705-.353-.94a1.267 1.267 0 00-.822-.352c-.353 0-.705.117-.823.352-.235.235-.352.588-.352.94 0 .353.117.706.352.941s.588.352.823.352c.352 0 .705-.117.822-.352.235-.235.353-.588.353-.941zm7.051 1.88c0 .235-.235.47-.47.47s-.47-.235-.47-.352c-.353.235-.823.352-1.293.352-1.292 0-2.232-1.057-2.232-2.35 0-1.292 1.057-2.35 2.232-2.35.47 0 .94.118 1.293.353v-1.763c0-.235.235-.47.47-.47s.47.235.47.47v5.64zm-2.233-3.172c-.352 0-.705.117-.822.352-.235.235-.353.588-.353.94 0 .353.118.705.353.94s.587.353.822.353c.353 0 .705-.118.94-.353s.353-.587.353-.94c0-.352-.118-.705-.353-.94-.352-.235-.587-.352-.94-.352zm4.817 2.35c.353 0 .705.352.705.705s-.352.705-.705.705c-.352 0-.705-.352-.705-.705 0-.47.235-.705.705-.705zm2.116 0c.353 0 .705.352.705.705s-.352.705-.705.705c-.352 0-.705-.352-.705-.705 0-.47.353-.705.705-.705zm2.116 0c.352 0 .705.352.705.705s-.353.705-.705.705c-.353 0-.706-.352-.706-.705.118-.47.353-.705.706-.705z" fill="#C7C7C7"/><path d="M328.794 386.725H182.847v9.166h145.947v-9.166z" fill="#EBEBEB"/><path d="M231.849 388.37H184.61v5.993h47.239v-5.993z" fill="#FE9563"/><path opacity=".1" d="M194.128 388.37h-4.935l-4.583 5.993h4.935l4.583-5.993zm9.401 0h-4.818l-4.701 5.993h4.936l4.583-5.993zm9.518 0h-4.935l-4.583 5.993h4.818l4.7-5.993zm9.401 0h-4.936l-4.583 5.993h4.936l4.583-5.993zm9.4 0h-4.818l-4.7 5.993h4.935l4.583-5.993zm47.24 5.993v-.117l-.117.117h.117z" fill="#000"/><path d="M391.191 178.851l-2.821 2.82-1.645 1.645c-7.52-7.286-16.451-11.163-27.027-11.163-10.458 0-19.507 3.877-27.027 11.28l-1.528-1.527-2.82-2.82h-.118v-.118c.118 0 .118-.117.235-.117l3.526-3.173c2.467-2.115 5.288-3.761 8.225-5.171 3.408-1.645 7.051-2.937 10.929-3.642 1.762-.353 3.643-.47 5.405-.706.588-.117 4.583-.117 4.701-.117 1.292.118 2.467.117 3.76.235 3.408.353 6.698 1.175 9.988 2.35a34.923 34.923 0 016.698 3.173 48.62 48.62 0 016.463 4.465c1.176.705 2.116 1.646 3.056 2.586z" fill="#F6EDDF"/><path d="M341.602 192.129c-1.528-1.528-2.938-2.938-4.466-4.348 5.053-4.936 11.046-8.109 17.979-9.049 10.459-1.41 19.507 1.763 27.145 9.049a9398.027 9398.027 0 00-4.465 4.465c-5.053-4.818-11.046-7.521-18.097-7.521-6.933-.117-13.044 2.468-18.096 7.404z" fill="#F6EDDF"/><path d="M373.448 196.476c-1.41 1.41-2.938 2.938-4.466 4.348-2.585-2.468-5.64-3.878-9.283-3.878s-6.698 1.41-9.283 3.878l-4.348-4.348c7.05-7.285 19.624-7.873 27.38 0zm-9.637 8.461a3.962 3.962 0 01-3.995 3.996 3.962 3.962 0 01-3.995-3.996 3.962 3.962 0 013.995-3.995c2.115 0 3.995 1.763 3.995 3.995z" fill="#F6EDDF"/><path d="M121.505 464.283l-3.525 48.297c0 9.4.118 17.744.588 21.974v.117c.117 1.646.352 2.703.705 2.938v.118c2.82 1.88 78.379 4.465 80.964 3.76 2.703-.823.588-8.461-2.233-10.928-2.82-2.468-31.375-16.334-31.375-16.334l3.055-48.297-48.179-1.645z" fill="#774442"/><path d="M200.355 541.252c-2.703.823-78.145-1.763-80.965-3.76l-.117-.118c-.235-.235-.47-1.292-.705-2.938v-.117c-.47-4.348-.588-12.574-.588-21.974 0 0 .588-8.344 1.293-18.097l48.531 2.233-1.057 17.391s28.437 13.866 31.375 16.334c2.82 2.703 4.935 10.341 2.233 11.046z" fill="#EBEBEB"/><path d="M200.707 541.487c-2.703.822-79.437-1.293-82.257-3.291-1.058-.705-1.293-26.439.235-39.483l49.354 1.88s-.118 13.279.47 13.514c4.818 2.467 27.262 13.983 29.847 16.216 2.938 2.468 5.053 10.341 2.351 11.164z" fill="#FE9563"/><path d="M199.767 538.314c-12.808-.823-64.748-2.82-77.439-2.585-.117 0-.117.117 0 .117 12.691 1.058 64.631 2.703 77.439 2.821.235-.118.235-.353 0-.353zm-6.11-10.928c-3.055-.235-6.11 1.057-7.755 2.82-1.645 1.645-3.173 4.113-3.173 6.698 0 .117.118.117.118 0 .94-5.053 5.64-9.283 10.81-9.401.118.118.118-.117 0-.117zm-21.975-12.222c-5.17-.235-11.163 1.293-14.571 5.406-.118.117.117.352.235.235 4.7-2.233 9.283-3.878 14.336-5.053.353-.118.353-.588 0-.588zm3.878 1.646c-5.17-.235-11.163 1.292-14.571 5.405-.117.118.118.353.235.235 4.7-2.233 9.283-3.878 14.336-5.053.353 0 .353-.587 0-.587zm3.879 1.644c-5.171-.235-11.164 1.293-14.572 5.406-.117.117.118.352.235.235 4.701-2.233 9.284-3.878 14.337-5.053.47 0 .352-.47 0-.588zm3.877 1.763c-5.171-.235-11.164 1.293-14.572 5.406-.117.117.118.352.235.235 4.701-2.233 9.284-3.878 14.337-5.053.47 0 .47-.588 0-.588zm-56.758-16.451c-5.758-.235-6.11 8.813-.352 8.931 5.875.235 6.228-8.813.352-8.931z" fill="#263238"/><path d="M177.676 501.651c-2.468-2.232-5.875-.235-7.521 1.88-.705.94-1.41 2.116-2.115 3.291-1.41 2.585-2.468 5.523-2.938 8.343 0 .235-.117.47-.117.705v.117c0 .235-.118.353-.118.588 0 .117.118.118.118.118.117.235.235.47.47.47h.353c1.057-.706 2.115-1.293 3.172-1.998l.588-.353c2.585-1.645 5.17-3.29 7.168-5.64 1.998-2.115 3.408-5.406.94-7.521zm-6.698 10.694c-.823.587-1.645 1.057-2.585 1.645a16.72 16.72 0 00-2.35 1.645c-.118 0-.118.117-.235.235-.118.117-.236.117-.236.235 0-.118.118-.235.118-.235.823-1.998 1.528-3.995 2.468-5.993a5.44 5.44 0 01.587-1.175 32.52 32.52 0 011.998-3.408c1.175-1.645 6.345-5.758 6.698-.118.118 2.821-4.23 5.641-6.463 7.169z" fill="#263238"/><path d="M166.041 516.222c.117-.117.117-.117 0-.235-.118-.117-.235-.235-.353-.235l-.117-.117-.47-.47c-3.056-2.703-7.286-4.936-11.281-5.876-2.703-.587-6.581 0-7.051 3.291-.47 3.172 2.703 4.935 5.288 5.405 2.585.47 5.288.353 7.991 0 1.88-.235 3.76-.588 5.523-.705.587-.235.705-.705.47-1.058zm-7.286.353c-2.585.235-7.873.822-9.636-1.645-3.29-4.583 3.291-4.701 5.288-4.113 1.293.352 2.468.822 3.761 1.41 2.467 1.058 4.7 2.35 6.933 3.643.117 0 .117.117.235.117h-1.058c-1.88.118-3.643.353-5.523.588z" fill="#263238"/><path d="M117.979 491.545l54.054 2.233s2.468-75.442 1.293-107.052c-1.293-34.43-16.099-137.017-16.099-137.017h-44.654s11.399 102.939 11.634 137.369c.235 31.963-6.228 104.467-6.228 104.467z" fill="#37474F"/><path d="M148.414 249.709l-26.792 92.833c-3.173-43.949-9.049-92.833-9.049-92.833h35.841z" fill="#263238"/><path d="M121.034 254.761l2.82 30.553 2.585 30.67c1.645 20.447 3.291 40.894 4.466 61.34.352 5.171.47 10.224.352 15.394-.117 5.171-.352 10.224-.587 15.394-.47 10.223-1.175 20.447-1.998 30.67-.823 10.224-3.643 40.306-3.643 40.306s2.115-30.082 2.703-40.306c.587-10.223 1.293-20.447 1.763-30.67.235-5.17.47-10.223.47-15.394 0-5.053-.118-10.223-.47-15.276-1.058-20.447-2.703-40.894-4.231-61.34l-4.23-61.341zm49.238 228.91c-8.226-.587-5.876-.47-14.101-.94-3.996-.235-30.553-1.762-34.313-1.292-.118 0-.118.117 0 .117 3.76.823 30.317 1.763 34.313 1.998 8.225.352 5.875.117 14.101.352.117 0 .235-.235 0-.235z" fill="#263238"/><path d="M35.722 436.903l-24.677 41.716c-4.23 8.46-7.874 15.864-9.284 19.976v.118c-.587 1.528-.822 2.585-.705 2.938v.117c1.645 2.938 68.156 38.896 70.859 39.366 2.703.47 4.348-7.286 2.82-10.693-1.528-3.408-20.8-28.555-20.8-28.555l24.208-41.834-42.421-23.149z" fill="#774442"/><path d="M71.915 541.017c-2.703-.471-69.214-36.429-70.859-39.366v-.118c-.117-.352.118-1.41.705-2.938v-.117c1.528-3.995 5.053-11.516 9.284-19.977 0 0 4.23-7.285 9.283-15.629l42.421 23.62-8.696 15.159s19.272 25.147 20.8 28.555c1.41 3.525-.118 11.281-2.938 10.811z" fill="#EBEBEB"/><path d="M72.267 541.251c-2.82-.47-70.506-36.545-72.151-39.601-.588-1.175 10.576-24.324 17.744-35.253l43.361 23.738s-5.993 11.868-5.523 12.338c3.29 4.348 18.214 24.677 19.507 27.85 1.41 3.525-.235 11.398-2.938 10.928z" fill="#FE9563"/><path d="M72.737 538.079c-11.163-6.463-56.64-31.375-68.156-36.898-.117 0-.117 0 0 .117 10.929 6.581 56.64 31.14 68.038 37.016.236 0 .353-.118.118-.235zm-.588-12.574c-2.585-1.527-5.876-1.762-8.226-.94-2.232.823-4.583 2.233-5.758 4.701 0 .117.118.117.118.117 3.055-4.113 9.166-5.758 13.866-3.643 0 0 .117-.117 0-.235zM57.93 504.706c-4.465-2.585-10.576-3.76-15.394-1.645-.235.117-.117.352.118.352 5.288.118 9.988.705 15.041 1.881.352.117.587-.353.235-.588zm2.704 3.29c-4.465-2.585-10.576-3.76-15.394-1.645-.235.117-.117.352.118.352 5.288.118 9.988.706 15.04 1.881.353.117.588-.47.236-.588zm2.819 3.291c-4.465-2.585-10.576-3.76-15.393-1.645-.235.117-.118.352.117.352 5.288.118 9.989.706 15.041 1.881.353.117.47-.47.235-.588z" fill="#263238"/><path d="M66.156 514.459c-4.465-2.585-10.576-3.76-15.394-1.645-.235.118-.117.353.118.353 5.288.117 9.988.705 15.041 1.88.353.117.588-.353.235-.588zm-43.479-39.953c-5.052-2.703-9.4 5.17-4.23 7.873 5.053 2.703 9.283-5.17 4.23-7.873zm46.653 20.8c-1.293-3.173-5.17-2.821-7.638-1.645-1.058.587-2.233 1.175-3.29 1.997-2.468 1.763-4.701 3.878-6.346 6.228-.118.235-.235.353-.353.588-.117 0-.117.117-.117.117a1.63 1.63 0 00-.353.47c0 .118 0 .235.118.235 0 .235 0 .588.235.705.117.118.235.118.352.118 1.175-.118 2.468-.235 3.76-.353h.706c3.055-.235 6.11-.587 8.93-1.88 2.468-1.175 5.288-3.525 3.996-6.58zm-10.694 6.58c-1.057.118-1.997.235-2.937.353l-2.82.352h-.706l.235-.235c1.645-1.41 3.173-2.937 4.936-4.23.352-.235.705-.588 1.057-.823 1.058-.705 2.115-1.527 3.29-2.115 1.763-.94 8.344-2.35 6.111 2.82-1.41 2.938-6.58 3.526-9.166 3.878z" fill="#263238"/><path d="M52.407 503.296c.118 0 .118-.117.118-.235 0-.117-.118-.235-.118-.352v-.118c-.117-.235-.117-.47-.235-.587-1.527-3.878-4.347-7.756-7.403-10.341-2.115-1.763-5.875-2.938-7.755-.235-1.88 2.585.235 5.64 2.35 7.168 2.115 1.645 4.583 2.703 7.168 3.525l5.288 1.763c.235.117.587-.235.587-.588zm-6.58-3.055c-2.468-.94-7.403-2.82-7.873-5.875-.94-5.523 5.053-2.703 6.58-1.293.94.823 1.88 1.88 2.703 2.82 1.645 1.998 3.055 4.231 4.583 6.346 0 .117.117.117.117.235-.117 0-.117-.118-.235-.118l-.705-.352a38.255 38.255 0 01-5.17-1.763z" fill="#263238"/><path d="M152.644 249.709c-.235.94-3.29 15.394-6.581 27.85-2.35 9.048-4.818 17.039-6.11 17.861-1.528.94-9.284 4.348-11.869 5.406 0 0-17.274 86.135-26.322 112.81-8.343 24.677-32.08 71.681-32.08 71.681l-49.12-27.028s26.91-46.416 31.14-58.402c6.464-18.567 30.436-109.285 30.436-109.285s-.235-28.437 9.4-40.775h61.106v-.118z" fill="#37474F"/><path d="M71.68 474.153c-7.167-3.995-5.052-2.938-12.338-6.933-3.525-1.88-26.91-14.571-30.552-15.864-.118 0-.118.118-.118.118 3.055 2.35 26.557 14.571 30.2 16.451 7.286 3.76 5.288 2.585 12.574 6.346.235.117.352 0 .235-.118zm23.386-191.541c1.41-.353 2.82-.47 4.23-.705 1.175-.235 2.233-.353 3.408-.588 2.115-.47 4.23-1.175 5.993-2.468 1.998-1.527 2.938-3.877 3.878-5.993l1.762-3.877c.235-.588.588-1.293.823-1.881.352-.705.823-1.527 1.058-2.232 0-.118.235 0 .117 0-.235.47-.353 1.057-.47 1.645-.235.587-.353 1.292-.588 1.88-.352 1.175-.705 2.233-1.057 3.408-.705 1.997-1.293 4.113-2.35 5.993-2.116 3.29-5.758 4.7-9.519 5.17-1.057.118-2.115.235-3.172.235-1.293.118-2.703.235-4.113 0-.118-.235-.235-.587 0-.587zm48.884 10.81c-5.523 1.881-10.811 4.583-15.864 7.403-.235.118-.118.471.117.353 5.288-2.233 10.811-4.465 15.982-7.051.47-.235.235-.822-.235-.705zm1.644-36.428c0-.235-.353-.235-.353 0 0 6.346-.352 11.869-.94 17.744-.235 2.703-2.467 17.862-7.168 16.804-.822-.235-1.175-.94-1.292-2.115-.118-1.41.352-3.173.587-4.7.47-3.173.94-6.346 1.175-9.519.47-5.993.588-11.986-.235-17.979 0-.235-.352-.235-.352 0 0 8.226-.235 16.569-1.41 24.795-.588 3.995-2.586 9.871 1.527 10.458 4.231.588 6.933-9.283 7.403-11.986 1.528-7.638 1.646-15.863 1.058-23.502z" fill="#263238"/><path d="M137.251 292.012a16.76 16.76 0 00-1.057 3.173c-.235.823-.588 1.763-.47 2.585 0 .118.235.235.352.118.588-.705.823-1.645 1.058-2.468.352-.94.705-1.88 1.058-2.938.235-.822-.706-1.175-.941-.47zM32.786 451.473a16133.56 16133.56 0 0121.974-41.246c3.408-6.58 5.758-13.513 7.99-20.682 4.466-14.453 8.697-28.907 12.574-43.478 3.996-14.571 7.639-29.26 11.164-43.949.822-3.643 1.88-7.403 2.585-11.046.705-3.878.47-7.403 0-11.281-.47-3.525-.587-7.05-.117-10.576a77.88 77.88 0 012.467-10.341l1.763-5.288c.117-.235.352-.117.352.118-2.115 7.168-4.347 14.336-3.877 21.857.235 3.643 1.175 7.168 1.175 10.811-.118 3.642-1.058 7.168-1.88 10.693-3.408 14.806-7.169 29.495-11.046 44.184-3.878 14.689-8.109 29.26-12.456 43.714-2.116 7.05-4.113 14.218-7.169 20.916-3.055 6.698-14.57 27.38-22.209 40.659-.94 1.645-1.998 3.29-2.938 5.053-.235.117-.47 0-.352-.118z" fill="#263238"/><path d="M128.437 174.268c15.394 8.46 41.599 24.089 52.292 25.264 8.226.94 46.887-24.677 58.52-34.665 3.525-3.055-16.451-25.147-20.564-22.21-11.281 8.109-41.716 27.145-43.009 27.38-5.053.94-25.147-4.7-43.126-8.108-20.094-3.76-11.634 8.226-4.113 12.339z" fill="#774442"/><path d="M156.404 191.777l12.221-22.68s-30.082-9.283-43.713-8.225c-13.632 1.175-5.171 8.343 1.762 13.161 6.698 4.818 29.73 17.744 29.73 17.744z" fill="#C7C7C7"/><path d="M156.404 191.777l12.221-22.68s-30.082-9.283-43.713-8.225c-13.632 1.175-5.171 8.343 1.762 13.161 6.698 4.818 29.73 17.744 29.73 17.744z" fill="#FE9563"/><path d="M168.51 169.215l-.118.235c-.235-.118-.587-.235-.822-.353-.47-.117-.823-.352-1.293-.47l-1.293-.47-1.41-.353-.705-.117c-.235 0-.47-.118-.705-.118-3.643-.587-7.52-.235-11.046.823-3.525 1.058-6.933 2.82-10.106 4.7a156.868 156.868 0 00-7.285 4.818c-.118.118-.235.235-.353.235-.117.118-.117.118-.235.118-.117-.118-.352-.235-.47-.235.118 0 .235-.118.235-.118.118-.117.235-.117.353-.235 2.467-1.645 4.935-3.407 7.52-4.935 3.173-1.88 6.581-3.643 10.224-4.701 3.525-1.057 7.285-1.292 10.811-.822 3.055.822 5.405 1.528 6.228 1.763.235.117.352.117.47.235zm-7.991 13.866c-3.29 1.057-6.58 2.35-9.753 3.643-.588.235-1.293.47-1.88.705.235.117.352.235.587.352.47-.235 1.058-.352 1.528-.587a324.477 324.477 0 019.636-3.761c.117 0 .235-.117.235-.117l.235-.588c-.118.118-.353.235-.588.353zm-26.792-5.171c-.118-.117-.235-.235-.47-.235-1.175-.822-2.468-1.41-3.761-1.88-.235-.117-.587-.117-.822-.235.352.235.822.47 1.175.705 1.058.353 2.115.94 3.055 1.528.118.117.235.235.47.235.353.235.588.47.94.705.235.235.588.47.823.705.47.352 1.057.588 1.645.94-.705-.705-1.41-1.41-2.233-1.998-.235-.117-.587-.352-.822-.47z" fill="#fff"/><path d="M151.94 188.133c1.41-3.29 3.29-6.463 4.935-9.635 1.763-3.291 3.76-6.346 5.523-9.519 0-.117.235 0 .118.118-1.646 3.173-3.173 6.463-4.936 9.636-1.763 3.172-3.525 6.463-5.64 9.4 0 .118 0 .118 0 0z" fill="#263238"/><path opacity=".1" d="M162.633 180.143l-6.228 11.633s-22.914-12.926-29.847-17.626c-4.231-2.938-8.931-6.698-8.931-9.519l45.006 15.512z" fill="#000"/><path d="M84.137 258.64c.235.235 73.443-1.058 74.148-1.88.941-1.175-9.283-69.449-19.624-87.663-4.935-8.695-18.449-13.396-26.322.118-18.802 32.198-28.79 88.72-28.202 89.425z" fill="#FE9563"/><path d="M158.168 254.175H155.7c-.47 0-.94 0-1.41-.118l-1.41-.235c-.47 0-.94-.117-1.41-.235-.94-.117-1.88-.47-2.703-.705-.94-.353-1.763-.588-2.585-1.058-.823-.352-1.645-.822-2.585-1.292-.823-.47-1.646-.94-2.351-1.41-.822-.47-1.527-1.058-2.35-1.645-.705-.588-1.527-1.176-2.233-1.763l-2.467-2.115c-.118-.118-.235-.118-.235-.235a114.434 114.434 0 01-5.523-5.171c-2.703-2.585-5.406-5.17-8.343-7.52-1.411-1.175-2.938-2.233-4.583-3.056-.353-.235-.705-.352-1.058-.47-.117-.117-.352-.117-.47-.235a19.764 19.764 0 00-3.76-1.057c-.47 0-.94-.118-1.41-.118h-1.411c-.47 0-.94 0-1.41.118l-1.41.117-.705.118-.705.117-1.41.235c-.94.235-1.763.47-2.703.823-.352.117-.822.235-1.175.47-.235.117-.352.117-.47.235a30.36 30.36 0 00-3.408 1.645c-1.527.823-3.172 1.528-4.818 2.233 0-.118 0-.235.118-.235 1.528-.588 3.055-1.41 4.583-2.233 1.057-.588 2.115-1.058 3.172-1.528.118-.117.353-.117.47-.235.47-.235.94-.352 1.41-.587a23.59 23.59 0 012.703-.823l1.411-.235.705-.117.705-.118 1.41-.117c.47 0 .94 0 1.41-.118h1.41c.47 0 .94 0 1.41.118 1.41.117 2.703.587 3.996 1.057.117.118.352.118.47.235.352.118.587.235.94.47 1.645.94 3.172 1.998 4.7 3.173 2.938 2.35 5.641 5.053 8.226 7.638 1.88 1.88 3.76 3.643 5.64 5.406l.235.235c.705.705 1.528 1.292 2.35 1.997 1.411 1.176 2.938 2.351 4.466 3.291.822.47 1.645.94 2.35 1.41.823.352 1.645.822 2.585 1.175.823.352 1.763.705 2.585 1.058.941.235 1.763.587 2.703.705.47.117.94.235 1.41.235l1.41.117c.47 0 .941 0 1.411.118h1.41c.352 0 .705 0 1.057-.118.118.235.118.353.118.353zm-2.115-16.217c-.118 0-.118.118-.235.118-3.056 1.645-6.228 3.055-9.519 4.113-3.29.94-6.815 1.41-10.223 1.527h-2.115c-2.703-.117-5.523-.587-8.108-1.292-1.646-.47-3.291-1.058-4.936-1.646-1.645-.705-3.173-1.41-4.7-2.232-2.821-1.41-5.523-3.173-8.226-4.818-.118-.118-.235-.118-.47-.235-.118-.118-.235-.118-.235-.235-2.938-1.88-5.876-3.643-9.048-5.171h-.118c-.117-.117-.235-.117-.352-.235-2.116-.94-4.466-1.645-6.698-1.997 0 .117-.118.235-.118.352.823.118 1.528.235 2.35.47 1.41.353 2.703.823 3.996 1.293.117 0 .235.117.352.117.118.118.353.118.47.235 3.173 1.411 6.111 3.173 9.048 4.936.118 0 .118.117.235.117.118.118.235.118.47.235a190.978 190.978 0 008.344 4.818c1.527.823 3.172 1.528 4.7 2.233 1.645.705 3.29 1.293 4.936 1.645 2.702.823 5.64 1.293 8.46 1.41h1.88c3.526 0 6.933-.47 10.341-1.41 3.408-.94 6.581-2.35 9.636-3.995-.117 0-.117-.235-.117-.353zm-4.466-24.324c-.822-.353-1.645-.705-2.467-.94-.941-.235-1.763-.588-2.703-.705-.47-.118-.94-.236-1.41-.236l-1.41-.117c-.471-.118-.941 0-1.411-.118h-1.41c-3.76.118-7.52 1.058-10.811 2.821-3.407 1.645-6.345 3.995-9.165 6.463-2.233 1.997-4.348 4.113-6.463 6.228l-.353.352-1.293 1.293c-1.645 1.645-3.29 3.29-5.17 4.935-.118 0-.118.118-.235.118a30.21 30.21 0 01-3.055 2.35c-1.528 1.058-3.173 1.998-4.818 2.585-1.763.705-3.526.94-5.406.94s-3.642-.235-5.523-.822c-.235-.118-.47-.118-.705-.235 0 .117 0 .235-.117.352.235.118.47.118.705.235 1.88.47 3.76.823 5.64.823h2.116l.704-.118.706-.117c.235 0 .47-.118.705-.235l.705-.235c.235-.118.47-.118.705-.235 1.762-.705 3.408-1.645 4.935-2.703l3.173-2.468c.117-.117.117-.117.235-.117.353-.235.705-.588.94-.94 1.41-1.293 2.703-2.585 3.995-3.878l1.411-1.41.352-.353c2.115-2.115 4.113-4.113 6.228-6.11 2.82-2.468 5.758-4.818 9.048-6.463 3.291-1.645 6.933-2.703 10.694-2.821h1.41c.47 0 .94 0 1.41.118l1.41.118c.47 0 .94.117 1.41.235.94.117 1.763.47 2.703.705.823.352 1.763.587 2.585.94v-.235zm-11.046-40.776c-2.467 1.527-4.818 3.172-7.285 4.7-.118.118-.235.118-.353.235-.47.353-1.057.705-1.528 1.058-3.055 2.115-6.228 4.23-9.518 5.758-.587.235-1.175.47-1.88.705-.117 0-.235.117-.353.117-.94.353-1.997.588-3.055.823-1.762.352-3.643.235-5.523-.118-1.762-.352-3.643-.94-5.288-1.762-.352-.118-.587-.353-.94-.47-.117.117-.117.235-.117.352.235.118.587.353.822.47 1.645.823 3.526 1.41 5.288 1.88l.823.235.705.118.705.117h1.41c.235 0 .47 0 .705-.117l.705-.118c.235 0 .47-.117.705-.117 1.175-.235 2.35-.588 3.526-.94.117 0 .235-.118.352-.118.47-.235 1.058-.47 1.528-.705 1.762-.822 3.29-1.762 4.935-2.703 1.645-.94 3.173-1.997 4.701-3.055.587-.352 1.057-.705 1.645-1.175.117-.117.235-.117.352-.235 2.35-1.528 4.583-3.173 6.933-4.583.118-.117 0-.235 0-.352zm5.288 15.746c-.705.235-1.41.47-1.997.705-.118 0-.235 0-.235.118-.823.235-1.646.47-2.586.705-3.407.705-6.815.822-10.223 0-3.408-.705-6.698-1.881-9.518-3.761-.235-.117-.47-.235-.588-.47-.235-.117-.352-.235-.47-.352-2.468-1.763-4.7-3.761-7.403-5.171-1.528-.822-3.173-1.527-4.818-2.115h-.118v.235c.118 0 .118 0 .235.118.823.352 1.646.587 2.468.94.823.352 1.528.705 2.35 1.175 2.586 1.41 4.701 3.408 7.169 5.17.117.118.352.235.47.353.235.235.587.352.822.587 2.938 1.998 6.228 3.173 9.636 3.878 3.408.94 7.051.823 10.458 0 .94-.235 1.881-.47 2.703-.705.118 0 .235 0 .235-.117.588-.235 1.293-.353 1.88-.588-.47-.47-.47-.587-.47-.705zm1.41 5.523a37.63 37.63 0 01-1.88-2.703c-.47-.587-.822-1.175-1.292-1.762a1.63 1.63 0 01-.353-.47c-1.645-2.351-3.29-4.583-5.17-6.816-1.293-1.41-2.586-2.82-3.996-3.995-.235-.235-.47-.47-.822-.588-.118-.117-.235-.235-.47-.235-1.175-.823-2.468-1.41-3.761-1.88l-1.41-.353-1.41-.235c-.47-.117-.94-.117-1.41-.235l-1.41-.117h-2.82c-.94.117-1.881.117-2.821.352-1.88.235-3.642.823-5.523 1.293-1.645.47-3.407 1.058-5.17 1.41 0 .118 0 .118-.118.235v.118h.235c1.763-.353 3.408-.823 5.171-1.293 1.763-.47 3.643-1.058 5.405-1.293.94-.117 1.881-.235 2.821-.235h2.82l1.41.118c.47 0 .94.117 1.41.235l1.41.235c.47.117.94.235 1.293.352 1.292.353 2.35.941 3.525 1.646.118.117.235.235.47.235.353.235.588.47.94.705 1.41 1.175 2.82 2.467 3.996 3.878 1.88 2.115 3.525 4.347 5.17 6.58.118.118.235.235.353.47.47.588.94 1.293 1.292 1.88.823 1.058 1.528 2.115 2.35 3.173-.117-.235-.235-.47-.235-.705z" fill="#fff"/><path d="M133.727 174.856c-3.29.352-10.458-5.171-13.513-10.224-.236-.352.117-3.995.352-8.578.118-2.703.235-5.758.118-8.578l17.626 3.408s-1.41 5.875-1.175 10.811c0 .352.117.822.117 1.175v.235c.588 2.115 1.646 11.163-3.525 11.751z" fill="#774442"/><path d="M120.683 155.349c3.76 5.053 9.401 9.988 16.922 8.813-.118-.47-.118-.822-.235-1.057v-.235c-.118-.353-.118-.705-.118-1.175-.235-4.818 1.175-10.811 1.175-10.811l-17.626-3.408c.117 2.585 0 5.288-.118 7.873z" fill="#263238"/><path d="M116.102 127.616c-1.645 6.346 2.585 24.09 7.168 27.85 6.698 5.523 17.157 5.523 21.74-2.35 4.347-7.638-1.411-30.67-6.464-34.078-7.638-5.053-20.094-.705-22.444 8.578z" fill="#774442"/><path d="M133.61 136.782l-.117.118c.352 1.175.587 2.585-.353 3.29v.118c1.293-.706 1.058-2.586.47-3.526z" fill="#263238"/><path d="M132.2 135.725c-1.997.352-1.057 4.23.705 3.878 1.88-.235.94-4.113-.705-3.878zm8.463-.94s.118.117 0 0c.353 1.292.823 2.585 1.998 2.82v.117c-1.41.118-1.998-1.762-1.998-2.937z" fill="#263238"/><path d="M141.368 133.375c1.88-.588 2.937 3.173 1.175 3.76-1.646.47-2.703-3.29-1.175-3.76zm-11.047.94c.47-.235.94-.588 1.41-.823.47-.352.94-.587 1.175-1.175.117-.352-.118-.822-.353-.94-.705-.353-1.41-.117-2.115.235-.705.47-1.175.94-1.41 1.645-.235.823.588 1.41 1.293 1.058zm12.104-2.82h-1.646c-.587 0-1.175 0-1.645-.353-.235-.235-.352-.705-.235-1.057.353-.706 1.175-.823 1.88-.823.823 0 1.411.235 2.116.705.705.47.235 1.528-.47 1.528zm-7.286 16.568c.353.235.705.588 1.175.47.47-.117.823-.352 1.176-.587h.117c-.235.587-.823.94-1.41 1.057-.588 0-.94-.352-1.058-.94-.117 0-.117 0 0 0z" fill="#263238"/><path d="M135.492 144.186c.94.94 1.998 1.175 3.173 1.175.47 0 1.057-.118 1.527-.235.118 0 .236 0 .236-.118.117 0 .117-.117.235-.117.117 0 .235-.235.235-.353v-.235l-.588-2.35c.353.118 2.233.47 2.115 0-1.175-3.878-2.468-8.343-4.465-11.986-.118-.117-.235 0-.235.118.94 3.76 2.585 7.403 3.643 11.281-.588-.118-1.528-.235-2.116-.118-.117.118.823 2.703.94 3.055-1.527.588-2.82.353-4.465-.352-.235.117-.352.235-.235.235z" fill="#263238"/><path d="M139.486 144.774s-.587 1.292-1.527 1.997c-.353.235-.823.353-1.293.353-1.058 0-1.293-.94-1.293-1.645 0-.705.118-1.293.118-1.293s1.763.94 3.995.588z" fill="#263238"/><path d="M137.959 146.771c-.353.235-.823.353-1.293.353-1.058 0-1.293-.94-1.293-1.645 1.058-.236 2.233.235 2.586 1.292z" fill="#FF99BA"/><path d="M117.159 142.775c-.705-1.527-7.52-18.214-7.285-20.211.117-1.763 2.115-1.411 2.115-1.528 0-.118-.118-1.645.705-2.468.822-.705 2.115-.235 2.115-.235s0-1.645 1.058-2.35c.94-.588 2.115.118 2.115.118s.117-1.646 1.41-2.233c1.293-.588 2.115.47 2.115.47s.235-1.645 1.293-2.115c1.057-.47 2.115.587 2.115.587s.352-1.527 1.645-1.762c1.293-.235 1.998 1.175 1.998 1.175s.587-1.528 1.762-1.763c1.175-.235 1.88 1.293 1.88 1.293s.353-1.41 1.528-1.528c1.175-.118 1.645 1.528 1.645 1.528s.118-1.293 1.528-1.058c2.233.353 4.818 11.163 5.993 15.511 0 0-1.41-3.172-2.233-3.055-.94.118-1.41 1.528-2.938 2.233-2.232.94-6.698-1.293-9.87-.118-3.056 1.175-4.936 4.818-5.288 9.989-.47 5.758-3.761 11.163-5.406 7.52z" fill="#263238"/><path d="M120.566 142.07s-4.465-5.523-6.933-3.878c-2.468 1.645 1.058 9.754 4.23 10.694 3.173.94 4.113-1.998 4.113-1.998l-1.41-4.818z" fill="#774442"/><path d="M114.69 140.542c2.233.823 3.526 2.703 4.466 4.7-.705-.705-1.645-1.175-2.586-.352 0 0 0 .117.118.117.823-.235 1.528-.117 2.115.47.47.47.823 1.058 1.175 1.646.118.235.47.117.353-.118-.235-2.703-2.585-6.463-5.641-6.463zm23.854 25.031c0-.118-.117-.118 0 0 .705 3.408 2.233 11.281-3.173 11.633-2.232.118-4.347-.822-6.228-1.997-1.88-1.058-3.642-2.468-5.288-3.878-1.762-1.645-3.642-3.291-5.17-5.288-.118-.118-.235 0-.118.117 1.646 1.88 3.056 3.878 4.818 5.641 1.763 1.645 3.643 3.173 5.758 4.348 1.998 1.057 4.348 2.115 6.581 1.762 2.233-.235 3.525-1.88 3.878-3.995.352-2.703-.235-5.758-1.058-8.343zm166.852-26.552l-164.743 15.365 12.256 131.397 164.742-15.366-12.255-131.396z" fill="#263238"/><path d="M209.874 239.486l-4.348-46.651 50.059 18.801-45.711 27.85zm-51.573-80.103l-9.711.906.644 6.903 9.711-.906-.644-6.903zm1.3 13.985l-9.711.905.644 6.904 9.711-.906-.644-6.903zm1.289 13.867l-9.711.905.643 6.904 9.712-.906-.644-6.903zm1.289 13.866l-9.712.906.644 6.903 9.711-.906-.643-6.903zm1.299 13.985l-9.711.905.644 6.904 9.711-.906-.644-6.903zm1.289 13.867l-9.711.906.643 6.903 9.712-.905-.644-6.904zm1.289 13.867l-9.712.906.644 6.903 9.712-.905-.644-6.904z" fill="#FE9563"/><path d="M167.472 256.793l-9.711.906.644 6.903 9.711-.906-.644-6.903zm1.289 13.868l-9.712.905.644 6.904 9.712-.906-.644-6.903z" fill="#fff"/><path d="M298.613 146.333l-9.711.906.644 6.904 9.711-.906-.644-6.904zm1.289 13.868l-9.712.906.644 6.903 9.712-.906-.644-6.903zm1.298 13.984l-9.711.906.644 6.903 9.711-.905-.644-6.904zm1.289 13.867l-9.711.906.644 6.903 9.711-.906-.644-6.903zm1.29 13.867l-9.712.906.644 6.903 9.712-.906-.644-6.903zm1.3 13.984l-9.712.906.644 6.903 9.711-.905-.643-6.904zm1.287 13.867l-9.711.906.644 6.903 9.711-.905-.644-6.904zm1.289 13.868l-9.712.905.644 6.904 9.712-.906-.644-6.903zm1.3 13.983l-9.712.906.644 6.903 9.711-.905-.643-6.904z" fill="#FE9563"/><path d="M126.087 183.081c3.173 9.166 15.629 46.534 17.392 48.297 7.403 6.815 26.204 18.919 28.437 21.386 3.173 3.408-10.928 24.325-15.864 23.737-1.997-.235-27.145-16.686-34.9-24.794-6.228-6.463-9.519-48.179-9.754-67.568 0-16.687 8.461-18.92 14.689-1.058z" fill="#774442"/><path d="M111.987 215.513l25.617-1.762s-8.108-30.435-16.334-41.364c-8.226-10.928-9.871.118-10.223 8.461-.353 8.343.94 34.665.94 34.665z" fill="#FE9563"/><path d="M137.133 212.106c-2.232.353-4.465 1.175-6.463 2.233l-.94.117c.118-.117.235-.117.235-.117 2.233-1.175 4.583-1.998 7.051-2.35 0-.118.117 0 .117.117zm-10.458-30.082c-1.528.94-3.173 1.88-4.818 2.585-.588.235-1.175.47-1.88.705-.118 0-.235.117-.353.117-.94.353-1.997.588-3.055.823-1.763.352-3.643.235-5.523-.118h-.117v.47l.705.235.705.118.705.118h1.41c.235 0 .47 0 .705-.118l.705-.118c.235 0 .47-.117.705-.117 1.175-.235 2.35-.588 3.525-.94.118 0 .235-.118.353-.118.47-.235 1.057-.47 1.527-.705 1.646-.705 3.291-1.645 4.818-2.585 0 0-.117-.235-.117-.352zm3.173 7.755c-3.056-.705-6.111-1.88-8.696-3.643-.235-.117-.47-.235-.588-.47-.235-.117-.352-.235-.47-.352-2.467-1.763-4.7-3.76-7.403-5.171-.47-.235-.94-.47-1.527-.705v.235l1.41.705c2.585 1.411 4.7 3.408 7.168 5.171.117.117.352.235.47.352.235.235.587.353.822.588 2.703 1.88 5.876 3.055 9.049 3.76-.118-.117-.235-.352-.235-.47zm-6.933-14.924h-1.763c-.94.118-1.88.118-2.82.353-1.881.235-3.643.823-5.523 1.293-.47.117-1.058.352-1.528.47v.235c.588-.118 1.058-.353 1.645-.47 1.763-.47 3.643-1.058 5.406-1.293.94-.117 1.88-.235 2.82-.235h1.998c-.118-.118-.118-.235-.235-.353z" fill="#fff"/><path d="M112.574 209.756c3.525-.588 7.168-.705 10.811-.94 3.642-.235 7.403-.235 11.046-.353.117 0 .117.118 0 .235-3.643.353-7.169.823-10.811.94-3.643.235-7.286.471-11.046.118 0 0 0 .118 0 0z" fill="#263238"/><path d="M109.989 193.892c.235 1.528.47 3.055.822 4.583 0-3.173 0-6.463.118-9.636 0-.117.117-.117.117 0 .353 4.465.588 8.931.705 13.396.118 4.348.471 8.696.235 12.926.353 0 .588 0 .941.118.117 0 .117.235 0 .235-.353 0-.823.117-1.176.117a.253.253 0 01-.235-.235c-.47-4.465-.587-8.93-.587-13.396v-2.232a53.427 53.427 0 01-1.058-5.993c-.117 0 .118-.118.118.117zm26.674 19.977l.94-.117-.117.117c-.705-1.88-1.41-3.76-1.998-5.758-.587-1.88-1.293-3.878-1.88-5.758-.588-1.88-1.175-3.878-1.645-5.875-.47-1.998-1.058-3.878-1.41-5.876a310.87 310.87 0 012.115 5.758c.705 1.88 1.292 3.878 1.88 5.758.588 1.88 1.175 3.878 1.645 5.876.47 1.997 1.058 3.878 1.528 5.875v.118h-.118l-.94-.118z" fill="#263238"/><path d="M132.785 192.717c.235.94.353 1.88.47 2.938 0 .94 0 1.997-.117 2.937-.235-.94-.353-1.88-.47-2.937-.118-.941-.118-1.881.117-2.938z" fill="#263238"/><path d="M184.256 264.398c-1.175-1.527-.352-2.115 2.938-1.292 3.29.94 15.512 7.403 17.509 2.937 1.88-4.465-15.511-13.278-21.152-14.453-5.64-1.175-15.041-.94-15.041-.94 3.055 2.35 9.871 8.93 15.746 13.748z" fill="#774442"/><path d="M153.351 274.857c8.813 7.873 19.389 15.041 31.727 16.216 2.468.235 3.878-.822 3.878-.822 5.523.705 7.403-1.763 7.403-1.763 5.288-.94 6.933-3.643 6.933-3.643s4.466 0 4.701-3.173c.235-3.055-6.933-5.523-11.986-8.695-11.634-7.286-24.442-19.977-27.615-22.445l-15.041 24.325z" fill="#774442"/><path d="M180.143 274.974c3.525 2.116 6.816 4.231 10.576 5.876 4.113 1.763 8.343 2.82 12.574 3.878.117 0 .117.235 0 .235-8.109-.823-16.922-4.701-23.267-9.871-.118-.118-.118-.235.117-.118zm-5.405 6.346c3.525 1.88 9.636 5.052 21.739 7.05v.118c-7.99-.235-15.159-2.703-21.857-6.933-.235-.235-.117-.353.118-.235zm-2.939 3.526c5.993 2.937 10.224 3.995 17.157 5.405v.117c-7.991-.822-10.811-1.997-17.274-5.287-.235-.118-.118-.353.117-.235z" fill="#263238"/><path d="M215.513 141.953c4.466-2.115 9.871-7.403 13.514-7.873 3.29-.353 4.465 2.35 4.465 2.35s1.763-3.643 5.171-3.525c1.762.117 3.173 2.937 3.173 2.937s1.527-2.82 4.465-2.585c2.35.235 3.408 3.055 3.408 3.055s2.702-1.997 5.053-1.057c4.7 2.115 4.818 22.444-2.703 25.617-3.525 1.528-3.29-3.525-3.29-3.525s-2.116 7.05-6.346 7.168c-4.23.117-3.525-6.346-3.525-6.346s-2.115 6.816-6.463 6.581c-4.583-.353-2.703-6.698-2.703-6.698s-3.055 4.583-6.346 3.525c-5.405-1.645 1.411-10.223.235-14.806l-7.403-2.468-.705-2.35z" fill="#774442"/><path d="M221.859 137.723c-4.348 1.645-9.753-3.76-14.101-2.82-5.993 1.292-.118 7.99 8.578 9.4h6.933l-1.41-6.58z" fill="#774442"/><path d="M249.827 136.665c0-.117.117-.117 0 0 1.763 6.698 1.528 14.572-1.058 21.035-.117.235-.47.117-.47-.118 1.41-7.168 2.116-13.631 1.528-20.917zm-8.109-1.057c0-.118.117-.118.117 0 1.645 6.933 1.175 15.746-2.702 22.797-.118.235-.47.352-.353 0 2.233-4.818 3.525-16.217 2.938-22.797zm-12.338 22.914c3.408-6.933 4.348-14.219 4.113-21.974 0-.118.117-.118.117 0 1.058 3.76.705 8.578.118 12.456-.588 3.642-1.88 6.815-4.113 9.636-.117.117-.352-.001-.235-.118z" fill="#263238"/></svg>