<svg width="431" height="429" fill="none" xmlns="http://www.w3.org/2000/svg"><g clip-path="url(#clip0_2_10038)"><path d="M274.792 190.348h144.1V.048h-144.1v190.3z" fill="#FE9563"/><path d="M349.746 92.315h62.4v-84.7h-62.4v84.7zm-68.207 0h62.4v-84.7h-62.4v84.7zm68.207 90.366h62.4v-84.7h-62.4v84.7zm-68.207 0h62.4v-84.7h-62.4v84.7z" fill="#fff"/><path d="M322.9 0h-48.1v272.3h27.9l-19.5-138.5L322.9 0z" fill="#FE9563"/><path d="M314.6 7.4L307 39l-7.8 31.6-15.5 63.3v-.2l7.2 66.1 3.6 33 3.4 33.1-3.9-33-3.8-33-7.5-66.1v-.2l15.9-63.1 7.9-31.6 8.1-31.5zm-36.9 5.5l.2 27.4.2 27.3.1 54.6-.1 54.6-.2 27.3-.2 27.3-.3-27.3-.1-27.3-.1-54.6.1-54.6.1-27.3.3-27.4z" fill="#EBEBEB"/><path d="M286.7 18.1l-1.5 29-1.6 29-3.3 58.1v-.1l1.6 64.7.7 32.3.6 32.4-1.1-32.4-1-32.3-1.7-64.7 3.5-58 1.8-29 2-29z" fill="#EBEBEB"/><path d="M292.9 259.3l-3.2-31.3-3.1-31.3c-2-20.9-4-41.8-5.9-62.7v-.2l8.9-48.8 4.5-24.4 4.6-24.4-4.2 24.4-4.3 24.4-8.7 48.8v-.1c2 20.9 3.8 41.8 5.8 62.7l2.8 31.4 2.8 31.5z" fill="#EBEBEB"/><path d="M274.793 137.784h10.9v-6.3h-10.9v6.3z" fill="#DBDBDB"/><path d="M370.6 0h48.2v272.3h-27.9l19.5-138.5L370.6 0z" fill="#FE9563"/><path d="M379 7.4l8.1 31.5 7.9 31.6 15.8 63.1.1.1-.1.1-7.5 66.1-3.7 33-3.9 33 3.4-33.1 3.6-33 7.2-66.1v.2l-15.6-63.3-7.7-31.6L379 7.4zm36.9 5.5l.2 27.4.2 27.3.1 54.6-.1 54.6-.2 27.3-.2 27.3-.2-27.3-.2-27.3-.1-54.6.1-54.6.2-27.3.2-27.4z" fill="#EBEBEB"/><path d="M406.9 18.1l1.9 29 1.9 29 3.5 58-1.8 64.7-.9 32.3-1.1 32.4.5-32.4.7-32.3 1.6-64.7v.1L410 76.1l-1.6-29-1.5-29z" fill="#EBEBEB"/><path d="M400.6 259.3l2.6-31.4 2.8-31.4c1.9-20.9 3.8-41.8 5.8-62.7v.1l-8.7-48.8-4.3-24.4-4.2-24.4 4.6 24.4 4.5 24.4 8.9 48.8v.2c-1.9 20.9-3.9 41.8-5.9 62.7l-3.1 31.3-3 31.2z" fill="#EBEBEB"/><path d="M418.8 131.5h-10.9v6.3h10.9v-6.3z" fill="#FFE0D1"/><path d="M8.9 328.4h186.4l3.9-76.5H5l3.9 76.5z" fill="#999"/><path d="M186.5 286.9h-77.9l-1.5-26.5h81.1l-1.7 26.5zm-77.1-1h76.1l1.6-24.7H108l1.4 24.7zm75.6 31.5h-73.4l-1.2-24h76.1l-1.5 24zm-72.5-.9h71.6l1.4-22.1h-74.1l1.1 22.1z" fill="#DBDBDB"/><path d="M155 276.5h-13.1l-.8-6.4h14.7l-.8 6.4zm-12.3-1h11.4l.6-4.5h-12.6l.6 4.5zm12.3 33.1h-13.1l-.8-6.4h14.7l-.8 6.4zm-12.3-.9h11.4l.6-4.5h-12.6l.6 4.5zm-47.9-20.8H16.9l-1.5-26.5h81.1l-1.7 26.5zm-77-1h76.1l1.6-24.7H16.4l1.4 24.7zm75.6 31.5H19.9l-1.2-24h76.1l-1.4 24zm-72.6-.9h71.6l1.4-22.1H19.7l1.1 22.1z" fill="#DBDBDB"/><path d="M63.3 276.5h-13l-.8-6.4h14.7l-.9 6.4zm-12.2-1h11.4l.6-4.5H50.5l.6 4.5zm12.2 33.1h-13l-.8-6.4h14.7l-.9 6.4zm-12.2-.9h11.4l.6-4.5H50.5l.6 4.5z" fill="#DBDBDB"/><path d="M25.6 328.4l-1.1 8.3-2.4 16.7h-4.6v-25h8.1z" fill="#999"/><path d="M25.6 328.4l-1.1 8.3h-7v-8.3h8.1z" fill="#868484"/><path d="M178.6 328.4l1.1 8.3 2.4 16.7h4.6v-25h-8.1z" fill="#EBEBEB"/><path d="M178.6 328.4l1.1 8.3h7v-8.3h-8.1z" fill="#DBDBDB"/><path d="M78.1 18.4H21.6v68.5h56.5V18.4z" fill="#FE9563"/><path d="M71.6 24.6H28v56h43.6v-56z" fill="#fff"/><path d="M29.7 24.6H28v56h1.7v-56zm50-6.2H78v68.5h1.7V18.4z" fill="#FFD2BD"/><path d="M52.9 32.3H42.6v30.6h10.3V32.3z" fill="#FE9563"/><path d="M65.5 53.2H38.1v15h27.4v-15z" stroke="#FE9563" stroke-miterlimit="10"/><path d="M130 103.5H73.5V172H130v-68.5z" fill="#FE9563"/><path d="M123.6 109.7H80v56h43.6v-56z" fill="#fff"/><path d="M81.7 109.7H80v56h1.7v-56z" fill="#FFD2BD"/><path d="M131.7 103.5H130V172h1.7v-68.5z" fill="#DBDBDB"/><path d="M106.4 124.2h-8.8v22.2h8.8v-22.2z" fill="#FE9563"/><path d="M115.6 137.7H92V153h23.6v-15.3z" stroke="#FE9563" stroke-miterlimit="10"/><path d="M215.1 390.1c80.634 0 146-6.761 146-15.1 0-8.34-65.366-15.1-146-15.1s-146 6.76-146 15.1c0 8.339 65.366 15.1 146 15.1z" fill="#E3D7C3"/><path d="M290.1 423.2c70.306 0 127.3-10.208 127.3-22.8s-56.994-22.8-127.3-22.8-127.3 10.208-127.3 22.8 56.994 22.8 127.3 22.8z" fill="#E3D7C3"/><path d="M0 353l53.8-.2 53.8-.1 107.5-.2 107.6.2 53.8.1 53.8.2-53.8.3-53.8.1-107.6.1-107.5-.1-53.8-.1L0 353z" fill="#263238"/><path d="M49.6 277.2c6.3-13.1 17.5-19.8 30-16 12.5 3.7 14.5 21.2 5.1 25.6-9.3 4.4-18.7-8.5-23.6-11.1-4.9-2.7-11.5 1.5-11.5 1.5z" fill="#FE9563"/><path d="M43.5 311.9c0-1.6.1-3.1.1-4.7.1-3.1.2-6.3.3-9.4.2-5.7.8-11.4 3.2-16.7 2.1-4.7 5.6-8.9 10.1-11.6 1.7-1 3.5-1.8 5.3-2.3 1.5-1.7 4-2.9 6.2-3.4 2.9-.7 5.9-.5 8.8-.2.1 0 .1.2 0 .2-2.8-.3-5.6-.2-8.3.6-1.2.3-2.3.7-3.4 1.3-.7.4-1.3.8-1.9 1.2 2.5-.5 5.1-.5 7.7.1.9.2 1.8.5 2.7.9.7-.2 1.4-.2 2.1-.2.9 0 1.8.2 2.7.4 1.8.5 3.5 1.3 5.2 2.3.1.1 0 .2-.1.1-1.6-.9-3.3-1.5-5-1.9-.9-.2-1.7-.3-2.6-.4h-1.4c3.5 1.7 6.5 4.5 8.1 8.1 0 .1-.1.2-.1.1-1.9-4.2-5.9-7.1-10.3-8.3-.3-.1-.6-.1-.8-.2.1.4.1.9.1 1.3.1.6.2 1.3.3 1.9.3 1.3.6 2.6 1 3.8.4 1.3.9 2.5 1.5 3.7.6 1.2 1.2 2.5 2.1 3.6.1.1-.1.2-.1.1-.8-1.2-1.6-2.3-2.3-3.5-.7-1.2-1.2-2.4-1.7-3.6-.5-1.3-.9-2.6-1.1-3.9l-.3-2.1c0-.4-.1-.9-.1-1.3-1.5-.2-3-.2-4.4-.1.6 3.1 1.2 6.4 2.9 9.1.1.1-.1.2-.1.1-.8-1.5-1.6-2.9-2.2-4.5-.5-1.5-1-3.1-1.1-4.6-2.6.3-5.1 1.2-7.4 2.5-4.3 2.4-7.6 6.3-9.8 10.7-2.4 4.8-3.3 10-3.6 15.3-.4 6.7-.5 13.4-1.2 20 0 .4-.7.6-.8.1-.5-1.6-.3-3.1-.3-4.6zm14.7-43.4c.4-.5 1-.9 1.4-1.3.5-.4 1.1-.8 1.6-1.2 1.1-.8 2.3-1.3 3.6-1.7.1 0 .1.1 0 .2-1.3.3-2.5 1-3.6 1.7l-1.5 1.2c-.5.4-.9.9-1.5 1.2 0 .1-.1-.1 0-.1z" fill="#263238"/><path d="M78.4 273.2c1 1.2 2.1 2.5 2.9 3.9.9 1.4 1.6 2.8 2.2 4.3 0 0-.1.1-.1 0-1.5-2.8-3.1-5.6-5.1-8.1-.1-.1.1-.2.1-.1zm-13.6-1.3c.1.8.4 1.6.7 2.4.3.7.8 1.4 1.2 2.1 0 0 0 .1-.1.1-1.1-1.2-1.8-2.9-2-4.5 0-.2.2-.2.2-.1z" fill="#263238"/><path d="M44.4 277.5s-9-11.3-26.3-7.3c-16.5 3.8-24.1 34-7.4 37.7 16.7 3.6 13.7-24.4 19.8-29.1 4.4-3.5 10.8-2.8 13.9-1.3z" fill="#FE9563"/><path d="M4.6 286.7c1.1-1 2.3-1.9 3.6-2.7 1.2-.8 2.5-1.5 3.8-1.9.7-1 1.4-2 2.3-2.9 1.5-1.7 3.3-3.1 5.2-4.2h-3.3c-1.9.1-3.7.6-5.4 1.3-.1 0-.2-.1-.1-.1 1.7-.7 3.5-1.3 5.3-1.6.9-.2 1.8-.2 2.7-.2.5 0 1 0 1.5.1h.3c1.6-.8 3.3-1.4 5-1.8-.2 0-.3-.1-.5-.1-.8-.2-1.7-.3-2.6-.4-1.7-.2-3.5-.2-5.2.1-.1 0-.1-.1 0-.2 1.7-.2 3.5-.3 5.2-.2 1.4.1 2.9.2 4.4.6 1-.2 2.1-.3 3.2-.4 6-.3 12.6 2 16.4 7 3.7 5 4.5 11.6 5.1 17.6.9 8.4 1.3 16.8.7 25.2 0 .5-.7.4-.8-.1-.2-7.1-.5-14.3-1.2-21.4a167 167 0 00-1.2-9.9c-.5-2.8-1.1-5.6-2.4-8.1-1.3-2.7-3.3-4.8-5.9-6.3-2.5-1.5-5.4-2.3-8.3-2.6-2.6-.2-5.3 0-7.8.7.1.5.1 1 0 1.5-.1.6-.2 1.3-.4 1.9-.2.6-.4 1.1-.7 1.7-.3.6-.7 1.1-1.1 1.7-.1.1-.2 0-.1-.1.7-.9 1.1-2.3 1.3-3.4.1-.6.2-1.2.2-1.8v-1.3c-2.7.8-5.3 2.2-7.6 4-.4.3-.8.7-1.2 1.1.6.5 1.1 1.2 1.5 1.8.6.9 1.1 1.8 1.5 2.7.8 1.9 1.3 4 1.6 6 0 .1-.1.1-.2 0-.3-2-1-3.9-2-5.7-.5-.9-1-1.7-1.5-2.5l-.9-1.2c-.2-.2-.4-.4-.5-.7-2 2-3.7 4.3-4.9 6.9.9.8 1.5 1.9 2 2.9.6 1.1 1.2 2.3 1.6 3.5.9 2.3 1.5 4.7 2.1 7.1 0 .1-.1.1-.2 0-.5-2.4-1.4-4.7-2.5-7-.5-1.1-1.1-2.2-1.6-3.2s-1.2-2-1.6-3c-1.1 2.5-1.8 5.3-2 8 0 .1-.2.1-.2 0 .3-4.3 1.6-8.6 3.9-12.3-1.1.5-2.1.9-3.1 1.4-1.3.7-2.5 1.5-3.6 2.5.3.2.2.1.2 0z" fill="#263238"/><path d="M17.4 287.4c.5 1.7 1.2 3.4 1.6 5.1.5 1.7.8 3.4.8 5.1h-.1c-.5-3.4-1.3-6.9-2.5-10.2 0-.1.1-.1.2 0zm-11-4.3c.7-.7 1.4-1.2 2.3-1.6.8-.4 1.8-.7 2.7-.9.1 0 .1.1 0 .2-.9.2-1.7.6-2.6 1.1-.8.3-1.6.8-2.4 1.2-.1.1 0 .1 0 0z" fill="#263238"/><path d="M35.8 262.4s-1.7-20.3-16.8-26.9C6.5 230-.7 244.2 8.2 252.9c7.2 7 18.7 3.8 27.6 9.5z" fill="#FE9563"/><path d="M11 239.5c2.3 1 4.6 1.9 6.7 3.2 1.8 1 3.5 2.2 5.2 3.5-.3-.5-.5-1.1-.7-1.6-.4-.8-.8-1.6-1.3-2.3-1-1.5-2-3-3.3-4.2-.1-.1 0-.2.1-.1 1.2 1.3 2.5 2.6 3.5 4.1.5.7 1 1.5 1.4 2.3.4.7.8 1.5 1 2.3.1 0 .1.1.2.1 2.6 2.1 5 4.5 7.2 7.1 0-.2-.1-.4-.1-.6-.3-1-.6-2-.9-2.9-.7-2.1-1.5-4.1-2.7-5.9-.1-.1.1-.2.1-.1 1.1 1.9 2.3 3.7 3.2 5.8.4 1 .8 2 1 3 .2.6.4 1.3.5 2 .7.8 1.3 1.7 1.9 2.5 6.5 9.2 9.7 20.4 10.5 31.5.2 3.3.3 6.7.2 10-.1 3.3-.2 6.8-.9 10 0 .2-.4.1-.4-.1.1-2.9.4-5.9.4-8.8.1-2.9 0-5.9-.3-8.8-.5-5.8-1.6-11.7-3.3-17.3-1.7-5.7-4.3-11.2-7.7-16.2-.6-.1-1.3-.3-1.9-.5-.8-.2-1.5-.4-2.3-.6-1.4-.4-2.9-.9-4.2-1.5-.1 0 0-.2.1-.1 1.3.8 2.8 1.2 4.3 1.5 1.2.2 2.4.4 3.6.7-1.1-1.6-2.3-3.1-3.5-4.6-2.9.3-5.8 0-8.6-.6-1.5-.4-3-.8-4.4-1.4-1.5-.6-2.9-1.3-4.4-2-.1 0 0-.2.1-.1 2.6 1.6 5.8 2.4 8.7 2.8 2.7.5 5.4.6 8.1.7-1.1-1.2-2.2-2.4-3.4-3.6-4-3.8-8.7-7.2-13.9-9.1 0 0 .1-.2.2-.1z" fill="#263238"/><path d="M23.2 239.5c.7.9 1.3 1.8 1.9 2.7.6 1 1 2 1.3 3.1 0 0 0 .1-.1 0-.5-1-.9-2-1.4-3-.5-1-1.1-1.9-1.8-2.7l.1-.1zm-14 6.8c1 .6 2 .9 3.1 1.3 1 .3 2.1.6 3.2.8v.1c-1.1-.1-2.2-.3-3.3-.7-1.1-.4-2.1-.9-3.1-1.4-.1 0 0-.2.1-.1z" fill="#263238"/><path d="M47.6 258.8c.1.9 2.3-7.4 15-14.7 11.6-6.6 25.4-23.9 14.1-34.9-9.2-8.8-33.4 10.4-29.1 49.6z" fill="#FE9563"/><path d="M38.8 306c.2-8.6.9-17.2 2-25.7 1.1-7.8 2.8-15.5 5.4-23 1-2.7 2-5.3 3.2-7.9-.1-1 0-2.1.1-3l.3-3.9c.1-1.3.3-2.6.4-3.9.2-1.3.4-2.6.5-3.9 0-.1.2-.1.2 0-.3 1.3-.4 2.8-.5 4.1-.1 1.3-.2 2.5-.2 3.8v5.2c1.2-2.5 2.5-5 3.9-7.5-.9-5.3.3-10.8 1.3-16 0-.1.2-.1.2 0-.6 2.7-.8 5.5-.8 8.2 0 2.2.1 4.3.1 6.5.3-.5.6-1 .9-1.6 1.7-2.7 3.4-5.4 5.3-7.9-.2-1.2-.1-2.5.1-3.8.2-1.4.5-2.8.9-4.1.4-1.4.9-2.7 1.4-4 .6-1.3 1.3-2.6 1.8-4 0-.1.2 0 .2.1-.7 1.2-1.2 2.7-1.6 4-.4 1.3-.8 2.6-1 4-.3 1.3-.5 2.7-.7 4-.1.9-.2 1.8-.4 2.7 2.7-3.7 5.7-7.2 8.9-10.4.1-.1.2 0 .1.1-4.8 5.5-9.2 11.3-13 17.6-.1.2-.3.5-.4.7.7-.4 1.5-.8 2.2-1.2 1.2-.7 2.5-1.4 3.7-2 1.2-.7 2.4-1.3 3.6-2 .6-.3 1.2-.7 1.9-1 .7-.4 1.5-.7 2.2-1.2.1-.1.2.1.1.1-1.2.7-2.3 1.7-3.5 2.4-1.2.8-2.4 1.5-3.6 2.2-2.3 1.3-4.7 2.2-7 3.5-1.6 2.7-3 5.5-4.3 8.3 1.4-.9 2.7-1.7 4.1-2.5l2.7-1.5c.9-.5 1.8-.9 2.6-1.6.1-.1.2 0 .1.1-1.4 1.4-3.2 2.4-4.9 3.4-1.6 1-3.3 1.9-5 2.7-1.4 3-2.6 6-3.7 9.1-5.4 15.2-7.3 31.4-8.3 47.4-.3 4.8-.4 9.6-.5 14.3-.1 4.8.2 9.6.2 14.3 0 .1-.2.2-.3 0-.6-4.2-.7-8.5-.9-12.8-.1-3.6-.1-8 0-12.4z" fill="#263238"/><path d="M62 237.2c2.3-1 4.6-2.3 6.8-3.5 2.2-1.3 4.4-2.6 6.4-4.1 0 0 .1 0 0 .1-2 1.6-4 3-6.2 4.3-2.2 1.3-4.6 2.3-7 3.4-.1 0-.1-.2 0-.2zM58.3 220c.2-.7.4-1.5.7-2.2v-.1c.2-.4.3-.8.5-1.2 0-.1 0-.1.1-.1 0-.1.1-.2.1-.2s.1 0 0 0c0 .1-.1.3-.1.4 0 .1 0 .2-.1.2-.9 2.8-1.4 5.7-1.9 8.7 0 .1-.2.1-.1 0 0-1.9.3-3.7.8-5.5z" fill="#263238"/><path d="M25.3 309.1l.9 10.8 2.8 32.9h29.9l2.7-32.9.9-10.8H25.3z" fill="#455A64"/><path d="M25.3 309.1l.9 10.8h35.4l.9-10.8H25.3z" fill="#263238"/><path d="M22.349 315.158h43.1v-10.4h-43.1v10.4z" fill="#455A64"/><path d="M290.9 26H139.3c-8.5 0-15.3 7-15.3 15.6v312.1c0 8.6 6.9 15.6 15.3 15.6h151.6c8.5 0 15.4-7 15.4-15.6v-312c0-8.7-6.9-15.7-15.4-15.7zm5.8 318.1c0 8.2-6.2 14.9-13.7 14.9H147.3c-7.6 0-13.8-6.6-13.8-14.9V53.5c0-16.7 6.2-17.5 13.8-17.5h27.2c1.6 0 2.9 1.8 2.9 4v1c0 5.2 2.9 5.2 6.4 5.2h62.8c3.5 0 6.4 0 6.4-5.2v-1c0-2.2 1.3-4 2.9-4H283c7.6 0 13.7 2.2 13.7 17.5v290.6z" fill="#263238"/><path d="M223.7 39.6h-17.1c-.6 0-1.1-.5-1.1-1.1 0-.6.5-1.1 1.1-1.1h17.1c.6 0 1.1.5 1.1 1.1 0 .7-.5 1.1-1.1 1.1z" fill="#fff"/><path d="M296.7 53.5v290.6c0 8.2-6.2 14.9-13.7 14.9H147.3c-7.6 0-13.8-6.6-13.8-14.9V53.5c0-16.7 6.2-17.5 13.8-17.5h27.2c1.6 0 2.9 1.8 2.9 4v1c0 5.2 2.9 5.2 6.4 5.2h62.8c3.5 0 6.4 0 6.4-5.2v-1c0-2.2 1.3-4 2.9-4H283c7.6-.1 13.7 2.2 13.7 17.5z" fill="#fff"/><path d="M169.8 42.5l-.3.3-.1.1c-.7-.7-1.5-1-2.5-1s-1.8.4-2.5 1.1l-.1-.1-.3-.3.3-.3c.2-.2.5-.4.8-.5.3-.2.7-.3 1-.3.2 0 .3 0 .5-.1h.7c.3 0 .6.1.9.2l.6.3c.2.1.4.3.6.4.2 0 .3.1.4.2z" fill="#FE9563"/><path d="M165.2 43.7l-.4-.4c.5-.5 1-.8 1.7-.8 1-.1 1.8.2 2.5.8l-.4.4c-.5-.5-1-.7-1.7-.7s-1.3.2-1.7.7z" fill="#FE9563"/><path d="M168.2 44.1l-.4.4c-.2-.2-.5-.4-.9-.4-.3 0-.6.1-.9.4l-.4-.4c.6-.7 1.8-.7 2.6 0zm-1 .8c0 .2-.2.4-.4.4s-.4-.2-.4-.4.2-.4.4-.4c.3 0 .4.2.4.4zm-21.9-.5a1.1 1.1 0 100-2.2 1.1 1.1 0 000 2.2zm2.3-1.1c0-.6.5-1.1 1.1-1.1.6 0 1.1.5 1.1 1.1 0 .6-.5 1.1-1.1 1.1-.6-.1-1.1-.5-1.1-1.1zm4.5 1.1a1.1 1.1 0 100-2.2 1.1 1.1 0 000 2.2zm2.3-1.1c0-.6.5-1.1 1.1-1.1.6 0 1.1.5 1.1 1.1 0 .6-.5 1.1-1.1 1.1-.6-.1-1.1-.5-1.1-1.1zm3.4 0c0-.6.5-1.1 1.1-1.1.6 0 1.1.5 1.1 1.1 0 .6-.5 1.1-1.1 1.1-.6-.1-1.1-.5-1.1-1.1z" fill="#FE9563"/><path d="M284.3 41.8h-8.4v3.6h8.4v-3.6z" fill="#FE9563" stroke="#fff" stroke-width=".5" stroke-miterlimit="10"/><path d="M282.1 42.2h-5.7v2.7h5.7v-2.7zm3.2.3h-.8v2.2h.8v-2.2z" fill="#FE9563"/><path d="M249.3 350H181c-.9 0-1.5.7-1.5 1.5 0 .9.7 1.5 1.5 1.5h68.3c.9 0 1.5-.7 1.5-1.5 0-.9-.7-1.5-1.5-1.5z" fill="#A6A6A6"/><path d="M225.954 190.34c5.975-5.975 5.975-15.663 0-21.638-5.975-5.975-15.663-5.975-21.638 0-5.975 5.975-5.975 15.663 0 21.638 5.975 5.975 15.663 5.975 21.638 0z" fill="#FE9563"/><path d="M210.9 171.8c-.8 0-1.5.7-1.5 1.5s.7 1.5 1.5 1.5 1.5-.7 1.5-1.5-.7-1.5-1.5-1.5zm4.2 0c-.8 0-1.5.7-1.5 1.5s.7 1.5 1.5 1.5 1.5-.7 1.5-1.5-.6-1.5-1.5-1.5zm4.3 2.9c.8 0 1.5-.7 1.5-1.5s-.7-1.5-1.5-1.5-1.5.7-1.5 1.5.7 1.5 1.5 1.5zm-8.5 1.2c-.8 0-1.5.7-1.5 1.5s.7 1.5 1.5 1.5 1.5-.7 1.5-1.5-.7-1.5-1.5-1.5zm4.2 0c-.8 0-1.5.7-1.5 1.5s.7 1.5 1.5 1.5 1.5-.7 1.5-1.5-.6-1.5-1.5-1.5zm4.3 0c-.8 0-1.5.7-1.5 1.5s.7 1.5 1.5 1.5 1.5-.7 1.5-1.5-.7-1.5-1.5-1.5zm-8.5 4.2c-.8 0-1.5.7-1.5 1.5s.7 1.5 1.5 1.5 1.5-.7 1.5-1.5c0-.9-.7-1.5-1.5-1.5zm4.2 0c-.8 0-1.5.7-1.5 1.5s.7 1.5 1.5 1.5 1.5-.7 1.5-1.5c0-.9-.6-1.5-1.5-1.5zm4.3 0c-.8 0-1.5.7-1.5 1.5s.7 1.5 1.5 1.5 1.5-.7 1.5-1.5c0-.9-.7-1.5-1.5-1.5zm-4.3 4.1c-.8 0-1.5.7-1.5 1.5s.7 1.5 1.5 1.5 1.5-.7 1.5-1.5-.6-1.5-1.5-1.5z" fill="#fff"/><path d="M258.5 239.4c8.45 0 15.3-6.85 15.3-15.3 0-8.45-6.85-15.3-15.3-15.3-8.45 0-15.3 6.85-15.3 15.3 0 8.45 6.85 15.3 15.3 15.3z" fill="#FE9563"/><path d="M261.8 219.7c0 1.8-1.5 3.3-3.3 3.3-1.8 0-3.3-1.5-3.3-3.3 0-1.8 1.5-3.3 3.3-3.3 1.9 0 3.3 1.5 3.3 3.3zm2.4 9.101v1.4c-.9.6-2 1-3.1 1.3-2.9.7-5.9.2-8.3-1.3v-1.4c0-3.1 2.5-5.7 5.7-5.7s5.7 2.6 5.7 5.7z" fill="#fff"/><path d="M182.555 190.343c5.975-5.975 5.975-15.662 0-21.637s-15.662-5.975-21.637 0-5.975 15.662 0 21.637 15.662 5.975 21.637 0z" fill="#FE9563"/><path d="M171.8 188c-.2 0-.3-.2-.3-.3v-4.1c0-.2.2-.3.3-.3.2 0 .3.2.3.3v4.1c0 .2-.1.3-.3.3z" fill="#fff"/><path d="M174 188h-4.5c-.2 0-.3-.2-.3-.3 0-.2.2-.3.3-.3h4.5c.2 0 .3.2.3.3 0 .2-.1.3-.3.3zm.6-14.2v5.9c0 1.6-1.3 2.9-2.9 2.9-1.1 0-2.1-.7-2.6-1.6-.2-.4-.3-.8-.3-1.3v-5.9c0-1.6 1.3-2.9 2.9-2.9.8 0 1.5.3 2 .8s.8 1.2.8 1.9c.1.1.1.1.1.2z" fill="#fff"/><path d="M171.7 183.9c-1.1 0-2.1-.4-2.9-1.2-.8-.8-1.3-1.9-1.3-3v-2.5c0-.2.2-.3.3-.3.2 0 .3.2.3.3v2.5c0 1 .4 1.9 1.1 2.5.7.7 1.6 1 2.6 1 1.8-.1 3.3-1.7 3.3-3.6v-2.4c0-.2.2-.3.3-.3.2 0 .3.2.3.3v2.4c0 2.3-1.8 4.2-4 4.3.2 0 .1 0 0 0z" fill="#fff"/><path d="M215.1 239.4c8.45 0 15.3-6.85 15.3-15.3 0-8.45-6.85-15.3-15.3-15.3-8.45 0-15.3 6.85-15.3 15.3 0 8.45 6.85 15.3 15.3 15.3z" fill="#FE9563"/><path d="M224.1 222.1v3.9c0 .7-.7 1.2-1.3 1l-1.7-.4-.9-.2v-4.6l2.3-.6.3-.1c.6-.2 1.3.3 1.3 1zm-4.9-.8v5.6c0 1.1-.9 2-2 2h-6.7c-1.1 0-2-.9-2-2v-5.6c0-1.1.9-2 2-2h6.7c1.1 0 2 .9 2 2z" fill="#fff"/><path d="M171.7 239.4c8.45 0 15.3-6.85 15.3-15.3 0-8.45-6.85-15.3-15.3-15.3-8.45 0-15.3 6.85-15.3 15.3 0 8.45 6.85 15.3 15.3 15.3z" fill="#FE9563"/><path d="M177.6 223.2h-4.9v-4.9c0-.5-.4-.9-.9-.9s-.9.4-.9.9v4.9H166c-.5 0-.9.4-.9.9s.4.9.9.9h4.9v4.9c0 .5.4.9.9.9s.9-.4.9-.9V225h4.9c.5 0 .9-.4.9-.9s-.4-.9-.9-.9z" fill="#fff"/><path d="M269.352 190.336c5.975-5.975 5.975-15.662 0-21.637s-15.663-5.975-21.638 0c-5.975 5.975-5.975 15.662 0 21.637s15.663 5.975 21.638 0z" fill="#FE9563"/><path d="M266.1 178.8c0-.4-.1-.7-.1-1.1-.1-.7-.4-1.5-.7-2.1-.3-.6-.6-1.1-1-1.6-.2-.2-.4-.5-.6-.7l-.5.5-.3.3c1.4 1.5 2.2 3.2 2.2 5.3 0 2.1-.8 3.8-2.2 5.3l.3.3.5.5c.2-.2.4-.4.5-.6.3-.4.6-.8.9-1.3.2-.4.5-.9.6-1.3.2-.6.4-1.3.5-2 0-.2 0-.5.1-.7-.2.1-.2-.7-.2-.8z" fill="#fff"/><path d="M263.6 178.5c-.2-1.4-.8-2.5-1.8-3.5l-.9.9c1 1 1.5 2.2 1.5 3.6s-.5 2.6-1.5 3.5l.9.9c1.5-1.6 2.1-3.3 1.8-5.4z" fill="#fff"/><path d="M260.1 176.7l-.9.9c.5.5.8 1.1.8 1.8s-.3 1.3-.8 1.8l.9.9c1.6-1.5 1.5-4 0-5.4zm-6.7.3h-2.5v4.9h2.5V177zm.1 0l4.7-2v8.9l-4.7-2V177z" fill="#fff"/><path d="M215.1 316.2c9.996 0 18.1-8.104 18.1-18.1 0-9.996-8.104-18.1-18.1-18.1-9.996 0-18.1 8.104-18.1 18.1 0 9.996 8.104 18.1 18.1 18.1z" fill="#FE9563"/><path d="M225.4 298.2l-.3-.9c-.1-.3-.3-.5-.5-.8l-.7-.7c-.3-.2-.5-.4-.8-.6-1.1-.7-2.3-1.1-3.6-1.4-3-.6-6-.6-8.9 0-1.3.3-2.5.7-3.6 1.4-.3.2-.5.4-.8.6l-.7.7c-.1.2-.2.3-.3.5-.2.4-.4.7-.4 1.2h5.8c.1 0 .1-.1.2-.1.4-.7.9-1 1.7-1.1 1.7-.1 3.4-.1 5.1 0 .8 0 1.3.4 1.7 1.1.1.1.1.1.2.1h5.9zm-20.5 1.2v2.1c0 .5.2.7.7.7h4.3c.5 0 .7-.2.7-.7v-2.1h-5.7zm20.5-.1h-5.7c0 .7 0 1.4-.1 2.2 0 .4.3.7.7.7h4.4c.5 0 .7-.2.7-.7v-2.2z" fill="#fff"/><path d="M194.9 137.1c0-2.3 1.9-4.2 4.3-4.2 1 0 2 .3 2.7.9.3.2.3.6.1.9-.2.3-.7.3-.9.1-.5-.4-1.2-.6-1.9-.6-.8 0-1.5.3-2.1.8-.5.5-.9 1.2-.9 2s.3 1.5.9 2c.5.5 1.3.8 2.1.8.7 0 1.4-.2 1.9-.6.3-.2.7-.2.9.1.2.3.2.7-.1.9-.7.6-1.7.9-2.7.9-2.4.2-4.3-1.7-4.3-4zm10.5 3.5c0 .4-.3.6-.7.6-.3 0-.5-.2-.6-.5v-7.1c0-.4.3-.6.6-.6.4 0 .7.3.7.6v2c.4-.2.8-.3 1.2-.3 1.4 0 2.5 1.2 2.5 2.6v2.6c0 .4-.3.6-.6.6-.4 0-.6-.3-.6-.6V138c0-.7-.6-1.2-1.3-1.3-.7 0-1.2.6-1.2 1.3v2.6zm11.2-2.2v2.3c0 .3-.3.6-.6.6s-.5-.2-.6-.5c-.4.3-1 .5-1.5.5-.8 0-1.5-.3-2-.9-.5-.5-.8-1.3-.8-2.1s.3-1.5.8-2.1c.5-.5 1.2-.9 2-.9.6 0 1.1.2 1.5.5.1-.3.3-.5.6-.5s.6.3.6.6v2.5zm-1.2 0c0-.5-.2-.9-.5-1.2-.3-.3-.7-.5-1.1-.5-.4 0-.8.2-1.1.5-.3.3-.4.7-.4 1.2s.2.9.4 1.2c.3.3.7.5 1.1.5.4 0 .8-.2 1.1-.5.3-.3.5-.8.5-1.2zm7.1-2.3c0 .3-.3.6-.6.6s-.5.1-.7.2c-.2.1-.4.3-.5.6-.3.4-.4.8-.5 1v2.2c0 .3-.3.6-.6.6s-.6-.3-.6-.6v-4.6c0-.3.3-.6.6-.6s.6.3.6.6v.1l.2-.2c.4-.3.9-.5 1.5-.5.3-.1.6.2.6.6zm2.2-3c.4 0 .7.3.7.6v6.9c0 .3-.3.6-.7.6-.3 0-.6-.3-.6-.6v-6.9c0-.3.3-.6.6-.6zm3.5.9c0 .3-.3.6-.6.6s-.6-.3-.6-.6v-.2c0-.3.3-.6.6-.6.4 0 .6.3.6.6v.2zm0 2.1v4.5c0 .3-.3.6-.6.6s-.6-.3-.6-.6v-4.5c0-.4.3-.6.6-.6.3-.1.6.2.6.6zm1.6 2.2c0-1.6 1.2-2.9 2.8-2.9 1.5 0 2.7 1.1 2.8 2.7v.2c0 .3-.3.5-.6.5h-3.7c.1.3.2.6.4.8.2.3.7.5 1.1.5.4 0 .9-.1 1.2-.3.2-.3.7-.2.9 0 .2.2.3.5 0 .8-.6.5-1.3.8-2.1.8-1.6-.2-2.8-1.5-2.8-3.1zm1.3-.5h3.3c-.1-.5-.7-1.2-1.7-1.2-1.1 0-1.6.7-1.6 1.2z" fill="#263238"/><path d="M200.6 76.5c0-1.4 1.2-2.6 2.7-2.6.6 0 1.2.2 1.7.6.2.1.2.4.1.6-.1.2-.4.2-.6.1-.3-.3-.7-.4-1.2-.4s-1 .2-1.3.5c-.3.3-.5.8-.5 1.3s.2.9.5 1.3c.3.3.8.5 1.3.5.4 0 .8-.1 1.2-.4.2-.1.4-.1.6.1.1.2.1.4-.1.6-.5.4-1 .6-1.7.6-1.5-.2-2.7-1.4-2.7-2.8zm8.8.8v1.4c0 .2-.2.4-.4.4s-.3-.1-.4-.3c-.3.2-.6.3-1 .3-.5 0-.9-.2-1.2-.5-.3-.3-.5-.8-.5-1.3s.2-.9.5-1.3c.3-.3.7-.5 1.2-.5.4 0 .7.1 1 .3 0-.2.2-.3.4-.3s.4.2.4.4v1.4zm-.8 0c0-.3-.1-.6-.3-.7-.2-.2-.4-.3-.7-.3-.3 0-.5.1-.7.3-.2.2-.3.4-.3.7 0 .3.1.6.3.7.2.2.4.3.7.3.3 0 .5-.1.7-.3.2-.2.3-.4.3-.7zm2.7-3.3c.2 0 .4.2.4.4v4.3c0 .2-.2.4-.4.4s-.4-.2-.4-.4v-4.3c0-.2.2-.4.4-.4zm1.9 0c.2 0 .4.2.4.4v4.3c0 .2-.2.4-.4.4s-.4-.2-.4-.4v-4.3c0-.2.1-.4.4-.4zm2.1.5c0 .2-.2.4-.4.4s-.4-.2-.4-.4v-.2c0-.2.2-.4.4-.4s.4.2.4.4v.2zm0 1.3v2.8c0 .2-.2.4-.4.4s-.4-.2-.4-.4v-2.8c0-.2.2-.4.4-.4s.4.2.4.4zm4.3 1.1v1.7c0 .2-.2.4-.4.4s-.4-.2-.4-.4v-1.7c0-.4-.3-.7-.8-.7-.4 0-.7.3-.7.7v1.8c0 .2-.2.3-.4.3s-.4-.2-.4-.4v-2.8c0-.2.2-.4.4-.4s.3.1.4.2c.2-.1.5-.2.8-.2.8 0 1.5.7 1.5 1.5zm4.6.4v1.3c0 .9-.8 1.7-1.7 1.7-.3 0-.5-.1-.8-.2-.2-.1-.3-.3-.2-.5.1-.2.3-.3.5-.2.1.1.3.1.4.1.5 0 .9-.3.9-.8-.3.2-.6.3-.9.3-.5 0-.9-.2-1.2-.5-.3-.3-.5-.8-.5-1.3s.2-.9.5-1.3c.3-.3.8-.5 1.2-.5.4 0 .7.1 1 .3 0-.2.2-.3.4-.3s.4.2.4.4v1.5zm-.8 0c0-.3-.1-.6-.3-.7-.2-.2-.4-.3-.7-.3-.3 0-.5.1-.7.3-.2.2-.3.4-.3.7 0 .3.1.6.3.7.2.2.4.3.7.3.3 0 .5-.1.7-.3.2-.2.3-.4.3-.7zm2.8.7c.3 0 .5.2.5.5s-.2.5-.5.5-.5-.2-.5-.5c0-.2.2-.5.5-.5zm1.7 0c.3 0 .5.2.5.5s-.2.5-.5.5-.5-.2-.5-.5c-.1-.2.2-.5.5-.5zm1.6 0c.3 0 .5.2.5.5s-.2.5-.5.5-.5-.2-.5-.5c0-.2.2-.5.5-.5z" fill="#C7C7C7"/><path d="M226.2 123.7c-1.8 1.1-3.9 2-6.1 2.5-5.7 1.4-11.5.3-16.1-2.6-4.5-2.8-8-7.3-9.4-12.9-2.8-11.3 4.2-22.8 15.5-25.5 11.3-2.8 22.8 4.2 25.5 15.5 2.3 9.1-1.8 18.3-9.4 23z" fill="#FE9563"/><path d="M221.6 103.3c0 3.5-2.9 6.4-6.4 6.4-3.5 0-6.4-2.9-6.4-6.4 0-3.5 2.9-6.4 6.4-6.4 3.5 0 6.4 2.9 6.4 6.4zm4.6 17.7v2.7c-1.8 1.1-3.9 2-6.1 2.5-5.7 1.4-11.5.3-16.1-2.6V121c0-6.1 5-11.1 11.1-11.1 6.2 0 11.1 5 11.1 11.1z" fill="#fff"/><path d="M401.6 384.1s-34.5 16.3-79.7 16.3c-48 0-71.3-15.7-71.3-15.7-35.1-27.6-38.7-68.4-13.7-93.1 15.2-15 26.2-11.9 44.5-14.3h.1c6.4-.8 12.6-2.3 18.6-5.5 18.9-10 29.5-33.4 45.4-53.2 2-2.5 4-4.9 6.2-7.2 13.1-13.9 39-14.4 52.6 5.2 34.5 49.8 33.5 123.9-2.7 167.5z" fill="#999"/><path opacity=".1" d="M305.2 344c46 11.3 88.2-14.5 91.9-73.8 2.8-43.4-28.1-63.8-51.7-51.6-15.9 19.7-26.5 43.2-45.4 53.2-5.9 3.1-12.2 4.6-18.6 5.5h-.1c-.7.1-1.3.2-2 .2-20.8 13.2-9.9 57.7 25.9 66.5z" fill="#000"/><path d="M263.4 422c2.3-.4 57.3-29.4 58.7-31.8.5-.9-3.2-9.2-8.1-19-1-2.1-2.1-4.3-3.3-6.5-7.2-14.4-15.3-29.5-15.3-29.5l-36.9 19.3 16.3 29 3.6 6.4s-16.1 20.5-17.3 23.4c-1.2 2.7 0 9.1 2.3 8.7z" fill="#F7A9A0"/><path d="M263.4 422c2.3-.4 57.3-29.4 58.7-31.8.5-.8-2.4-7.3-6.4-15.6-2.2 3.1-34.6 28.5-45 30.6-4.3.9 2.7-8.8 3-9.3-4.8 6.3-11.7 15.4-12.5 17.2-1.3 2.9-.1 9.3 2.2 8.9z" fill="#263238"/><path d="M273 396.7s4.9-3.9 13.7.1l-13.7-.1z" fill="#263238"/><path d="M237 308.9c2.6 16.9 34.9 74.3 34.9 74.3l39.4-21.4-23.9-41.3s52.2 8.8 72.6 1.3c21.8-8 19.9-33.7 19.9-33.7l-51.7-8.6s-1.6 4.8-7.4 4.1c-20.1-2.5-47.6-3-58.2-2.4-13.7.9-28 12.2-25.6 27.7z" fill="#37474F"/><path d="M276.2 306c1.2 1.2 2.2 2.6 3.2 4 1.1 1.4 2.2 2.8 3.3 4.1l-.6-1.2c-.7-1.4-1.3-2.8-2.1-4.1-.1-.1.1-.2.1-.1.9 1.3 1.8 2.6 2.6 3.9.3.7.7 1.3 1 2 .2.4.3.7.5 1.1.1.2.2.4.2.5.5.6 1 1.3 1.5 1.9 1.1 1.5 2 3 3.1 4.5.1.1-.1.2-.1.1-1.1-1.4-2.3-2.6-3.4-4s-2.2-2.8-3.2-4.2l-3-4.2c-1.1-1.4-2.4-2.7-3.1-4.3-.1-.1-.1 0 0 0zm-6.3 68.1c1-.7 2.1-1.4 3.2-2 1.1-.7 2.1-1.3 3.2-1.9l6.6-3.9c4.4-2.6 8.9-5.1 13.4-7.6 2.5-1.4 5-2.8 7.6-4.1l.1.1c-4.3 2.7-8.6 5.3-13 7.9-4.4 2.6-8.8 5.2-13.3 7.7-1.2.7-2.5 1.4-3.8 2-1.3.7-2.6 1.4-3.9 2-.1-.1-.2-.2-.1-.2z" fill="#263238"/><path d="M372.6 289.4c.1 6.8-2.2 13.6-6.8 18.6-2.3 2.5-5 4.5-8.1 5.9-3 1.5-6.4 2.1-9.7 2.6-6.7.9-13.5 1-20.2.8-6.8-.2-13.5-.7-20.2-1.5-6.7-.8-13.4-1.9-20-3.6-1.6-.4-3.3-.9-4.9-1.4-.8-.3-1.6-.5-2.4-.9-.8-.3-1.6-.7-2.5-.8-.4-.1-.9-.1-1.4 0-.5.1-1 .5-1.1 1-.1.2-.1.5-.1.7 0 .3.1.5.1.7.1.4.3.8.5 1.2.7 1.6 1.5 3.1 2.3 4.5 6.5 11.9 13.5 23.5 20.6 35.1-3.4-5.8-6.8-11.7-10.2-17.6-3.4-5.9-6.7-11.8-9.9-17.7-.8-1.5-1.6-3-2.2-4.5-.2-.4-.3-.8-.5-1.1-.1-.2-.1-.4-.1-.5 0-.2 0-.4.1-.5.2-.7 1-.8 1.8-.6.8.1 1.5.5 2.3.8l2.4.9c1.6.5 3.3 1 4.9 1.4 6.6 1.7 13.3 2.8 20 3.6 6.7.8 13.5 1.3 20.3 1.5 6.8.1 13.6 0 20.3-1 3.3-.5 6.7-1.2 9.8-2.8 3.1-1.5 5.9-3.6 8.1-6.1 2.3-2.6 4-5.6 5-8.8 1.5-3.1 2-6.5 1.8-9.9z" fill="#263238"/><path d="M312.8 428.1c2.1-.8 49.9-40.7 50.8-43.4.3-1-5.1-8.3-11.8-16.9l-4.5-5.7c-10.1-12.6-21.1-25.7-21.1-25.7l-32 26.6 22 25 4.8 5.5s-11.5 23.4-12.1 26.5c-.7 2.9 1.8 8.9 3.9 8.1z" fill="#F7A9A0"/><path d="M312.8 428.1c2.1-.8 49.9-40.7 50.8-43.3.3-.9-3.9-6.7-9.5-13.9-1.5 3.5-27.9 35.1-37.6 39.3-4 1.7.8-9.2 1-9.7-3.4 7.2-8.3 17.5-8.7 19.4-.6 3 1.9 9 4 8.2z" fill="#263238"/><path d="M317 401.3s3.9-4.8 13.4-2.7l-13.4 2.7z" fill="#263238"/><path d="M260.1 313.8c2.6 16.9 45.3 64.9 50.3 70.4.7.8 1.1 1.3 1.1 1.3l33.9-27.2-.4-.5-23.5-28.4s37.5 14.7 54.9-8.1c6.9-9.1 3.4-33.1 3.4-33.1l-41.5-6.7s-1 7.1-6.9 6.4c-20.1-2.5-35.8-4.7-46.4-4.1-13.7.7-27.2 14.6-24.9 30z" fill="#37474F"/><path d="M330.3 287.6c-12.9-1.8-25.8-3.5-38.9-4.1-1.6-.1-3.3-.1-4.9-.1-1.6 0-3.3.1-4.9.4-.8.1-1.6.4-2.4.7-.8.3-1.5.6-2.3.9-1.5.7-3 1.4-4.4 2.3-2.8 1.7-5.3 3.9-7.4 6.5-2.1 2.6-3.7 5.5-4.6 8.7-.5 1.6-.8 3.2-.9 4.9-.1.4-.1.8-.1 1.2v1.2c0 .8.1 1.7.3 2.5.6 3.3 1.8 6.3 3.2 9.3 2.8 5.9 6.3 11.4 10.1 16.8 3.7 5.3 7.7 10.5 11.8 15.6 4.1 5.1 8.3 10 12.6 14.9-4.2-5-8.3-10-12.3-15.1s-7.9-10.3-11.6-15.7c-3.6-5.4-7.2-10.9-9.9-16.8-1.4-2.9-2.6-6-3.1-9.1-.1-.8-.2-1.6-.2-2.4 0-.8.1-1.6.1-2.4.2-1.6.5-3.2.9-4.7.9-3.1 2.4-6 4.5-8.5 2-2.5 4.5-4.6 7.2-6.4 1.4-.9 2.8-1.6 4.3-2.3.7-.3 1.5-.6 2.2-.9.8-.3 1.5-.5 2.3-.7 1.6-.3 3.2-.4 4.8-.4h4.9c6.5.2 13 .8 19.5 1.4 6.3.8 12.8 1.5 19.2 2.3z" fill="#263238"/><path d="M308.9 312.6c1.2 1.2 2.2 2.6 3.2 4 1.1 1.4 2.2 2.8 3.3 4.1l-.6-1.2c-.7-1.4-1.3-2.8-2.1-4.1-.1-.1.1-.2.1-.1.9 1.3 1.8 2.6 2.6 3.9.3.7.7 1.3 1 2 .2.4.3.7.5 1.1.1.2.2.4.2.5.5.6 1 1.3 1.5 1.9 1.1 1.5 2 3 3.1 4.5.1.1-.1.2-.1.1-1.1-1.4-2.3-2.6-3.4-4s-2.2-2.8-3.2-4.2l-3-4.2c-1.1-1.3-2.3-2.7-3.1-4.3 0 0-.1 0 0 0zm-1.2 65.1c.9-.9 1.9-1.7 2.8-2.5.9-.8 1.9-1.6 2.8-2.4 1.9-1.7 3.9-3.3 5.9-4.9 3.9-3.3 7.9-6.5 11.9-9.7 2.2-1.8 4.5-3.6 6.7-5.4 0 0 .1 0 .1.1-3.8 3.3-7.6 6.7-11.4 9.9-3.9 3.3-7.8 6.6-11.9 9.8-1.1.9-2.2 1.8-3.4 2.6-1.1.9-2.2 1.8-3.5 2.5 0 0 .1.1 0 0z" fill="#263238"/><path d="M374.1 290.1c.6 3.7.7 7.4.3 11.1-.4 3.7-1.4 7.4-3.1 10.6-1.7 3.3-4.3 6.1-7.5 7.9-3.2 1.9-6.9 2.7-10.6 2.9-3.7.3-7.4 0-11.1-.4-3.7-.5-7.3-1.2-11-2-7.2-1.7-14.4-3.9-21.3-6.6l-.3-.1-.1.2c-.5.9-.8 1.8-.9 2.8-.1 1-.1 2 0 2.9.2 1 .5 1.9.9 2.8.5.9 1 1.7 1.5 2.5 2.2 3.1 4.7 6 7.1 9 2.4 2.9 4.9 5.8 7.4 8.7 2.5 2.9 5 5.7 7.6 8.5-2.5-2.9-4.9-5.8-7.4-8.7-2.4-2.9-4.9-5.8-7.3-8.8-2.4-3-4.8-5.9-6.9-9-.5-.8-1.1-1.6-1.5-2.4-.4-.8-.7-1.7-.8-2.6-.3-1.8 0-3.8.8-5.3l-.4.1c7 2.7 14.1 5 21.4 6.7 3.6.8 7.3 1.5 11.1 2 3.7.4 7.5.7 11.2.4 3.7-.3 7.5-1.1 10.8-3.1 3.3-1.9 5.9-4.8 7.6-8.2 1.7-3.4 2.6-7.1 2.9-10.8.4-3.6.3-7.4-.4-11.1z" fill="#263238"/><path d="M356.2 288.8c.3 2 .7 3.9 1.2 5.9.4 1.7.9 3.5 1.9 5 1 1.4 2.4 2.4 3.9 3.2.9.5 1.8.9 2.7 1.2.9.4 1.9.7 2.8 1.2.2.1.1.4-.1.4-1 0-2.1-.3-3.1-.6s-2-.6-2.9-1c-1.7-.8-3.2-2-4.3-3.5-1.1-1.6-1.6-3.5-1.9-5.4-.4-2.1-.5-4.2-.5-6.3 0-.3.3-.3.3-.1zm-3.1-105.9s8.9-4 16.1 1.3c7.2 5.3 9.8 17.3 7.7 26.9-2.1 9.6 5.3 16.7 5.6 24 .3 7.3-4.8 10.3-6.7 13.9-2.2 4.2 3.9 20.3-15.1 22.3-23.7 2.6-31.4-12.5-28-24.1 1.6-5.7 5.2-9.6 5.6-14.3.3-4.7-2.7-8.7-.5-14.5 2.2-5.8 4.4-4.8 6.2-14.1 1.8-9.2.7-20.5 9.1-21.4z" fill="#263238"/><path d="M367.6 183.9c4.8 3.7 8.2 8.6 9.9 14.2.9 2.8 1.3 5.7 1.3 8.6-.1 3.8-1 7.3.2 11.2 1.8 6.1 5.9 11.4 5.2 18-.4 3-1.6 5.9-3.5 8.4-2.3 2.8-5.3 4.9-7.3 8-.1.1-.3 0-.2-.1 1.6-2.7 4.1-4.7 6.2-7.1 2.5-2.9 4.1-6.4 4.3-10.1.3-6.3-3.7-11.5-5.4-17.4-.7-2.7-.6-5.2-.3-7.9.4-3.2.3-6.4-.4-9.5-1.4-6.3-5-11.9-10-16.3 0-.1-.1 0 0 0zM333 245.6c.8-2.8 2.5-5.2 3.3-7.9 1-3.3.4-6.7 0-10.1-.5-4.8-.1-9.2 2.4-13.5 1.6-2.8 3.4-5.3 4.7-8.2 1.3-3.2 2.2-6.6 2.6-10 0-.1.1-.1.1 0-.4 5.1-1.7 9.8-4.3 14.2-1.5 2.5-3.3 4.9-4.2 7.7-1.2 3.4-1.1 6.7-.8 10.2.2 2.3.5 4.7.3 7-.2 2.4-1.2 4.5-2.2 6.7-2.7 5.7-3.2 11.7-1.4 17.8 0 .1-.2.2-.2.1-1.5-4.6-1.7-9.4-.3-14z" fill="#263238"/><path d="M383.2 234.4c.2-5.2-3.1-9-4.9-13.6-1.4-3.5-2.2-7.2-1.3-10.9 0-.1.1 0 .1 0-.7 5.4 1.1 10.4 3.7 15.2 1.7 3.2 3.1 6.2 2.9 9.8-.3 3.5-1.9 6.4-4.2 9.2-1.6 2-3.2 3.8-4 6.2-.8 2.4-.9 5-1 7.5 0 .1-.2.1-.2 0 0-3.9.2-7.7 2.5-11 2.8-4.2 6.2-7.2 6.4-12.4zm-50.8 7.5c.9-1.7 2.1-3.2 3.4-4.8 2.2-2.7 2.7-5.1 2.4-8.6 0-.1.1-.1.1 0 .7 2.9.7 5.3-1.2 7.8-2.6 3.5-5.2 6.6-6.1 10.9-1.5 7.7 2.3 15.2 9 19.7.1.1 0 .2-.1.1-5.7-3.4-9.4-9.1-9.8-15.4-.1-3.3.7-6.7 2.3-9.7z" fill="#263238"/><path d="M349.5 233.5c-4.2 19.8-10.7 36.5-16.1 40.3-4.4 3.1-41.3 10.4-42.6 10.5-3.2.3-9.2-20.6-7-23.2.5-.6 36-3.9 37.1-5.1 1.2-1.2 11.7-15.2 20.1-26.1 5.9-7.5 10.8-7.3 8.5 3.6z" fill="#F7A9A0"/><path d="M297.1 282c-.4.2-5.9 2.9-9.4 3.8-2.6.7-10 2.7-11.1-.1-.7-1.9 3.5-3.5 6.4-4.8 1.6-.7 3.5-2.3 3-3.3-.8-1.8-4.8 0-7.5 1.5-5.1 3-11.9 8.3-15 5.7-1.2-1 .2-2.8 2.2-4.5-3.3 2-6.7 3.7-8.1 2.7-.8-.6-.8-1.4-.4-2.3-1 .3-1.9.3-2.5-.4-1.1-1.1-.5-2.7.6-4.4-.4 0-.7-.2-1-.6-2.2-3.4 9-13.2 12.8-14.1 11.4-2.7 23.5-1.7 23.5-1.7 4.8 3.6 6.5 22.5 6.5 22.5z" fill="#F7A9A0"/><path d="M280.3 271.4c-2.7.4-5.4 1.4-7.6 2.9-2.7 1.8-4.8 4.3-7.2 6.4-.1.1 0 .2.1.1 1.2-1.1 2.4-2 3.6-3 1.2-1 2.3-2 3.6-3 2.2-1.7 4.7-2.9 7.5-3.4 0 0 .1 0 0 0zm-2.1-4.9c-3 .8-6.1 1.6-8.9 3.1-3 1.6-5.4 4.1-7.8 6.5-1.4 1.5-2.8 3-4.1 4.5-.1.1 0 .2.1.1 2.4-2.5 4.8-5 7.4-7.3 2.4-2.2 5-3.9 8.1-5.1 1.7-.7 3.4-1.2 5.2-1.8 0 0 0 .1 0 0zm-3.2-4.2c-2.9.6-5.5 1.1-8 2.7-3.4 2.1-6.7 5.5-7.9 6.8-1.3 1.4-2.5 2.8-3.7 4.2 0 .1.1.1.1.1 2.8-3.1 5.7-6.1 8.9-8.8 1.5-1.3 3.1-2.4 5-3.2 1.7-.9 3.7-1.3 5.6-1.8z" fill="#263238"/><path d="M290.2 258.8l7 26.5s28.9-5.9 36.9-11.6c7.9-5.7 13.9-31 16-42 2.1-11-5.4-7.6-9.9-1.9-4.5 5.7-19.4 25-19.9 25.4-.4.5-30.1 3.6-30.1 3.6z" fill="#FE9563"/><path d="M303.9 282.9c-.4-2-1-4-1.6-5.9-.5-1.9-1.1-3.8-1.7-5.8-1.2-3.9-2.2-7.8-3.6-11.6 0-.1-.2-.1-.1 0 .8 4 2 7.9 3.1 11.8.6 2 1.2 3.9 1.8 5.8.6 1.9 1.2 3.8 2 5.6 0 .2.1.2.1.1z" fill="#263238"/><path d="M350.1 231.7c-2.1 11-8.1 36.3-16 42-4 2.9-13.2 5.8-21.4 8l33.9-56.9c2.8-1 4.8.5 3.5 6.9z" fill="#FFAB83"/><path d="M382.7 293.1l-30.2-4.4-21.9-3.2-6.6-1 5-17.9 2.1-7.4s-3.6-6.2-1.9-11.6c2-6.1 18.3-22.6 19.5-23.4 5-3.2 10.5-3.4 15.3 3.2 2.1 2.8 4 7.1 5.8 12.1 1 2.6 1.9 5.4 2.8 8.4 6 20 10.1 45.2 10.1 45.2z" fill="#FE9563"/><path d="M347.7 261.6c-2.4-.5-4.8-.9-7.3-1-1.2-.1-2.4-.1-3.6 0H335c-.6 0-1.3 0-1.9-.2-.1 0-.1.1 0 .1.6.2 1.1.4 1.7.5.6.1 1.2.2 1.7.2 1.2.1 2.5.1 3.7.1 2.5.1 5 .2 7.5.5.1 0 .1-.2 0-.2zm5.2 3.8c-1.9-.8-3.8-1.5-5.7-2.1-1-.3-2-.5-2.9-.7-.5-.1-.9-.2-1.4-.3-.5-.1-1.1-.1-1.6-.2-.1 0-.1.1 0 .1.5.1 1 .3 1.4.4.5.1 1 .3 1.5.4 1 .3 1.9.6 2.9.8 1.9.5 3.9 1.1 5.8 1.7 0 .1.1-.1 0-.1zm-21.9-6.1c-1.5-2.2-2.5-4.9-2.6-7.6-.1-1.4.1-2.8.4-4.1.4-1.3 1-2.5 1.7-3.7 1.4-2.3 3.1-4.4 4.9-6.4 1.8-2 3.7-3.9 5.7-5.7-1.8 2-3.6 4-5.3 6.1-1.7 2.1-3.4 4.2-4.7 6.4-.7 1.1-1.3 2.3-1.7 3.5-.4 1.2-.5 2.6-.5 3.9.1 2.6.9 5.2 2.1 7.6z" fill="#263238"/><path d="M339.7 232.3c-.2.6-.5 1.1-.8 1.6-.3.5-.7 1-1.1 1.5.2-.6.5-1.1.8-1.6.4-.5.7-1 1.1-1.5z" fill="#263238"/><path d="M359.2 225.3c-.4 1-6.1 7.1-10.8 6.4-1.5-.3-.5-8.7-.5-8.7l-.1-.6-.9-8.9 11-5.4 1.6-.7s.1 2.5.2 5.5v4.5c0 3.7-.4 7.5-.5 7.9z" fill="#F7A9A0"/><path d="M359.6 212.9c-3.3 6.6-9.2 8.8-11.8 9.5l-.9-8.9 11-5.4 1.6-.7s0 2.4.1 5.5z" fill="#263238"/><path d="M347.9 223l1.3 7.4 10.3-6.8 1.8 3.3s-11.2 11.9-11.1 11.3l-1.5-6.5-4.9 3.2 2.5-10.2 1.6-1.7z" fill="#fff"/><path d="M344.6 229.8c.5-1.7.9-3.4 1.5-5 0-.1.1-.1.1 0 0 1.7-1.9 8.1-2.2 9.6.2-.1 4.5-2.8 4.6-2.7.4 1.1 1.5 5.8 1.6 6.2 1.8-1.9 9.2-9.3 11.2-11 .1 0 .1 0 .1.1-1.6 2-11.3 11.8-11.4 11.8-.1 0-1.5-5.8-1.6-6.8-.8.6-5.2 3.7-5.2 3.4.3-1.8.9-3.9 1.3-5.6z" fill="#263238"/><path d="M338.5 195.4c-7 14.1.7 19.9 3.8 21.4 2.8 1.4 12.4 5.6 20.8-7.7s4-21.1-2.1-24.5c-6.3-3.5-15.5-3.4-22.5 10.8z" fill="#F7A9A0"/><path d="M341.7 193.9c.4.1.7.2 1.1.2.4.1.7.2 1.1 0 .2-.1.4-.4.3-.6-.1-.5-.6-.7-1.1-.9-.5-.1-1-.1-1.5.1-.5.3-.4 1.1.1 1.2zm9.8 4.5c-.3-.2-.6-.4-.9-.7-.3-.3-.6-.4-.8-.8-.1-.2.1-.5.3-.6.5-.2 1 0 1.4.3.4.3.7.7.9 1.2.1.5-.5.9-.9.6zm-3.9 2.5s.1.1 0 .1c-.5.9-.9 2.1-.2 2.9 0 0 0 .1 0 0-1-.6-.4-2.2.2-3z" fill="#263238"/><path d="M349 200.3c1.6.6.2 3.8-1.3 3.2-1.5-.6-.1-3.7 1.3-3.2z" fill="#263238"/><path d="M349.5 200.8c.2.3.3.7.6.9.4.2.8 0 1.2-.2 0 0 .1 0 0 .1-.3.6-.8 1.1-1.5.9-.6-.2-.8-.9-.7-1.6.1-.1.3-.3.4-.1zm-7.3-2.5s-.1 0-.1.1c-.4 1-1 2.1-2.1 2 0 0-.1 0 0 .1 1.2.2 2-1.2 2.2-2.2z" fill="#263238"/><path d="M341.8 196.8c-1.5-.8-3 2.3-1.6 3.1 1.4.7 2.9-2.4 1.6-3.1z" fill="#263238"/><path d="M341.1 196.7c-.3 0-.7.2-1 .1-.4-.1-.4-.6-.5-1h-.1c-.3.6-.4 1.3.1 1.7.5.4 1.1 0 1.5-.5.1-.1.1-.3 0-.3zm3 12.3c-.3.1-.7.4-1.1.3-.4-.1-.7-.4-1-.7h-.1c.1.5.6.9 1.1 1 .5.1.9-.2 1.1-.6.1 0 .1 0 0 0zm-2.4-5.4s-.9 1.4-1.2 2.1c0 .1.1.2.3.3 1.1.7 2.5.9 3.7.2.1 0 0-.2-.1-.1-1.2.2-2.3 0-3.4-.5 0-.2 1.6-2.3 1.5-2.3-.4-.2-1.2-.3-1.7-.4 1.7-2.9 3.9-5.5 5.6-8.4.1-.1-.1-.2-.2-.1-2.5 2.6-4.6 5.8-6.4 8.8-.1.2 1.5.4 1.9.4z" fill="#263238"/><path d="M362.2 208.3c-2.9-.5-1.7-7.1-1.7-7.1s-11.3-5.5-9.5-15.5c0 0-3.8 5.6-10.9 6.5 0 0 3.5-10.5 12.5-10.1 0 0 11.6-.7 15 9.3 3.5 10.1-3.5 17.2-5.4 16.9z" fill="#263238"/><path d="M351.2 185c-.6 1.4-.8 3-.8 4.6.1 1.6.4 3.1 1.1 4.6.1.4.4.7.6 1l.3.5c.1.2.2.3.4.5.2.3.5.6.7.9l.8.8.4.4.5.4.9.7c.7.4 1.3.8 2 1.1-.6-.5-1.2-.9-1.8-1.4l-.8-.8-.5-.3-.4-.4c-.2-.3-.5-.6-.8-.8-.2-.3-.4-.6-.7-.9l-.3-.5-.3-.5c-.2-.3-.4-.6-.5-1-.7-1.3-1-2.8-1.2-4.3-.1-.7-.1-1.5-.1-2.3.2-.8.3-1.5.5-2.3z" fill="#263238"/><path d="M360.1 213.6c-.3 0-.5 0-.7-.1-.3-.1-.5-.1-.7-.3-.3-.2-.6-.4-.7-.6-.2-.2-.3-.4-.4-.6-.2-.6-.2-1-.2-1l2.3-3.6s5-3.3 6.6-1.4c1.6 1.9-3.4 7.6-6.2 7.6z" fill="#F7A9A0"/><path d="M364.8 207.6c.1 0 0 0 0 0-2 .1-3.5 1.3-4.8 2.7.8-.4 1.6-.5 2.2.4 0 0 0 .1-.1.1-.6-.4-1.2-.5-1.9-.1-.5.3-.9.7-1.3 1-.1.1-.4-.1-.3-.2.9-2.2 3.8-4.6 6.2-3.9z" fill="#263238"/><path d="M360.2 212.9c-.2.3-.7.4-1 .2-.3-.2-.4-.7-.2-1 .2-.3.7-.4 1-.2.3.2.4.6.2 1zm1.8-.5c-.2.2-.5.3-.7.2-.2-.2-.3-.5-.2-.7.2-.2.5-.3.7-.2.3.1.3.5.2.7z" fill="#fff"/><path d="M341.4 253.7s8.5-15.5 13.4-23.5 9.5-6.5 9.9 2.7c.4 9.3 3.1 21.2-5.6 36.5-22.5 39.6-17.7-15.7-17.7-15.7z" fill="#DBDBDB"/><path d="M359.9 201.2l-21.8 15.3c-.7.4-.8 1.1-.3 1.6l7.1 9.5c.6.5 1.6.6 2.3.2l21.8-15.3c.7-.4.8-1.1.3-1.6l-7.1-9.5c-.6-.5-1.6-.6-2.3-.2z" fill="#A6A6A6"/><path d="M360.6 202l-21.8 15.3c-.7.4-.8 1.1-.3 1.6l7.1 9.5c.6.5 1.6.6 2.3.2l21.8-15.3c.7-.4.8-1.1.3-1.6l-7.1-9.5c-.6-.5-1.6-.6-2.3-.2z" fill="#BCD9E8"/><path d="M362.6 205.3c-.4.5-1.1.5-1.6.1s-.5-1.1-.1-1.6 1.1-.5 1.6-.1c.4.4.5 1.1.1 1.6z" fill="#263238"/><path d="M335.8 277.2c.1 8.3 11.2 9.5 15 5.7 8.9-8.9 16.2-27.6 19.4-38.5 1-3.5-22.2-11.7-23.9-8.2-2 4.1-10.6 24.8-10.5 41z" fill="#F7A9A0"/><path d="M364.8 250.3s6-4.8 9.3-12.4c2.3-5.2 6-17.2-4-31-2.4-3.3-8.1-6.3-6.1.5 1.4 4.8 3.7 7.4 4 10.4 0 0-7.7-2.9-10.9-.4-1.4 1.1-5.2 4.3-7.9 7.1 0 0 .5.7 1.2 1.6 0 0-3.6 4.3-4 10l18.4 14.2z" fill="#F7A9A0"/><path d="M375.5 232.6c-.9-2.9-2.9-8.9-6.3-13.2-3.7-4.8-12.2-13.1-15.8-10.3-2.6 2 .4 5.5.4 5.5s-4.2-2.7-6.2-.3c-1.8 2.2.7 4.7.7 4.7s-2.8-1.2-4.1 1.2c-1.6 2.9 4.7 4.9 5.6 9.2.2.9 25.7 3.2 25.7 3.2z" fill="#F7A9A0"/><path d="M364.8 224.1c-1.3-2.5-5.7-7.6-10.8-9.6-.1 0-.2 0-.1.1 5.1 3.5 9.2 7.7 10.9 9.5 0 .1-.1.1 0 0zm-5 3.7c-1.3-2.1-6.1-7.1-11.4-9-.1 0-.2 0-.1.1 5.5 3.4 9.7 7.1 11.5 8.9z" fill="#263238"/><path d="M334.7 278.6c.5 8.3 12 9.7 16 5.9 9.3-8.8 16.8-27.6 20.1-38.5l-26.7-8.2c-2.1 4.1-10.3 25-9.4 40.8z" fill="#FE9563"/><path d="M345.4 238.1l-1.3-.4c-1.6 4.2-2.9 8.4-4.2 12.6-1.3 4.2-2.4 8.5-3.4 12.9-.9 4.3-1.8 8.7-1.7 13.1.1 2.2.5 4.4 1.6 6.2.6.9 1.3 1.7 2.2 2.2.9.5 1.9.9 3 1.1 2.1.4 4.3.3 6.3-.5s3.8-2.2 5.3-3.7c3-3.2 5.2-7.1 7.2-11 2-4 3.7-8.1 5.4-12.1 1.7-4.1 3.5-8.2 4.8-12.4l-.8-.3.9.3c-.6 2.2-1.3 4.2-2.1 6.3-.8 2.1-1.6 4.2-2.4 6.2-1.7 4.1-3.3 8.2-5.3 12.3-1 2-2 4-3.2 5.9-1.2 1.9-2.5 3.7-4 5.4-1.5 1.6-3.4 3.1-5.5 3.9-2.1.9-4.5 1-6.8.6-1.1-.2-2.2-.6-3.2-1.2s-1.8-1.5-2.5-2.4c-1.2-2-1.6-4.3-1.7-6.6-.1-2.3.2-4.5.5-6.7s.8-4.4 1.3-6.6c2-8.7 4.8-17.1 8.1-25.4l1.5.3z" fill="#263238"/><path d="M354.6 249c-2-.6-9.9-2.7-11.9-3-.1 0-.1.1 0 .1 1.9.8 9.8 3.2 11.8 3.8 4 1.1 7.9 2.3 12 3 .1 0 .1-.1.1-.2-4-1.5-8.1-2.6-12-3.7z" fill="#263238"/></g><defs><clipPath id="clip0_2_10038"><path fill="#fff" d="M0 0h430.3v428.2H0z"/></clipPath></defs></svg>