<svg width="57" height="57" fill="none" xmlns="http://www.w3.org/2000/svg"><g clip-path="url(#clip0_19_581)"><rect x="3.388" y="3.388" width="49.225" height="49.225" rx="8.79" fill="#FE9563"/><path d="M28.128 12.746c-8.497 0-15.382 6.885-15.382 15.382 0 8.498 6.885 15.383 15.382 15.383 8.498 0 15.383-6.885 15.383-15.383 0-8.497-6.885-15.382-15.383-15.382zm4.963 10.42c1.097 0 1.984.887 1.984 1.985a1.983 1.983 0 01-1.984 1.985 1.983 1.983 0 01-1.985-1.985c0-1.098.887-1.985 1.985-1.985zm-9.925 0c1.098 0 1.985.887 1.985 1.985a1.983 1.983 0 01-1.985 1.985 1.983 1.983 0 01-1.985-1.985c0-1.098.887-1.985 1.985-1.985zM35.25 33.723a9.241 9.241 0 01-7.12 3.337 9.241 9.241 0 01-7.121-3.337c-.844-1.01.682-2.276 1.526-1.271a7.248 7.248 0 005.594 2.617 7.268 7.268 0 005.595-2.617c.831-1.005 2.364.26 1.526 1.271z" fill="#FAFBFC"/></g><defs><clipPath id="clip0_19_581"><path fill="#fff" d="M0 0h56.257v56.257H0z"/></clipPath></defs></svg>