<svg width="502" height="516" fill="none" xmlns="http://www.w3.org/2000/svg"><g clip-path="url(#clip0_2_7143)"><path d="M412.657 417.401h40.454V404.53h-40.454v12.871zM167.102 210.148h40.453v-12.871h-40.453v12.871zm268.235 223.581c6.665-.115 23.904-.345 30.34-.46h9.998l-.574.575v-12.872l.574.575c-6.665 0-23.789-.115-30.34-.23l-10.113-.115.23-.23-.115 12.757zm0 0l-.23-12.872v-.23h.23c5.056-.115 15.17-.23 20.226-.23l20.227-.115h.575v14.021h-10.803c-6.436-.23-23.56-.459-30.225-.574z" fill="#EBEBEB"/><path d="M243.182 337.766c6.666-.115 23.905-.345 30.341-.46h9.998l-.575.575v-12.872l.575.575c-6.666 0-23.789-.115-30.34-.23l-10.114-.115.23-.23-.115 12.757zm0 0l-.23-12.872v-.229h.23c5.057-.115 15.17-.23 20.227-.23l20.227-.115h.575v14.021h-10.803c-6.436-.115-23.56-.46-30.226-.575zm22.525 16.204c6.666-.115 23.904-.345 30.34-.459h9.999l-.575.574v-12.872l.575.575c-6.666 0-23.79-.115-30.341-.23l-10.113-.115.23-.23-.115 12.757zm0 0l-.23-12.871v-.23h.23c5.057-.115 15.17-.23 20.227-.23l20.227-.115h.574v14.021h-10.803c-6.436-.115-23.559-.46-30.225-.575zm22.427-16.11h40.453v-12.872h-40.453v12.872zM.278 433.628h40.454v-12.871H.278v12.871zM22.715 20.764H63.17V7.892H22.715v12.872zM.23 36.891l20.34-.344 10-.115h9.998l-.575.574V24.135l.575.574-20.227-.115-9.999-.115L.23 24.365l.23-.23-.23 12.756zm0 0L0 24.02v-.23h.23l10.113-.115 10.113-.115 20.227-.115h.574v14.021H30.454l-10.113-.115-20.112-.46zm412.581-16.204l20.342-.345 9.999-.115h9.998l-.574.575V7.93l.574.575-20.227-.115-10.113-.115-10.114-.115.23-.23-.115 12.757zm0 0l-.229-12.872v-.23h.229l10.114-.115 10.113-.115 20.227-.115h.575v14.021h-10.803l-10.114-.115-20.112-.46z" fill="#FE9563"/><path d="M332.249 463.494h134.233l4.253-85.16H327.997l4.252 85.16z" fill="#53595B"/><path d="M337.422 388.333h120.557l-1.839 28.501H338.916l-1.494-28.501zm3.678 36.891l1.264 25.628h112.167l1.609-25.628H341.1z" stroke="#DBDBDB" stroke-width="1.149" stroke-miterlimit="10"/><path d="M410.629 405.227h-24.134l-.69-6.091h25.628l-.804 6.091zm0 35.857h-24.134l-.69-6.091h25.628l-.804 6.091z" stroke="#DBDBDB" stroke-width="1.149" stroke-miterlimit="10"/><path d="M350.867 463.494l-1.264 9.309-2.643 18.618h-5.172v-27.927h9.079z" fill="#53595B"/><path d="M350.867 463.494l-1.264 9.309h-7.815v-9.309h9.079z" fill="#455A64"/><path d="M447.864 463.494l1.264 9.309 2.644 18.618h5.171v-27.927h-9.079z" fill="#53595B"/><path d="M447.864 463.494l1.264 9.309h7.815v-9.309h-9.079z" fill="#455A64"/><path d="M477.974.574h-192.04v165.033h192.04V.574z" stroke="#FE9563" stroke-width="1.149" stroke-miterlimit="10"/><path d="M294.898 6.32a2.305 2.305 0 01-2.298 2.3 2.305 2.305 0 01-2.299-2.3 2.305 2.305 0 012.299-2.298 2.305 2.305 0 012.298 2.299z" fill="#A6A6A6"/><path d="M304.552 6.32a2.305 2.305 0 01-2.298 2.3 2.306 2.306 0 01-2.299-2.3 2.306 2.306 0 012.299-2.298 2.305 2.305 0 012.298 2.299z" fill="#EBEBEB"/><path d="M314.091 6.32a2.306 2.306 0 01-2.299 2.3 2.305 2.305 0 01-2.298-2.3 2.305 2.305 0 012.298-2.298 2.306 2.306 0 012.299 2.299z" fill="#FE9563"/><path d="M285.934 12.067h191.925" stroke="#FE9563" stroke-width="1.149" stroke-miterlimit="10"/><path d="M412.467 363.854a50.304 50.304 0 01-1.034 19.422c-.69 2.988-1.724 5.747-2.988 8.62-1.494 3.562-3.103 7.01-2.759 10.918.345.23-.919.23-.919-.115-10.343-5.861-23.675-7.011-31.604-16.664-3.793-4.597-5.632-10.344-6.551-16.205-1.034-6.321-1.264-13.331.345-19.537 1.379-5.287 4.482-10.343 9.423-12.872 5.057-2.643 11.723-2.413 17.124-.804 11.608 3.562 17.354 16.089 18.963 27.237z" fill="#FE9563"/><path d="M417.754 440.624c-1.379-4.712-2.874-9.424-4.253-14.136-2.873-9.194-5.746-18.388-9.079-27.467a385.879 385.879 0 00-6.206-16.089c.345-3.333.575-6.666 1.265-9.999.919-4.022 2.068-7.93 3.332-11.837.115-.23-.344-.345-.459-.115-2.299 5.401-5.402 12.297-5.402 18.733-2.528-5.976-5.286-11.953-8.16-17.814-.114-4.941-.344-9.883.46-14.825 0-.23-.345-.345-.345-.115-.804 4.252-1.379 8.734-1.034 13.101-2.184-4.367-4.597-8.734-7.125-12.986-.23-.345-.805 0-.575.345 3.907 7.47 7.47 15.17 10.918 22.87-4.712-4.137-10.343-7.355-16.205-9.424-.229-.115-.459.23-.229.345 6.665 2.758 12.297 6.78 17.583 11.607 2.414 5.632 4.712 11.378 7.011 17.239-6.436-6.321-15.4-10.573-23.905-12.757-.345-.115-.345.345-.115.46 9.884 2.988 17.699 8.619 25.169 15.4.919 2.299 1.724 4.712 2.528 7.01 3.218 8.85 6.206 17.814 9.194 26.778a1758.46 1758.46 0 014.138 12.987c1.494 4.597 2.528 9.538 4.482 14.021.23.459.919.344.804-.23-.804-4.367-2.413-8.735-3.792-13.102z" fill="#263238"/><path d="M400.63 354.775c-1.838 2.873-3.103 5.976-3.677 9.309 0 .115.115.115.115 0a80.517 80.517 0 014.022-9.079c.115-.23-.345-.46-.46-.23zm-18.503 21.606c-2.643-1.494-6.206-2.758-9.309-3.103-.115 0-.115.115 0 .115 1.494.574 3.103 1.034 4.597 1.609 1.494.574 2.988 1.264 4.482 1.839.345.229.575-.23.23-.46zm-5.171-25.973c-.92-.575-1.954-1.379-2.988-1.839-.115-.115-.345.115-.115.23.804.804 1.954 1.379 2.988 1.954 0 .114.23-.23.115-.345z" fill="#263238"/><path d="M447.404 399.136c-7.47 2.184-14.94 4.252-22.41 6.436-.69.23-13.216-24.019-8.734-36.431 4.252-11.493 13.906-20.112 25.398-24.135 5.287-1.838 11.838-3.333 17.469-2.068 5.057 1.149 8.504 5.171 10.228 9.883 2.184 6.436 1.494 14.021.23 20.572-1.149 6.091-3.333 12.067-7.355 16.779-3.908 4.712-8.964 7.24-14.826 8.964z" fill="#FE9563"/><path d="M458.208 376.151c-4.712 2.413-9.539 4.137-14.596 5.746-3.218 1.034-6.781 1.954-9.769 3.563 3.103-7.011 6.666-13.906 10.229-20.687 4.827-1.379 9.883-3.562 13.561-7.01.23-.23 0-.46-.23-.345-4.022 2.758-8.389 4.482-12.757 6.436 1.035-1.839 1.954-3.678 2.988-5.517.23-.459-.459-1.034-.804-.574a145.41 145.41 0 00-10.573 17.813c-.805-5.401-1.034-10.803-.805-16.319 0-.115-.229-.115-.229 0-.92 5.861-.92 12.067.229 17.928a165.17 165.17 0 00-7.125 15.975c-.804-3.218-1.954-6.436-2.643-9.769-1.035-4.712-1.609-9.539-1.035-14.366 0-.114-.229-.114-.229 0-1.495 8.62-.115 18.274 3.103 26.433-1.265 3.218-2.414 6.551-3.563 9.769-5.632 16.779-8.964 34.133-9.884 51.831 0 .46.575.46.575 0 2.069-17.353 5.631-34.592 11.148-51.141 2.183-6.551 4.712-12.872 7.355-19.078 4.367-1.264 8.849-3.103 13.101-4.597 4.253-1.494 8.505-3.103 12.068-5.976.229 0 .114-.23-.115-.115z" fill="#263238"/><path d="M465.218 369.141c-4.597 1.609-8.849 3.907-13.446 5.516-.23.115-.115.46.115.345 4.827-1.034 9.654-2.528 13.446-5.631.23-.115 0-.345-.115-.23zm-37.236-9.884c0-.23-.344-.345-.344-.115-1.265 4.252-2.069 8.62-.92 12.987 0 .115.345.23.345 0 .115-4.367-.115-8.62.919-12.872zm18.848-9.769c-1.494 1.954-2.068 4.712-1.953 7.126 0 .115.23.229.345.115.574-2.414 1.494-4.597 2.183-6.896.115-.345-.345-.575-.575-.345z" fill="#263238"/><path d="M358.681 409.824c2.183 6.895 7.355 16.549 15.63 16.664 5.286 0 10.688-.575 16.089-.69 5.746-.115 11.493-.115 17.239.23.46 0-.69-17.124-14.481-25.513-3.907-2.299-8.619-3.103-12.986-4.023-5.057-1.034-10.229-1.838-15.285-1.609-3.218.115-5.747.805-6.896 4.023-1.264 3.333-.459 7.585.69 10.918z" fill="#FE9563"/><path d="M364.541 401.089c3.333.805 6.781 1.839 10.114 2.874-.92-.92-1.724-1.839-2.759-2.759a65.9 65.9 0 00-4.597-3.218c-.114-.114 0-.344.115-.229 3.103 1.149 6.206 3.677 8.16 6.435 4.137 1.38 8.39 2.874 12.297 4.483 2.873 1.149 5.402 2.528 7.93 4.137-.919-1.724-1.724-3.448-2.873-4.942-1.839-2.413-4.252-3.678-6.666-5.401-.23-.115 0-.46.23-.345 5.401 2.413 8.734 6.321 10.688 11.607a45.63 45.63 0 017.815 7.126c9.079 10.343 16.319 24.134 16.319 38.155 0 .345-.574.46-.574.115-2.644-13.906-8.045-26.548-17.354-37.351-.69-.804-1.264-1.494-1.954-2.184-2.528-.229-4.941-.574-7.585-.574-2.988 0-5.861.46-8.734.689-4.827.345-10.114.46-14.481-1.953-.23-.115-.115-.46.115-.345 9.654 3.563 19.767-.919 29.536 1.149-4.137-4.022-8.849-7.01-14.251-9.194-.344-.115-.574-.23-.919-.345-6.206.69-12.757 2.414-18.848.345-.23-.115-.115-.345.115-.23 5.861 1.494 11.493-.345 17.239-.689-6.321-2.414-12.642-4.367-18.963-6.781-.689-.23-.689-.689-.115-.575z" fill="#263238"/><path d="M361.783 407.181c2.988.459 5.976.459 9.079.689.115 0 .115.115 0 .115-2.988.69-6.206.23-9.079-.574-.23 0-.115-.23 0-.23zm20.457-5.976c1.609.574 3.218 1.953 4.482 3.103.115.114 0 .459-.23.344-.805-.574-1.494-1.034-2.299-1.609-.689-.459-1.494-.804-2.183-1.379-.23-.115 0-.459.23-.459z" fill="#263238"/><path d="M430.854 423.615c-.115.23.23.46.345.23 0 .115.114.115.229.115 5.517 1.149 11.148 2.413 16.779 2.988 4.597.46 9.769.69 13.792-1.954 5.401-3.562 8.964-13.101 6.091-19.192-3.448-7.241-13.906-3.333-19.078-.69-8.045 3.678-14.481 10.343-18.158 18.503z" fill="#FE9563"/><path d="M426.832 426.948c3.103-2.988 6.435-5.516 9.998-7.7 2.413-4.137 6.206-7.7 10.228-10.343.23-.115.345.23.23.345-3.447 2.643-6.091 5.746-8.619 9.079 4.022-2.299 8.275-4.138 12.642-5.747 1.494-2.758 4.022-5.401 6.78-6.78 0 0 .115 0 .115.115-2.413 1.953-4.367 3.907-6.091 6.435 2.528-.919 5.172-1.838 7.7-2.758.23-.115.345.23.115.345-4.597 1.839-9.309 3.678-13.906 5.861 5.746.805 10.918.92 16.779 0 .115 0 .23.23.115.23-5.631 1.609-12.182 1.954-17.813.23-2.873 1.379-5.747 2.988-8.505 4.712 2.299-.345 4.482.115 6.781.575 4.022.804 7.93 1.494 11.952 1.379.115 0 .23.229 0 .229-7.01 1.15-13.561-1.953-20.457-1.149a57.838 57.838 0 00-7.24 5.861c-4.367 4.253-7.815 9.309-10.458 14.826-2.873 5.861-4.482 12.182-6.781 18.273-.115.23-.459.115-.459-.115 2.068-12.067 8.044-25.284 16.894-33.903z" fill="#263238"/><path d="M447.864 410.399c.459-.805 1.149-1.494 1.838-2.184.575-.574 1.264-1.264 2.069-1.494.115 0 .115.115.115.115-.575.69-1.379 1.149-1.954 1.724-.574.575-1.149 1.379-1.724 1.954-.345.115-.459 0-.344-.115zm11.491 3.793c1.035-.23 2.069-.23 3.218-.46 1.035-.23 2.069-.575 3.103-.92.115 0 .23.115.115.23-1.724 1.035-4.367 1.839-6.321 1.494-.345-.115-.345-.344-.115-.344z" fill="#263238"/><path d="M398.1 446.025l.919 10.344 3.103 35.052h27.468l3.907-35.052 1.149-10.344H398.1z" fill="#37474F"/><path d="M398.1 446.025l.919 10.344h34.478l1.149-10.344H398.1z" fill="#263238"/><path d="M395.323 451.647h41.948v-8.39h-41.948v8.39z" fill="#37474F"/><path d="M5.172 491.421l58.267-.23 58.152-.115 116.42-.23 116.419.23 58.152.115 58.153.23-58.153.345-58.152.115-116.419.114-116.42-.114-58.152-.115-58.267-.345z" fill="#E3D7C3"/><path d="M449.588 21.261H26.318v267.776h423.27V21.261z" fill="#fff"/><path d="M449.588 289.037c-.115.115-423.27.115-423.385.23-.115-.115 0-267.776-.115-267.89v-.23h.23l423.385.23c.115-.116-.115 267.545-.115 267.66zm0 0s-.23-268.236 0-267.66l-423.27.229.23-.23c0-.115.115 268.581-.23 267.546l423.27.115z" fill="#FF7B3D"/><path d="M449.588 21.261H26.318v10.344h423.27V21.26z" fill="#FF7B3D"/><path d="M36.316 26.433a2.06 2.06 0 01-2.069 2.069 2.06 2.06 0 01-2.068-2.07 2.06 2.06 0 012.068-2.068c1.15 0 2.069.92 2.069 2.069z" fill="#8E4C2D"/><path d="M44.821 26.433a2.06 2.06 0 01-2.069 2.069 2.06 2.06 0 01-2.068-2.07 2.06 2.06 0 012.068-2.068c1.15 0 2.069.92 2.069 2.069z" fill="#fff"/><path d="M53.21 26.433a2.06 2.06 0 01-2.068 2.069 2.06 2.06 0 01-2.069-2.07c0-1.148.92-2.068 2.069-2.068s2.068.92 2.068 2.069z" fill="#455A64"/><path d="M154.575 161.125h-43.786v57.348h43.786v-57.348zm52.636 0h-43.787v57.348h43.787v-57.348zm52.751 0h-43.787v57.348h43.787v-57.348zm52.636 0h-43.787v57.348h43.787v-57.348zm52.635 0h-43.786v57.348h43.786v-57.348z" fill="#FE9563"/><path d="M138.945 186.869c2.069 2.068 3.103 4.826 3.103 7.585 0 2.643-1.034 5.401-3.103 7.47a10.633 10.633 0 01-7.47 3.103h-.115a10.631 10.631 0 01-7.47-3.103c-1.035-.92-1.035-2.414 0-3.448.919-.919 2.528-.919 3.448 0 1.149 1.149 2.528 1.724 4.137 1.724 1.494 0 2.988-.575 4.022-1.724 1.15-1.149 1.724-2.643 1.724-4.022a5.832 5.832 0 00-1.724-4.138c-1.149-1.149-2.528-1.724-4.022-1.724-1.494 0-2.988.46-4.137 1.724-.92.92-2.529.92-3.448 0-.115-.115-.345-.344-.46-.574v-.115c0-.115 0-.115-.115-.23v-1.149l1.264-11.033c.115-.69.46-1.379 1.035-1.724.115 0 .115 0 .115-.115 0 0 .115 0 .115-.115.344-.115.689-.23 1.149-.23h12.642c1.379 0 2.413 1.035 2.413 2.414 0 1.264-1.034 2.413-2.413 2.413h-10.574l-.459 4.252c.919-.23 1.953-.344 2.873-.344 2.643 0 5.401 1.034 7.47 3.103zm52.635 0a10.625 10.625 0 013.103 7.47c0 2.643-1.034 5.401-3.103 7.585-2.068 2.068-4.827 3.103-7.585 3.103a10.633 10.633 0 01-7.47-3.103c-.919-.92-.919-2.529 0-3.448s2.528-.919 3.448 0c1.149 1.149 2.528 1.724 4.022 1.724a5.833 5.833 0 004.137-1.724 5.828 5.828 0 001.724-4.137c0-1.494-.574-2.988-1.724-4.023-1.149-1.149-2.528-1.724-4.022-1.724-.689 0-1.379-.229-1.724-.804-1.034-.919-1.034-2.413-.115-3.448l4.367-4.482h-6.895c-1.379 0-2.414-1.034-2.414-2.413 0-1.379 1.035-2.414 2.414-2.414h12.642c1.379 0 2.413 1.035 2.413 2.414 0 .459-.115.804-.345 1.149-.115.23-.229.46-.459.575l-5.402 5.516c1.149.575 2.184 1.264 2.988 2.184zm52.752 0a10.63 10.63 0 013.103 7.47c0 2.643-1.035 5.401-3.103 7.585-2.069 2.068-4.827 3.103-7.585 3.103a10.63 10.63 0 01-7.47-3.103c-.92-.92-.92-2.529 0-3.448.919-.919 2.528-.919 3.447 0 1.15 1.149 2.529 1.724 4.023 1.724a5.833 5.833 0 004.137-1.724 5.833 5.833 0 001.724-4.137c0-1.494-.575-2.988-1.724-4.023-1.149-1.149-2.528-1.724-4.022-1.724-.69 0-1.379-.229-1.724-.804-1.035-.919-1.035-2.413-.115-3.448l4.367-4.482h-6.895c-1.38 0-2.414-1.034-2.414-2.413 0-1.379 1.034-2.414 2.414-2.414h12.641c1.379 0 2.414 1.035 2.414 2.414 0 .459-.115.804-.345 1.149-.115.23-.23.46-.46.575l-5.401 5.516c1.034.575 2.068 1.264 2.988 2.184zm56.542 8.044c0 5.632-4.597 10.229-10.228 10.229-5.631 0-10.228-4.597-10.228-10.229 0-3.563 1.838-6.666 4.597-8.504-.92-1.15-1.379-2.644-1.379-4.253 0-3.907 3.217-7.01 7.125-7.01 3.907 0 7.01 3.218 7.01 7.01 0 1.609-.459 3.103-1.379 4.253 2.644 1.724 4.482 4.941 4.482 8.504zm-4.597 0c0-2.988-2.528-5.516-5.516-5.516-3.103 0-5.517 2.528-5.631 5.516 0 2.988 2.528 5.517 5.631 5.517 2.988 0 5.516-2.529 5.516-5.517zm-8.044-12.757c0 1.38 1.034 2.414 2.413 2.414 1.264 0 2.298-1.149 2.298-2.414a2.305 2.305 0 00-2.298-2.298c-1.264-.115-2.413.919-2.413 2.298z" fill="#455A64"/><path d="M269.04 238.585h-62.174v19.537h62.174v-19.537z" fill="#FE9563"/><path d="M220.197 249.848c.23-.23.46-.23.69-.115.46.345 1.149.804 1.839.689.459 0 .919-.115 1.149-.344.345-.23.46-.46.46-.69 0-.115 0-.23-.115-.345-.115-.115-.115-.23-.345-.344-.23-.23-.804-.345-1.264-.46-.46-.115-.92-.23-1.264-.345-.345-.23-.69-.46-.92-.804-.115-.23-.23-.46-.23-.805 0-.575.345-1.034.805-1.379.46-.345 1.034-.46 1.609-.46.919 0 1.609.46 2.068.805.23.115.345.459.115.689-.114.23-.459.345-.689.115-.46-.345-.92-.574-1.494-.574-.46 0-.805.115-1.034.344-.23.23-.345.46-.345.575 0 .115 0 .23.115.23 0 .115.115.115.23.23.229.23.689.344 1.149.459.459.115.919.23 1.379.46.345.23.689.46.919.805.115.229.23.574.23.804 0 .575-.345 1.149-.804 1.494-.46.345-1.15.575-1.839.575-1.034 0-1.954-.575-2.414-.92-.229-.115-.229-.459 0-.689zm9.425 1.724c-1.494 0-2.759-1.265-2.759-2.759v-3.447c0-.345.23-.575.575-.575s.575.23.575.575v3.447c0 .92.804 1.724 1.724 1.724.919 0 1.724-.804 1.724-1.724v-3.447c0-.345.229-.575.574-.575s.575.23.575.575v3.447c-.23 1.494-1.494 2.759-2.988 2.759zm4.942-.575v-5.631c0-.345.23-.575.574-.575h1.379c1.035 0 1.839.805 1.839 1.839 0 .46-.115.804-.345 1.149.575.345.92 1.034.92 1.724 0 1.149-.92 2.069-2.069 2.069h-1.724c-.23 0-.574-.23-.574-.575zm1.149-3.563h.804c.46 0 .805-.344.805-.804a.786.786 0 00-.805-.805h-.804v1.609zm0 2.988h1.149a1.03 1.03 0 001.035-1.034 1.03 1.03 0 00-1.035-1.034h-1.149v2.068zm10.457-5.056v5.631c0 .345-.229.575-.574.575s-.575-.23-.575-.575v-4.022l-1.379 1.953c-.115.115-.23.23-.46.23-.229 0-.344-.115-.459-.23l-1.379-1.953v4.022c0 .345-.23.575-.575.575s-.575-.23-.575-.575v-5.631c0-.345.23-.575.575-.575.115 0 .345.115.46.23l1.953 2.643 1.954-2.643c.115-.115.23-.23.46-.23s.574.23.574.575zm2.299 0c0-.345.23-.575.575-.575s.574.23.574.575v5.631c0 .345-.229.575-.574.575s-.575-.23-.575-.575v-5.631zm7.011.459h-1.494v5.172c0 .345-.23.575-.575.575s-.575-.23-.575-.575v-5.172h-1.494c-.344 0-.574-.23-.574-.574 0-.345.23-.575.574-.575h4.138c.344 0 .574.23.574.575 0 .344-.23.574-.574.574z" fill="#fff"/><path d="M246.057 68.265V77h-2.413v-8.735c0-3.332-2.529-5.976-5.632-5.976-3.103 0-5.631 2.758-5.631 5.976V77h-2.528v-8.735c0-4.712 3.677-8.619 8.159-8.619 4.482 0 8.045 3.792 8.045 8.62z" fill="#FFB592"/><path d="M229.853 70.564h2.528V77h-2.528v-6.436zm16.204.574V77h-2.413v-5.977l2.413.115z" fill="#FE9563"/><path d="M249.275 73.782h-22.526v18.733h22.526V73.782z" fill="#FE9563"/><path d="M238.932 82.976l.919 4.482h-4.022l.919-4.482c-.574-.345-.919-1.034-.919-1.724 0-1.15.919-1.954 1.954-1.954 1.149 0 1.953.92 1.953 1.954.115.805-.229 1.38-.804 1.724zm-123.201 56.543c0-.115.114-.229.229-.229h2.069a2.06 2.06 0 012.069 2.068c0 1.149-.92 2.069-2.069 2.069h-1.839v2.873c0 .115-.115.23-.23.23s-.229-.115-.229-.23v-6.781zm2.298 3.448c.919 0 1.609-.689 1.609-1.609 0-.919-.69-1.609-1.609-1.609h-1.839v3.218h1.839zm3.792-3.448c0-.115.115-.229.23-.229s.23.114.23.229v6.896c0 .115-.115.23-.23.23a.247.247 0 01-.23-.23v-6.896zm2.643 4.597c0-1.379 1.15-2.528 2.529-2.528s2.413 1.034 2.528 2.414c0 .114-.115.229-.23.229h-4.252c0 1.15.919 1.954 1.954 1.954.689 0 1.264-.345 1.609-.919.115-.115.23-.115.345-.115.114.115.114.23.114.345-.459.689-1.264 1.149-2.068 1.149a2.551 2.551 0 01-2.529-2.529zm.575-.459h3.908c-.115-.92-1.035-1.724-1.954-1.724-1.035.115-1.839.804-1.954 1.724zm10.459-1.839v4.597c0 .115-.115.23-.23.23a.247.247 0 01-.23-.23v-.804c-.46.574-1.149 1.034-1.954 1.034-1.379 0-2.413-1.149-2.413-2.529 0-1.379 1.034-2.528 2.413-2.528.805 0 1.494.345 1.954 1.034v-.804c0-.115.115-.23.23-.23s.23 0 .23.23zm-.46 2.298c0-1.149-.919-2.068-1.954-2.068-1.034 0-1.953.919-1.953 2.068 0 1.15.919 2.069 1.953 2.069 1.035 0 1.954-.919 1.954-2.069zm2.298 1.495c.115-.115.23-.115.345 0 .345.229.919.574 1.609.574.345 0 .69-.115 1.034-.345a.63.63 0 00.345-.574c0-.23-.115-.46-.345-.575-.229-.115-.574-.345-1.149-.345-.46-.115-.919-.229-1.149-.344-.345-.23-.575-.575-.575-.92 0-.459.23-.804.575-1.034.345-.23.689-.345 1.264-.345.69 0 1.149.345 1.494.575.115.115.115.23.115.345-.115.114-.23.114-.345.114-.345-.229-.804-.459-1.264-.459-.46 0-.804.115-1.034.345a.63.63 0 00-.345.574c0 .23.115.345.345.46.23.115.574.23 1.034.345.46.115.919.229 1.264.459s.575.575.575 1.035c0 .459-.23.804-.575 1.034-.345.23-.804.46-1.264.46-.804 0-1.494-.345-1.954-.69v-.689zm5.172-1.495a2.55 2.55 0 012.528-2.528c1.379 0 2.414 1.034 2.529 2.414 0 .114-.115.229-.23.229h-4.252c0 1.15.919 1.954 1.953 1.954.69 0 1.264-.345 1.609-.919.115-.115.23-.115.345-.115.115.115.115.23.115.345-.46.689-1.264 1.149-2.069 1.149a2.55 2.55 0 01-2.528-2.529zm.575-.459h3.907c-.115-.92-1.034-1.724-1.954-1.724a2.333 2.333 0 00-1.953 1.724zm8.964.459a2.55 2.55 0 012.528-2.528c1.379 0 2.413 1.034 2.528 2.414 0 .114-.115.229-.23.229h-4.252c0 1.15.92 1.954 1.954 1.954.689 0 1.264-.345 1.609-.919.115-.115.23-.115.345-.115.115.115.115.23.115.345-.46.689-1.265 1.149-2.069 1.149a2.55 2.55 0 01-2.528-2.529zm.574-.459h3.908c-.115-.92-1.035-1.724-1.954-1.724a2.334 2.334 0 00-1.954 1.724zm9.884 0c0-.92-.689-1.609-1.609-1.609-.919 0-1.609.689-1.609 1.609v2.873c0 .115-.115.115-.23.115h-.114c-.115 0-.115-.115-.115-.115v-4.712c0-.115.114-.23.229-.23s.23.115.23.23v.46c.345-.46.92-.69 1.609-.69 1.149 0 2.069.92 2.069 2.069v2.758c0 .115-.115.23-.23.23a.247.247 0 01-.23-.23v-2.758zm4.597-1.839c0 .115-.115.23-.23.23h-.69v3.792c0 .23.23.345.345.345.115 0 .23.115.23.23s-.115.23-.23.23c-.46 0-.919-.345-.919-.92v-3.792h-.69c-.23 0-.23-.115-.23-.23s0-.23.23-.23h.69v-1.954c0-.115.115-.229.23-.229s.229.114.229.229v1.954h.69c.23 0 .345.115.345.345zm1.609 2.298a2.55 2.55 0 012.528-2.528c1.379 0 2.413 1.034 2.528 2.414 0 .114-.115.229-.229.229h-4.253c0 1.15.92 1.954 1.954 1.954.69 0 1.264-.345 1.609-.919.115-.115.23-.115.345-.115.115.115.115.23.115.345-.46.689-1.264 1.149-2.069 1.149a2.55 2.55 0 01-2.528-2.529zm.574-.459h3.908c-.115-.92-1.035-1.724-1.954-1.724-1.034.115-1.839.804-1.954 1.724zm5.977-1.839c0-.115.115-.23.23-.23.114 0 .229.115.229.23v1.149s0-.115.115-.115c.345-.574 1.035-1.264 2.069-1.264.115 0 .23.115.23.23s-.115.23-.23.23c-.69 0-1.149.345-1.494.804-.345.46-.575 1.035-.575 1.15v2.413c0 .115-.115.23-.23.23-.114 0-.229-.115-.229-.23v-4.597h-.115zm9.538 0c0 .115-.115.23-.23.23h-.689v3.792c0 .23.23.345.345.345.115 0 .229.115.229.23s-.114.23-.229.23c-.46 0-.92-.345-.92-.92v-3.792h-.574c-.23 0-.23-.115-.23-.23s0-.23.23-.23h.689v-1.954c0-.115.115-.229.23-.229s.23.114.23.229v1.954h.689c.115 0 .23.115.23.345zm5.977 1.724c0-.919-.689-1.494-1.609-1.494-.919 0-1.609.575-1.609 1.494v2.873c0 .115-.115.115-.115.115-.115 0-.115 0-.23-.115v-7.125c0-.115.115-.23.23-.23s.23.115.23.23v2.758c.345-.46 1.034-.805 1.609-.805 1.149 0 2.184.805 2.184 2.069v2.873c0 .115-.115.23-.23.23a.247.247 0 01-.23-.23v-2.643h-.23zm2.298.574a2.55 2.55 0 012.528-2.528c1.38 0 2.414 1.034 2.529 2.414 0 .114-.115.229-.23.229h-4.252c0 1.15.919 1.954 1.953 1.954.69 0 1.265-.345 1.609-.919.115-.115.23-.115.345-.115.115.115.115.23.115.345-.46.689-1.264 1.149-2.069 1.149a2.55 2.55 0 01-2.528-2.529zm.575-.459h3.907c-.115-.92-1.034-1.724-1.954-1.724-1.034.115-1.838.804-1.953 1.724zm12.642-4.482c1.954 0 3.563 1.724 3.563 3.677 0 2.069-1.609 3.678-3.563 3.678-1.954 0-3.563-1.724-3.563-3.678.115-1.953 1.609-3.677 3.563-3.677zm0 7.01c1.609 0 2.988-1.379 2.988-3.218 0-1.838-1.379-3.218-2.988-3.218-1.724 0-2.988 1.38-2.988 3.218 0 1.724 1.379 3.218 2.988 3.218zm7.01-6.321h-2.184c-.115 0-.229-.115-.229-.23s.114-.229.229-.229h4.942c.115 0 .23.114.23.229s-.115.23-.23.23h-2.183v6.551c0 .115-.115.23-.23.23a.247.247 0 01-.23-.23v-6.551h-.115zm4.942-.345c0-.115.115-.229.23-.229h2.069a2.06 2.06 0 012.068 2.068 2.06 2.06 0 01-2.068 2.069h-1.839v2.873c0 .115-.115.23-.23.23a.247.247 0 01-.23-.23v-6.781zm2.299 3.448c.919 0 1.609-.689 1.609-1.609 0-.919-.69-1.609-1.609-1.609h-1.839v3.218h1.839zm6.551 1.149c0-1.379 1.149-2.528 2.643-2.528.575 0 1.149.23 1.609.575.115.115.115.23 0 .345-.115.114-.23.114-.345 0-.345-.345-.804-.46-1.379-.46-1.149 0-2.184.919-2.184 2.068 0 1.15.92 2.069 2.184 2.069.46 0 .919-.115 1.379-.46.115-.114.23 0 .345 0 .115.115.115.23 0 .345-.46.345-1.034.575-1.609.575-1.494 0-2.643-1.149-2.643-2.529zm8.388-2.643c1.379 0 2.414 1.15 2.414 2.529s-1.035 2.528-2.414 2.528c-1.379 0-2.413-1.149-2.413-2.528 0-1.264 1.034-2.529 2.413-2.529zm0 4.712c1.035 0 1.954-.919 1.954-2.068 0-1.15-.919-2.069-1.954-2.069-1.034 0-1.953.919-1.953 2.069 0 1.149.919 2.068 1.953 2.068zm8.506-.574c-.46.574-1.15 1.034-1.954 1.034a2.551 2.551 0 01-2.529-2.529c0-1.379 1.15-2.528 2.529-2.528.804 0 1.494.345 1.954 1.034v-2.988c0-.115.114-.229.229-.229s.23.114.23.229v6.896c0 .115-.115.23-.23.23s-.229-.115-.229-.23v-.919zm0-1.38v-.115c0-1.149-.92-1.953-1.954-1.953-1.035 0-1.954.919-1.954 2.068 0 1.15.919 2.069 1.954 2.069 1.034-.115 1.839-1.034 1.954-2.069zm2.297-.115c0-1.379 1.15-2.528 2.529-2.528s2.413 1.034 2.528 2.414c0 .114-.115.229-.23.229h-4.252c0 1.15.919 1.954 1.954 1.954.689 0 1.264-.345 1.609-.919.115-.115.229-.115.344-.115.115.115.115.23.115.345-.459.689-1.264 1.149-2.068 1.149-1.494 0-2.529-1.149-2.529-2.529zm.46-.459h3.908c-.115-.92-1.035-1.724-1.954-1.724a2.334 2.334 0 00-1.954 1.724zm9.08 1.954c.115-.115.23-.115.345 0 .344.229.919.574 1.609.574.344 0 .689-.115 1.034-.345a.63.63 0 00.345-.574c0-.23-.115-.46-.345-.575-.23-.115-.575-.345-1.149-.345-.46-.115-.92-.229-1.15-.344-.344-.23-.574-.575-.574-.92 0-.459.23-.804.574-1.034.345-.23.69-.345 1.265-.345.689 0 1.149.345 1.494.575.114.115.114.23.114.345-.114.114-.229.114-.344.114-.345-.229-.805-.459-1.264-.459-.46 0-.805.115-1.035.345a.63.63 0 00-.345.574c0 .23.115.345.345.46.23.115.575.23 1.035.345.459.115.919.229 1.264.459.344.23.574.575.574 1.035 0 .459-.23.804-.574 1.034-.345.23-.805.46-1.264.46-.805 0-1.494-.345-1.954-.69-.115-.46-.115-.574 0-.689zm5.172-1.495a2.55 2.55 0 012.528-2.528c1.379 0 2.413 1.034 2.528 2.414 0 .114-.115.229-.229.229h-4.253c0 1.15.92 1.954 1.954 1.954.69 0 1.264-.345 1.609-.919.115-.115.23-.115.345-.115.115.115.115.23.115.345-.46.689-1.264 1.149-2.069 1.149-1.494 0-2.528-1.149-2.528-2.529zm.459-.459h3.908c-.115-.92-1.034-1.724-1.954-1.724a2.335 2.335 0 00-1.954 1.724zm9.884 0c0-.92-.69-1.609-1.609-1.609-.92 0-1.609.689-1.609 1.609v2.873c0 .115-.115.115-.23.115h-.115c-.115 0-.115-.115-.115-.115v-4.712c0-.115.115-.23.23-.23s.23.115.23.23v.46c.345-.46.919-.69 1.609-.69a2.06 2.06 0 012.068 2.069v2.758c0 .115-.114.23-.229.23a.247.247 0 01-.23-.23v-2.758zm4.596-1.839c0 .115-.115.23-.23.23h-.689v3.792c0 .23.23.345.345.345.115 0 .23.115.23.23s-.115.23-.23.23c-.46 0-.92-.345-.92-.92v-3.792h-.689c-.23 0-.23-.115-.23-.23s0-.23.23-.23h.689v-1.954c0-.115.115-.229.23-.229s.23.114.23.229v1.954h.69c.229 0 .344.115.344.345zm7.356 0c0 .115-.115.23-.23.23h-.689v3.792c0 .23.229.345.344.345.115 0 .23.115.23.23s-.115.23-.23.23c-.459 0-.919-.345-.919-.92v-3.792h-.69c-.229 0-.229-.115-.229-.23s0-.23.229-.23h.69v-1.954c0-.115.115-.229.23-.229s.23.114.23.229v1.954h.689c.23 0 .345.115.345.345zm4.481-.345c1.38 0 2.414 1.15 2.414 2.529s-1.034 2.528-2.414 2.528c-1.379 0-2.413-1.149-2.413-2.528 0-1.264 1.034-2.529 2.413-2.529zm0 4.712c1.035 0 1.954-.919 1.954-2.068 0-1.15-.919-2.069-1.954-2.069-1.034 0-1.953.919-1.953 2.069 0 1.149.919 2.068 1.953 2.068zm7.012-4.482c0-.115.114-.23.229-.23s.23.115.23.23v2.758c0 .92.69 1.609 1.609 1.609.92 0 1.609-.689 1.609-1.609v-2.873s.115 0 .115-.115h.115l.115.115v4.597c0 1.379-1.149 2.414-2.414 2.414-.344 0-.689-.115-1.034-.23-.115-.115-.115-.23-.115-.345.115-.115.23-.115.345-.115.23.115.575.23.804.23 1.035 0 1.954-.804 1.954-1.954v-.23c-.345.46-.919.69-1.609.69a2.06 2.06 0 01-2.068-2.069v-2.873h.115zm8.503-.23c1.379 0 2.414 1.15 2.414 2.529s-1.035 2.528-2.414 2.528c-1.379 0-2.413-1.149-2.413-2.528 0-1.264 1.149-2.529 2.413-2.529zm0 4.712c1.035 0 1.954-.919 1.954-2.068 0-1.15-.919-2.069-1.954-2.069-1.034 0-1.953.919-1.953 2.069 0 1.149.919 2.068 1.953 2.068zm4.138-4.482c0-.115.115-.23.23-.23s.23.115.23.23v2.758c0 .92.689 1.609 1.608 1.609.92 0 1.609-.689 1.609-1.609v-2.758c0-.115.115-.23.23-.23s.23.115.23.23v2.758a2.06 2.06 0 01-2.069 2.069 2.06 2.06 0 01-2.068-2.069v-2.758zm6.551.115c0-.115.115-.23.23-.23s.23.115.23.23v1.149s0-.115.114-.115c.345-.574 1.035-1.264 2.069-1.264.115 0 .23.115.23.23s-.115.23-.23.23c-.689 0-1.149.345-1.494.804-.345.46-.575 1.035-.575 1.15v2.413c0 .115-.114.23-.229.23a.247.247 0 01-.23-.23v-4.597h-.115zm11.378 1.839c0-.92-.69-1.609-1.609-1.609-.92 0-1.609.689-1.609 1.609v2.873c0 .115-.115.115-.23.115h-.115c-.115 0-.115-.115-.115-.115v-4.712c0-.115.115-.23.23-.23s.23.115.23.23v.46c.345-.46.919-.69 1.609-.69a2.06 2.06 0 012.068 2.069v2.758c0 .115-.115.23-.229.23a.247.247 0 01-.23-.23v-2.758zm2.757-1.954c0-.115.115-.23.23-.23s.23.115.23.23v2.758c0 .92.69 1.609 1.609 1.609s1.609-.689 1.609-1.609v-2.758c0-.115.115-.23.23-.23s.23.115.23.23v2.758a2.06 2.06 0 01-2.069 2.069 2.06 2.06 0 01-2.069-2.069v-2.758zm13.906 1.954c0-.92-.689-1.609-1.609-1.609-.919 0-1.609.689-1.609 1.609v2.758c0 .115-.115.115-.115.115h-.229v-2.873c0-.92-.69-1.609-1.609-1.609-.92 0-1.609.689-1.609 1.609v2.758c0 .115 0 .115-.115.23h-.115a.247.247 0 01-.23-.23v-4.597c0-.115.115-.23.23-.23s.23.115.23.23v.46c.344-.46.919-.69 1.609-.69.804 0 1.494.46 1.838 1.149a2.061 2.061 0 013.908.92v2.758c0 .115-.115.23-.23.23a.247.247 0 01-.23-.23v-2.758h-.115zm2.529.574v-4.712c0-.115.114-.229.229-.229s.23.114.23.229v2.988c.46-.574 1.149-1.034 1.954-1.034a2.55 2.55 0 012.528 2.528 2.55 2.55 0 01-2.528 2.529c-.805 0-1.494-.345-1.954-1.034v.689c0 .115-.115.23-.23.23s-.229-.115-.229-.23v-1.954zm.574-.115c0 1.15.92 2.069 1.954 2.069 1.149 0 1.954-.919 1.954-2.069 0-1.149-.92-2.068-1.954-2.068-1.034 0-1.954.919-1.954 2.068zm6.092 0a2.55 2.55 0 012.528-2.528c1.38 0 2.414 1.034 2.529 2.414 0 .114-.115.229-.23.229h-4.367c0 1.15.919 1.954 1.954 1.954.689 0 1.264-.345 1.608-.919.115-.115.23-.115.345-.115.115.115.115.23.115.345-.46.689-1.264 1.149-2.068 1.149-1.38 0-2.414-1.149-2.414-2.529zm.46-.459h3.907c-.115-.92-1.034-1.724-1.953-1.724a2.334 2.334 0 00-1.954 1.724zm5.975-1.839c0-.115.115-.23.23-.23s.23.115.23.23v1.149s0-.115.115-.115c.345-.574 1.034-1.264 2.069-1.264.115 0 .23.115.23.23s-.115.23-.23.23c-.69 0-1.15.345-1.494.804-.345.46-.575 1.035-.575 1.15v2.413c0 .115-.115.23-.23.23a.247.247 0 01-.23-.23v-4.597h-.115zm-171.123-23.1l-.115-.115v-.115l-.115-.115-.115-.115-4.942-11.837c-.229-.575 0-1.264.575-1.494.575-.23 1.149 0 1.494.574l3.908 9.424 3.907-9.424c.23-.574.919-.804 1.494-.574.575.23.805.919.575 1.494l-5.057 11.837s0 .115-.115.115l-.115.115v.115l-.115.115-.115.115h-.689c-.345 0-.46 0-.46-.115zm8.159-4.827c0-2.758 2.184-5.057 4.942-5.057 2.643 0 4.712 1.954 4.942 4.712v.345c-.115.46-.46.805-1.034.805h-6.436c.115.459.345 1.034.689 1.379.46.459 1.265.804 1.954.919.69.115 1.609-.115 2.069-.46.459-.459 1.264-.344 1.494-.114.23.229.459.919 0 1.264-1.035.919-2.184 1.379-3.678 1.379-2.758-.115-4.827-2.414-4.942-5.172zm2.299-1.034h5.746c-.23-.805-1.264-1.954-2.988-2.184-1.839.115-2.643 1.379-2.758 2.184zm16.665-2.988a1.03 1.03 0 01-1.035 1.034c-.459 0-.919.115-1.264.345-.345.23-.689.574-.919.919-.46.69-.69 1.379-.805 1.724v3.908c0 .574-.459 1.034-1.149 1.034a1.03 1.03 0 01-1.034-1.034v-8.045a1.03 1.03 0 011.034-1.035c.575 0 1.149.46 1.149 1.035v.115c.115-.115.23-.345.46-.46.69-.46 1.494-.805 2.528-.805.575.23 1.035.69 1.035 1.265zm4.826-3.563c0 .575-.46 1.149-1.149 1.149a1.15 1.15 0 01-1.149-1.149v-.46c0-.574.459-1.149 1.149-1.149.575 0 1.149.46 1.149 1.149v.46zm0 3.678v7.929c0 .575-.46 1.15-1.149 1.15-.575 0-1.149-.46-1.149-1.15v-7.929c0-.69.459-1.15 1.149-1.15.689 0 1.149.46 1.149 1.15zm6.781-1.839v.23h.575c.574 0 1.149.459 1.149 1.149 0 .575-.46 1.149-1.149 1.149h-.575v7.126c0 .574-.46 1.149-1.149 1.149-.575 0-1.149-.46-1.149-1.149v-7.126h-.575a1.15 1.15 0 01-1.149-1.149 1.15 1.15 0 011.149-1.149h.575v-.23c0-.805.115-1.379.344-1.954.23-.575.805-1.034 1.494-1.264.46-.115.805-.115 1.265-.115.574 0 1.149.46 1.149 1.149 0 .575-.46 1.15-1.149 1.15-.23 0-.46 0-.575.114-.115 0-.115 0-.115.115.115-.229-.115.115-.115.805zm6.321-1.839c0 .575-.46 1.149-1.149 1.149a1.15 1.15 0 01-1.149-1.149v-.46c0-.574.459-1.149 1.149-1.149.574 0 1.149.46 1.149 1.149v.46zm0 3.678v7.929c0 .575-.46 1.15-1.149 1.15-.575 0-1.149-.46-1.149-1.15v-7.929c0-.69.459-1.15 1.149-1.15.689 0 1.149.46 1.149 1.15zm2.758 3.907c0-2.873 2.298-5.057 5.171-5.057 1.264 0 2.299.46 3.218 1.15.46.345.575 1.034.23 1.494-.46.459-1.034.574-1.494.23-.575-.345-1.149-.69-1.954-.69-1.609 0-2.988 1.379-2.988 2.873 0 1.609 1.379 2.873 2.988 2.873.69 0 1.379-.23 1.954-.689.46-.345 1.149-.23 1.494.23.345.459.23 1.149-.23 1.494-.919.574-1.954 1.034-3.218 1.034a4.96 4.96 0 01-5.171-4.942zm20.916 0v4.023a1.03 1.03 0 01-1.034 1.034c-.574 0-.919-.345-1.034-.919-.805.574-1.724.919-2.643.919-1.38 0-2.529-.575-3.448-1.494-.92-.92-1.379-2.184-1.379-3.563s.459-2.643 1.379-3.562c.919-.92 2.068-1.495 3.448-1.495 1.034 0 1.953.345 2.643.92.115-.46.574-.92 1.034-.92.575 0 1.034.46 1.034 1.15v3.907zm-2.183 0c0-.804-.345-1.609-.805-2.068-.459-.575-1.149-.805-1.838-.805-.69 0-1.379.23-1.839.805-.46.459-.805 1.264-.805 2.068 0 .805.23 1.609.805 2.069.46.46 1.149.804 1.839.804.689 0 1.379-.23 1.838-.804.46-.46.805-1.149.805-2.069zm10.688-3.907c0 .574-.575 1.149-1.15 1.149h-.459v5.631c.574 0 1.149.46 1.149 1.149 0 .69-.46 1.15-1.149 1.15a2.306 2.306 0 01-2.299-2.299v-5.631h-.574c-.575 0-1.15-.46-1.15-1.149 0-.575.46-1.15 1.15-1.15h.574v-2.988c0-.574.46-1.149 1.15-1.149.574 0 1.149.46 1.149 1.149v2.988h.459c.575 0 1.15.46 1.15 1.15zm5.746-3.678a1.15 1.15 0 01-1.149 1.149c-.574 0-1.149-.459-1.149-1.149v-.46c0-.574.46-1.149 1.149-1.149.575 0 1.149.46 1.149 1.149v.46zm0 3.678v7.929c0 .575-.459 1.15-1.149 1.15-.574 0-1.149-.46-1.149-1.15v-7.929c0-.69.46-1.15 1.149-1.15.69 0 1.149.46 1.149 1.15zm4.482 7.47c-.92-.92-1.379-2.184-1.379-3.563s.574-2.528 1.379-3.562c.919-.92 2.068-1.495 3.447-1.495 1.38 0 2.529.575 3.333 1.495.92.919 1.379 2.183 1.379 3.562s-.459 2.643-1.379 3.563c-.804.919-2.068 1.494-3.333 1.494-1.379.115-2.528-.46-3.447-1.494zm.804-3.563c0 .92.23 1.609.69 2.184a2.773 2.773 0 001.953.804c.69 0 1.38-.23 1.839-.804.46-.575.805-1.264.805-2.184 0-.804-.23-1.609-.805-2.068-.459-.46-1.149-.805-1.839-.805a2.77 2.77 0 00-1.953.805c-.46.574-.69 1.264-.69 2.068zm19.308-.805v4.827a1.03 1.03 0 01-1.035 1.035 1.03 1.03 0 01-1.034-1.035v-4.827a2.06 2.06 0 00-2.069-2.068 2.06 2.06 0 00-2.068 2.068v5.057c-.115.46-.575.92-1.035.92a1.03 1.03 0 01-1.034-1.035v-7.93c0-.574.46-1.034 1.034-1.034.46 0 .805.23 1.035.575.574-.345 1.379-.575 2.183-.575 2.184-.23 4.023 1.724 4.023 4.022z" fill="#263238"/><path d="M501.419 45.05s-7.585 60.451-19.997 74.013c-14.941 16.319-25.744 13.906-31.72 22.295-5.976-8.389-16.779-5.976-31.719-22.41-12.412-13.561-19.997-74.012-19.997-74.012 32.754-15.86 51.716-33.673 51.716-33.673.575.69 19.538 18.158 51.717 33.788z" fill="#FE9563"/><path opacity=".1" d="M449.702 11.378v129.98c-5.976-8.389-16.779-5.976-31.719-22.41-12.412-13.561-19.997-74.012-19.997-74.012 32.754-15.86 51.716-33.558 51.716-33.558z" fill="#FF9564"/><path d="M406.031 49.877s6.321 51.027 16.894 62.52c12.642 13.791 21.721 11.722 26.778 18.848 5.056-7.126 14.251-5.057 26.777-18.848 10.459-11.493 16.894-62.52 16.894-62.52-27.582-13.446-43.671-28.386-43.671-28.386s-15.975 14.94-43.672 28.386z" fill="#FF7B3D"/><path d="M449.702 96.653c11.171 0 20.227-9.056 20.227-20.227 0-11.171-9.056-20.227-20.227-20.227-11.17 0-20.226 9.056-20.226 20.227 0 11.17 9.056 20.227 20.226 20.227z" fill="#455A64"/><path d="M447.404 89.527l-8.964-9.424 3.332-3.218 4.942 5.172 10.688-16.434 3.908 2.528-13.906 21.376z" fill="#fff"/><path d="M493.375 132.509l-2.873.575-.575 2.988-.69-2.988-2.873-.575 2.873-.69.69-2.873.575 2.873 2.873.69zm-84.815-22.985l-2.873.575-.575 2.988-.689-2.988-2.873-.575 2.873-.69.689-2.758.575 2.758 2.873.69zm13.101-79.529l-2.873.575-.69 2.988-.574-2.988-2.874-.575 2.874-.689.574-2.873.69 2.873 2.873.69zm66.657 88.953l-1.609.345-.345 1.609-.46-1.609-1.494-.345 1.494-.345.46-1.609.345 1.609 1.609.345zM499.35 85.39l-1.609.23-.345 1.723-.344-1.724-1.609-.23 1.609-.46.344-1.493.345 1.494 1.609.46zm-13.561-58.957l-1.609.345-.345 1.609-.344-1.61-1.609-.344 1.609-.345.344-1.609.345 1.61 1.609.344zm-40.913 122.28l-1.609.23-.345 1.724-.344-1.724-1.609-.23 1.609-.46.344-1.608.345 1.608 1.609.46zm-45.165-35.167l-1.609.23-.345 1.724-.345-1.724-1.609-.23 1.609-.46.345-1.608.345 1.608 1.609.46zm2.413-46.774l-1.609.23-.345 1.724-.345-1.724-1.609-.23 1.609-.46.345-1.609.46 1.61 1.494.459zm67.232 59.761c-.575 0-.575.919 0 .919.574 0 .574-.919 0-.919zm-73.783-84.126c-.574 0-.574.92 0 .92.575 0 .575-.92 0-.92zm88.263 86.769c-.575 0-.575.919 0 .919.574 0 .574-.919 0-.919zm-47.005-72.518c-.575 0-.575.92 0 .92.574 0 .574-.92 0-.92zM393.849 75.39c-.574 0-.574.92 0 .92.575 0 .575-.92 0-.92zm-10.803-5.056c-.46 0-.46.69 0 .69.46-.115.46-.69 0-.69zm88.493-49.992c-.46 0-.46.69 0 .69.459 0 .459-.69 0-.69zm-45.74 112.397c-.46 0-.46.689 0 .689.344 0 .344-.689 0-.689zm-10.344-5.976c-1.149 0-1.149 1.724 0 1.724s1.149-1.724 0-1.724z" fill="#FFC727"/><path opacity=".2" d="M493.672 49.877s-6.321 51.027-16.894 62.52c-12.527 13.791-21.721 11.722-26.778 18.848V21.491c.575.46 16.549 15.17 43.672 28.386z" fill="#fff"/><path d="M194.568 204.452v19.308h5.057v8.849l8.849-8.849h59.876v-19.308h-73.782z" fill="#fff"/><path d="M194.568 204.452c0 6.551.23 12.987.23 19.308l-.23-.23h5.286v9.079l-.459-.23 8.734-8.849c.115-.115.115-.115.23-.115 14.94 0 44.936-.115 59.876-.115l-.46.46v-19.308l.345.345c-18.158 0-55.164-.23-73.552-.345zm0 0l36.776-.229 37.006-.115h.345v20.112h-30.341c.115-.115-30.8.115-29.65-.115l-8.85 8.734-.459.46v-9.539l.23.23h-5.287v-.23c0-6.436.115-12.872.23-19.308z" fill="#FE9563"/><path d="M207.44 211.463v2.643h-.689v-2.643c0-1.034-.805-1.839-1.724-1.839-.919 0-1.724.805-1.724 1.839v2.643h-.689v-2.643c0-1.379 1.034-2.528 2.413-2.528 1.379 0 2.413 1.149 2.413 2.528z" fill="#FE9563"/><path d="M202.614 212.153h.804v1.953h-.804v-1.953zm4.826.229v1.724h-.69v-1.839l.69.115z" fill="#263238"/><path d="M208.36 213.072h-6.665v5.516h6.665v-5.516zm10.686-1.265a9.03 9.03 0 01-4.137 4.138c.919-1.724 2.298-3.103 4.137-4.138z" fill="#FE9563"/><path d="M214.909 211.807a9.03 9.03 0 014.137 4.138c-1.839-.92-3.218-2.299-4.137-4.138z" fill="#FE9563"/><path d="M219.85 213.876a10.173 10.173 0 01-5.861 0c1.954-.575 4.022-.575 5.861 0z" fill="#FE9563"/><path d="M216.977 211.003a10.19 10.19 0 010 5.861 10.173 10.173 0 010-5.861zm12.183.805c-.919 1.838-2.298 3.218-4.137 4.137.92-1.724 2.299-3.103 4.137-4.137z" fill="#FE9563"/><path d="M225.023 211.808a9.013 9.013 0 014.137 4.137c-1.838-.919-3.217-2.299-4.137-4.137z" fill="#FE9563"/><path d="M230.08 213.876a10.176 10.176 0 01-5.862 0c1.839-.574 3.908-.574 5.862 0z" fill="#FE9563"/><path d="M227.091 211.003a10.173 10.173 0 010 5.861 10.19 10.19 0 010-5.861zm12.183.805c-.92 1.838-2.299 3.218-4.138 4.137.92-1.724 2.414-3.103 4.138-4.137z" fill="#FE9563"/><path d="M235.136 211.808c1.839.919 3.218 2.298 4.138 4.137-1.724-.919-3.218-2.299-4.138-4.137z" fill="#FE9563"/><path d="M240.193 213.876a10.173 10.173 0 01-5.861 0 10.19 10.19 0 015.861 0z" fill="#FE9563"/><path d="M237.204 211.003a10.173 10.173 0 010 5.861 10.19 10.19 0 010-5.861zm12.183.805c-.92 1.838-2.299 3.218-4.138 4.137.92-1.724 2.414-3.103 4.138-4.137z" fill="#FE9563"/><path d="M245.249 211.808c1.839.919 3.218 2.298 4.138 4.137-1.724-.919-3.218-2.299-4.138-4.137z" fill="#FE9563"/><path d="M250.306 213.876a10.173 10.173 0 01-5.861 0 10.19 10.19 0 015.861 0z" fill="#FE9563"/><path d="M247.317 211.003a10.173 10.173 0 010 5.861 10.19 10.19 0 010-5.861zm12.183.804a9.027 9.027 0 01-4.138 4.138 11.898 11.898 0 014.138-4.138z" fill="#FE9563"/><path d="M255.362 211.807a9.027 9.027 0 014.138 4.138c-1.724-.92-3.103-2.299-4.138-4.138z" fill="#FE9563"/><path d="M260.419 213.876a10.173 10.173 0 01-5.861 0 10.173 10.173 0 015.861 0z" fill="#FE9563"/><path d="M257.431 211.003a10.173 10.173 0 010 5.861 10.19 10.19 0 010-5.861z" fill="#FE9563"/><path d="M113.775 437.981l-66.426 53.44h3.792l76.655-53.44h-14.021z" fill="#53595B"/><path d="M119.982 437.981l-32.754 53.44h3.678l40.223-53.44h-11.147z" fill="#53595B"/><path d="M136.071 437.981l32.754 53.44h-3.678l-40.224-53.44h11.148z" fill="#53595B"/><path d="M141.817 437.981l66.312 53.44h-3.677l-76.656-53.44h14.021z" fill="#C7C7C7"/><path d="M252.605 418.328v-15.629l-91.136-3.793-48.153-128.487H2.987l39.075 147.909 93.204 26.203h5.862l111.477-26.203z" fill="#455A64"/><path opacity=".1" d="M2.987 270.419H15.63l40.684 134.808 82.401 23.33 113.891-25.858v15.629l-111.477 26.203h-5.862l-93.204-26.203L2.987 270.419z" fill="#000"/><path d="M202.959 515.785c-2.759-1.034-65.393-52.291-66.542-55.739-.46-1.264 6.436-10.803 15.17-22.18 1.839-2.414 3.793-4.942 5.861-7.47 12.987-16.435 27.123-33.674 27.123-33.674l41.947 34.133-28.271 32.754-6.206 7.24s15.17 30.341 15.974 34.248c.92 3.907-2.298 11.722-5.056 10.688z" fill="#AD6359"/><path d="M202.959 515.785c-2.759-1.034-65.393-52.291-66.542-55.739-.575-1.609 9.769-15.4 21.031-29.65l40.799 33.213-6.206 7.24s15.17 30.341 15.974 34.248c.92 3.907-2.298 11.722-5.056 10.688z" fill="#EBEBEB"/><path d="M202.958 515.785c-2.758-1.034-65.392-52.291-66.542-55.739-.459-1.264 6.436-10.803 15.171-22.18l40.453 32.983s15.17 30.341 15.975 34.248c.919 3.908-2.299 11.722-5.057 10.688z" fill="#FE9563"/><path d="M204.108 512.567c-10.228-8.849-52.521-43.556-63.439-51.486-.115-.115-.115 0 0 .115 9.999 8.964 52.521 43.327 63.324 51.601.23.115.345-.115.115-.23zm1.839-13.101c-2.414-2.184-5.746-2.988-8.39-2.529-2.413.345-5.171 1.494-6.895 3.678 0 .115.115.115.115.115 3.907-3.563 10.688-4.137 15.055-1.034.115 0 .23-.115.115-.23zm-10.689-24.249c-4.137-3.448-10.228-5.976-15.629-4.712-.23 0-.115.345 0 .345 5.401 1.149 10.228 2.643 15.285 4.941.344.115.689-.344.344-.574zm2.299 3.907c-4.137-3.448-10.228-5.976-15.63-4.712-.23 0-.115.345 0 .345 5.402 1.149 10.228 2.643 15.285 4.942.345.115.575-.345.345-.575zm2.184 3.908c-4.137-3.448-10.228-5.976-15.63-4.712-.23 0-.115.345 0 .345 5.402 1.149 10.228 2.643 15.285 4.941.345.115.575-.344.345-.574zm2.183 3.907c-4.137-3.448-10.228-5.976-15.63-4.712-.23 0-.115.345 0 .345 5.402 1.149 10.228 2.643 15.285 4.942.345.115.575-.345.345-.575z" fill="#263238"/><path d="M151.587 453.266c-4.712-3.793-10.688 3.448-5.976 7.355 4.712 3.793 10.688-3.563 5.976-7.355z" fill="#fff"/><path d="M209.049 467.632c-.689-3.448-4.712-4.023-7.585-3.218-4.597 1.264-9.424 4.137-12.641 7.585-.115.115 0 .23 0 .23-.115.344-.001.919.459.919 4.712.345 9.654 1.379 14.251.345 2.873-.575 6.091-2.529 5.516-5.861zm-12.527 4.712c-2.298-.115-4.597-.345-6.895-.46 2.413-1.494 4.827-3.103 7.47-4.252 1.264-.575 2.528-1.15 3.908-1.609 2.068-.69 9.079-.805 5.746 4.137-1.954 2.758-7.47 2.413-10.229 2.184z" fill="#263238"/><path d="M177.1 465.103c3.218 3.563 7.815 5.632 11.837 8.045.46.23.805-.115.92-.46.114 0 .229 0 .114-.114-.689-4.598-2.873-9.884-5.976-13.447-1.838-2.183-5.516-4.252-8.044-1.724-2.299 2.069-.69 5.632 1.149 7.7zm-.575-4.482c.115-5.976 5.746-1.839 7.011-.115.804 1.15 1.609 2.299 2.298 3.563 1.379 2.528 2.414 5.172 3.678 7.815-1.954-1.264-3.908-2.413-5.861-3.678-2.414-1.494-7.126-4.367-7.126-7.585zm93.549-93.894c-3.218 21.951-58.152 84.815-64.473 92.055a40.531 40.531 0 01-1.494 1.609l-44.361-35.052.574-.69 40.109-51.256-117.798-2.184 45.166-34.248s3.562 2.184 11.147 1.15c26.088-3.448 84.815-11.148 98.606-10.459 17.699 1.035 35.512 18.848 32.524 39.075z" fill="#263238"/><path d="M214.795 354.43c-1.494 1.494-2.758 3.448-4.137 5.171-1.379 1.839-2.873 3.563-4.252 5.402.23-.575.46-1.034.804-1.609.92-1.839 1.609-3.678 2.644-5.402.115-.114-.115-.229-.115-.114-1.035 1.723-2.299 3.332-3.333 5.171-.46.805-.805 1.724-1.264 2.643-.23.46-.46.92-.575 1.494-.115.23-.23.46-.23.69-.689.805-1.264 1.724-1.839 2.528-1.379 1.954-2.528 3.908-3.907 5.862-.115.114.115.229.115.114 1.379-1.723 2.988-3.447 4.367-5.171l4.137-5.517c1.265-1.838 2.644-3.677 3.908-5.516 1.149-1.839 2.643-3.678 3.677-5.746.115 0 0-.115 0 0zm-4.482 95.618c-2.528-2.184-5.286-4.253-7.929-6.321a369.412 369.412 0 00-8.045-6.091c-5.402-4.023-10.803-8.16-16.205-12.182-2.988-2.184-5.976-4.368-9.079-6.321-.115-.115-.23.115-.115.229 5.172 4.368 10.573 8.39 15.975 12.412 5.401 4.023 10.803 8.045 16.319 12.068 2.988 2.183 5.976 4.367 9.079 6.435 0 .115.115-.115 0-.229z" fill="#37474F"/><path d="M114.581 279.039c12.182 23.33 26.777 47.924 40.453 51.601 13.102 3.448 44.132-29.191 49.418-39.994 1.839-3.677-22.755-20.112-26.318-17.353-6.55 5.171-20.916 21.605-22.985 21.146-2.183-.46-19.537-15.975-35.282-29.076-9.424-7.815-13.676-2.414-5.286 13.676z" fill="#AD6359"/><path d="M182.731 235.482l-9.424 32.984c-.344.919.115 1.723 1.035 1.838l17.123.575c.92 0 2.069-.69 2.414-1.724l9.424-32.984c.345-.919-.115-1.723-1.035-1.838l-17.123-.575c-.92 0-2.069.805-2.414 1.724z" fill="#A6A6A6"/><path d="M184.8 235.597l-9.424 32.984c-.345.919.115 1.723 1.034 1.838l17.124.575c.919 0 2.069-.69 2.413-1.724l9.424-32.984c.345-.919-.115-1.723-1.034-1.838l-17.124-.575c-1.034 0-2.069.69-2.413 1.724z" fill="#DBDBDB"/><path d="M189.397 237.206c0 .804-.69 1.379-1.494 1.379-.805 0-1.379-.69-1.379-1.494 0-.805.689-1.379 1.494-1.379.804 0 1.379.689 1.379 1.494z" fill="#455A64"/><path d="M212.497 271.913c1.494-9.539.345-12.297 5.861-19.652 3.563-4.827 2.069-9.309-3.677-6.551-9.309 4.482-13.791 16.434-14.136 21.032l11.952 5.171z" fill="#AD6359"/><path d="M200.085 297.082s8.964-10.458 11.492-20.457c1.724-6.895 3.908-22.525-11.263-37.58-3.562-3.563-11.262-6.091-7.47 1.839 2.643 5.631 6.091 8.504 7.011 12.067 0 0-10.114-2.069-13.562 1.724-1.494 1.724-5.631 6.321-8.274 10.458 0 0 .689.804 1.839 1.724 0 0-2.873 3.792-2.299 11.033l22.526 19.192z" fill="#AD6359"/><path d="M212.267 269.73c-1.724-3.333-5.401-10.344-10.458-15.056-5.632-5.171-17.814-13.791-21.606-9.653-2.758 3.103 1.609 6.78 1.609 6.78s-5.746-2.528-7.7.805c-1.724 2.988 1.839 5.631 1.839 5.631s-3.793-.919-4.942 2.299c-1.379 3.907 6.78 5.171 8.849 10.228.345 1.264 32.409-1.034 32.409-1.034z" fill="#AD6359"/><path d="M197.212 261.455c-2.069-2.873-8.62-8.274-15.4-9.768-.115 0-.23.114-.115.114 7.125 3.218 13.101 7.7 15.515 9.654zm-5.402 5.517c-2.068-2.299-8.964-7.471-15.974-8.85-.115 0-.23.115-.115.115 7.585 3.103 13.561 6.896 16.089 8.735z" fill="#263238"/><path d="M169.745 277.545l25.628 27.237s-27.122 30.34-39.764 27.237c-12.757-3.218-36.776-37.58-44.476-59.416-5.287-15.17 3.103-12.642 11.952-5.287 8.849 7.47 31.949 25.858 32.983 25.514.92-.345 13.677-15.285 13.677-15.285z" fill="#FE9563"/><path opacity=".1" d="M161.125 331.674c-1.954.575-3.907.69-5.516.23-12.757-3.218-36.776-37.58-44.476-59.416-3.563-9.999-1.035-12.297 3.562-10.573 13.906 20.456 32.294 48.039 46.43 69.759z" fill="#000"/><path d="M187.098 309.264c-3.678-3.792-18.388-19.652-21.261-23.33-.23-.23-.115-.46.115-.23 11.377 10.918 17.813 19.538 21.261 23.33.115.23 0 .345-.115.23z" fill="#263238"/><path d="M143.197 352.706s-84.24 15.4-84.7 14.94c-.345-.459 9.309-91.595 37.81-106.995 4.483-2.414 15.515-3.908 20.112.919 13.447 13.561 27.812 89.872 26.778 91.136z" fill="#FE9563"/><path d="M142.278 345.121l-82.976 14.251c.345-2.529.69-5.517 1.264-8.85l80.218-13.791c.575 3.218 1.149 6.091 1.494 8.39zm-2.414-12.757L61.37 345.81c.23-1.494.46-2.988.805-4.597l76.885-13.216c.23 1.494.575 2.988.804 4.367z" fill="#EBEBEB"/><path d="M112.742 275.361c-4.712 0-10.688-8.619-12.412-14.94-.115-.46 1.379-4.252 3.103-9.079 1.034-2.873 2.069-6.091 2.758-9.194l17.814 9.194s-3.448 5.861-4.597 11.147c-.115.46-.115.92-.115 1.265v.23c-.23 2.643-1.954 11.377-6.551 11.377z" fill="#AD6359"/><path d="M124.12 251.571s-3.448 5.862-4.597 11.148c-.115.46-.115.805-.115 1.264v.23c-.575 0-1.264-.115-1.954-.345-11.032-2.873-10.803-17.353-10.573-21.261l17.239 8.964z" fill="#263238"/><path d="M105.502 221.461c-2.873 6.666-1.379 26.893 2.988 31.834 6.436 7.241 17.928 9.08 24.364 1.15 6.206-7.7 3.907-34.018-1.149-38.73-7.47-6.666-21.951-4.022-26.203 5.746z" fill="#AD6359"/><path d="M124.005 236.057l-.115.115c.115 1.379.115 2.873-1.034 3.448v.115c1.494-.345 1.494-2.414 1.149-3.678z" fill="#263238"/><path d="M122.626 234.793c-2.184 0-1.954 4.367.115 4.367 1.954 0 1.724-4.367-.115-4.367zm9.31.804s.115.115 0 0c.115 1.494.344 2.988 1.609 3.447v.115c-1.494-.115-1.839-2.183-1.609-3.562z" fill="#263238"/><path d="M133.084 234.218c2.184-.23 2.529 4.137.575 4.367-1.954.23-2.413-4.137-.575-4.367zm-12.297-1.379c.575-.23 1.15-.46 1.609-.69.69-.23 1.15-.459 1.609-1.034.23-.345.115-.919-.23-1.149-.689-.575-1.494-.46-2.298-.115-.804.345-1.379.804-1.839 1.609-.46.804.345 1.609 1.149 1.379zm13.906-.92l-1.724-.344c-.689-.115-1.264-.23-1.724-.69-.23-.23-.23-.804 0-1.149.575-.69 1.494-.69 2.299-.575.919.115 1.494.46 2.183 1.149.46.69-.23 1.609-1.034 1.609zm-11.492 16.205c.229.345.574.804 1.034.919.46.115 1.034 0 1.494-.115 0 0 .115 0 0 .115-.46.46-1.149.69-1.839.46-.574-.23-.804-.805-.919-1.379h.23z" fill="#263238"/><path d="M124.694 244.216c.805 1.15 1.954 1.724 3.218 1.839a4.35 4.35 0 001.724 0c.115 0 .46-.115.574-.115.115 0 .23-.115.23-.345l-.23-2.873c.345.115 2.414.92 2.299.345-.46-4.482-1.034-9.539-2.528-13.906 0-.115-.23-.115-.23 0 .345 4.367 1.379 8.62 1.839 12.987-.69-.23-1.724-.575-2.184-.575-.115 0 .345 3.563.345 3.563-1.724.345-3.103-.115-4.827-1.264-.23.115-.345.229-.23.344z" fill="#263238"/><path d="M129.062 245.826s-.92 1.264-2.299 1.838c-.46.23-1.034.23-1.609.115-1.149-.345-1.149-1.379-.919-2.183.115-.69.459-1.379.459-1.379s1.724 1.494 4.368 1.609z" fill="#263238"/><path d="M126.763 247.664c-.46.23-1.034.23-1.609.115-1.149-.344-1.149-1.379-.919-2.183 1.264 0 2.413.804 2.528 2.068z" fill="#FF9CBD"/><path d="M103.663 239.849c5.287.46 8.045-5.861 6.896-10.918 0 0 14.02 1.954 14.825-9.309 0 0 3.333 5.172 9.769 5.287l.919 3.907c1.494-.459 2.988-4.482-.46-7.7 0 0-.23-5.631-4.367-9.079-4.137-3.447-8.274-1.264-8.274-1.264s-3.333-2.758-8.505-2.183c-5.172.574-7.355 5.286-7.355 5.286s-7.011 1.264-8.16 6.206c-1.264 4.942 1.264 8.275 1.264 8.275s-1.724 1.953-.92 6.206c.576 2.873 2.759 5.171 4.368 5.286z" fill="#263238"/><path d="M125.039 218.588c.115.919.115 1.839 0 2.758-.115.92-.23 1.839-.575 2.643-.575 1.724-1.724 3.218-3.333 4.023-1.494.919-3.447 1.149-5.171 1.264-.92 0-1.839 0-2.759-.115l-2.758-.345c.92.23 1.839.46 2.758.575.92.115 1.839.23 2.759.23 1.838-.115 3.792-.23 5.516-1.15 1.724-.919 2.988-2.643 3.448-4.482.574-1.724.46-3.677.115-5.401zm7.126 6.551c-1.609-.575-2.988-1.264-4.252-2.299a7.686 7.686 0 01-1.609-1.724c-.46-.689-.805-1.379-1.149-2.183.114.804.344 1.724.689 2.413.46.805.919 1.379 1.609 1.954s1.379 1.034 2.184 1.264c.919.345 1.724.575 2.528.575z" fill="#263238"/><path d="M121.361 242.952c-2.643-.115-4.942-2.068-5.516-4.712-.69-3.218 1.379-6.321 4.597-7.01 3.218-.69 6.321 1.379 7.01 4.597.69 3.218-1.379 6.321-4.597 7.01-.574.115-1.034.115-1.494.115zm.46-11.033c-.46 0-.805 0-1.264.115-2.759.575-4.597 3.218-4.023 6.091.575 2.759 3.218 4.597 6.091 4.023 2.759-.575 4.597-3.218 4.023-6.091-.46-2.414-2.529-4.023-4.827-4.138zm12.987 9.999c-2.299-.115-4.252-2.529-4.367-5.632-.115-1.609.23-3.103.919-4.252.805-1.149 1.839-1.954 2.988-1.954 1.149-.115 2.414.46 3.218 1.609.92 1.035 1.379 2.529 1.494 4.023.23 3.218-1.609 5.976-4.022 6.206h-.23zm0-11.033h-.345c-.919.115-1.839.689-2.413 1.609-.69 1.034-.92 2.298-.805 3.677.23 2.874 1.954 5.057 3.908 4.827 1.953-.115 3.447-2.528 3.218-5.401-.115-1.379-.575-2.644-1.38-3.563-.574-.575-1.379-1.034-2.183-1.149z" fill="#FFC727"/><path d="M127.223 236.516l-.575-.574c.804-.805 2.873-1.954 4.367-.575l-.574.575c-1.265-1.15-3.103.574-3.218.574zm-24.939 3.448l-.69-.345c.115-.345 1.495-3.333 3.218-3.678 1.609-.344 11.033-.229 11.493-.229v.804c-3.103-.115-10.114-.115-11.378.23-1.149.23-2.298 2.413-2.643 3.218z" fill="#FFC727"/><path d="M108.605 239.504s-3.907-6.895-7.01-5.516c-3.103 1.379-.575 11.033 2.758 12.527 3.333 1.609 4.827-1.494 4.827-1.494l-.575-5.517z" fill="#AD6359"/><path d="M102.399 236.746c0-.115-.114 0 0 0 2.299 1.264 3.333 3.678 4.023 5.976-.69-.919-1.609-1.494-2.873-.804-.115 0 0 .115 0 .115 1.034-.115 1.724.115 2.298.919.46.575.69 1.379.92 2.069.115.23.459.115.459-.115v-.115c.46-2.988-1.609-7.47-4.827-8.045zm17.123 29.536c-.229 3.793-.919 12.642-7.125 11.493-2.528-.46-4.597-2.184-6.321-3.908-1.839-1.724-5.631-6.551-8.274-11.837 0-.115-.23 0-.115.115.46 1.494 1.494 4.022 2.988 6.436 1.379 2.298 3.103 4.482 5.056 6.32 1.839 1.724 4.138 3.448 6.781 3.908 2.528.345 4.482-.92 5.516-3.103 1.379-2.873 1.724-6.321 1.494-9.424z" fill="#263238"/><path d="M86.884 267.891c-13.102 11.492-46.89 56.888-38.615 66.657 8.39 9.768 60.336 2.988 75.276-2.414 4.482-1.609-9.079-29.651-13.906-30.8-4.137-.919-26.318 6.666-26.778 5.402-.574-1.494 3.793-11.263 10.803-29.306 7.93-20.687-.92-14.596-6.78-9.539zm44.706 27.007c10.459-.345 13.217 1.149 21.836-3.907 5.632-3.333 10.229-1.15 6.551 4.712-5.976 9.423-19.307 12.871-24.364 12.641l-4.023-13.446z" fill="#AD6359"/><path d="M103.204 302.024s12.297-5.287 23.33-6.781c7.7-1.034 24.709-1.494 39.075 16.664 3.447 4.252 5.171 12.872-2.874 7.815-5.746-3.563-8.389-7.585-12.067-8.964 0 0 1.035 11.148-3.448 14.366-1.953 1.494-7.47 5.286-12.182 7.7 0 0-.804-.92-1.609-2.184 0 0-4.482 2.643-12.182 1.149l-18.043-29.765z" fill="#AD6359"/><path d="M134.004 295.473c3.448 2.183 10.573 7.125 14.94 13.101 4.942 6.666 12.642 20.802 7.7 24.365-3.677 2.643-7.01-2.529-7.01-2.529s1.954 6.551-1.839 8.16c-3.448 1.494-5.861-2.643-5.861-2.643s.46 4.137-3.103 4.941c-4.367 1.035-4.712-7.929-9.999-10.688-1.149-.574 5.172-34.707 5.172-34.707z" fill="#AD6359"/><path d="M141.129 312.482c2.873 2.643 7.815 10.229 8.619 17.699 0 .115-.115.23-.115.115-2.758-7.93-6.78-14.826-8.504-17.814-.115.115-.115 0 0 0zm-6.666 5.287c2.183 2.528 7.01 10.573 7.585 18.158 0 .115-.115.23-.115.115-2.414-8.504-5.746-15.285-7.47-18.273 0 0 0-.115 0 0zm16.089-7.126c3.218 1.379 5.287 3.218 7.93 5.402 1.264 1.149 2.643 2.183 4.022 3.217 1.265.92 3.218 2.184 4.827 1.15.92-.575 1.035-1.724.92-2.644-.115-1.034-.92-3.103-1.494-4.022 0 0 0-.115.115 0 .459.805 1.494 2.643 1.724 3.563.229.804.344 1.839 0 2.643-.69 1.839-2.874 1.839-4.368 1.149-.919-.344-1.723-1.034-2.528-1.494-.804-.574-1.494-1.149-2.184-1.724-1.494-1.264-2.873-2.528-4.367-3.792-1.724-1.379-2.873-2.069-4.597-3.448-.115.115 0 0 0 0z" fill="#263238"/><path d="M156.414 323.17c-.69-1.954-4.597-10.458-5.977-12.527 0 0 0-.115.115-.115 2.414 2.758 5.976 9.769 6.666 11.952.805 2.184 1.609 4.942 1.379 7.356-.345 3.562-2.758 3.907-3.677 4.022-1.035.115-2.069-.23-2.989-.805-.919-.689-1.838-1.838-2.413-2.873 0 0 0-.115.115-.115 1.034 1.494 2.988 3.103 4.942 2.988.804 0 1.724-.344 2.298-.919.69-.804.805-1.839.805-2.758.115-1.954-.575-4.137-1.264-6.206z" fill="#263238"/><path d="M103.203 302.024l12.872 35.856s-65.048 7.93-69.415-3.677c-4.368-11.608 24.709-52.521 37.12-64.014 14.366-13.331 15.515-8.159 11.378 4.483-4.367 13.331-12.067 32.294-12.067 32.294l20.112-4.942z" fill="#FE9563"/><path d="M62.75 314.206c3.102-1.724 6.435-3.218 9.883-4.482 3.333-1.264 6.78-2.184 10.228-2.988 1.954-.46 4.023-.805 5.976-1.15.115 0 .115.115 0 .115-3.562.69-7.01 1.724-10.343 2.873-3.333 1.15-6.78 2.299-10.113 3.563a115.46 115.46 0 00-5.632 2.299c-.115-.115-.115-.23 0-.23z" fill="#263238"/><path d="M102.973 301.909c-.345 0-18.273 4.022-18.963 4.252.115-.23 4.138-9.194 4.712-10.458.115-.115.115-.23.23-.345.345-.574.805-1.149 1.15-1.724.46-.804.919-1.494 1.379-2.298-.46.689-.92 1.494-1.494 2.183l-.69 1.035c.46-.92.805-1.839 1.15-2.758l1.723-4.482s0-.115-.115 0c-1.149 2.643-2.413 5.171-3.677 7.814-1.15 2.644-5.747 12.183-5.747 12.183s19.882-4.827 20.227-4.942c.345-.23.345-.46.115-.46zm-1.034 22.525c-1.379-4.022-2.758-8.044-4.367-11.952-.92-2.298-1.724-4.482-2.643-6.781 0-.114-.23 0-.115 0 1.264 4.023 2.528 8.16 3.907 12.183 1.379 4.022 2.873 8.044 4.367 11.952a67.67 67.67 0 002.759 6.665h.114c-1.149-4.022-2.643-8.044-4.022-12.067z" fill="#263238"/><path d="M116.764 338.57c-.574-1.149-1.149-2.758-1.723-3.792-.115-.345-.345-.23-.23 0l1.034 3.103c-.919.115-1.839.115-2.758.23l-3.103.344c-2.069.23-4.138.46-6.206.575-4.138.345-8.39.575-12.527.804-8.39.345-16.894.345-25.284-.115-2.298-.114-4.712-.344-7.01-.574-2.413-.23-4.942-.575-6.896-1.034-.114 0-.114.114 0 .114a50.21 50.21 0 005.977 1.38c2.068.344 4.252.574 6.32.804 4.253.345 8.505.575 12.757.575 8.39.115 16.894-.23 25.284-.805 2.298-.23 4.712-.345 7.01-.574 1.149-.115 2.414-.23 3.563-.345 1.034-.345 3.907-.575 3.792-.69z" fill="#263238"/><path d="M200.658 337.765h-81.942v3.678h81.942v-3.678z" fill="#C7C7C7"/><path d="M200.658 337.765v3.678h-55.739l2.759-3.678h52.98z" fill="#A6A6A6"/><path d="M156.182 341.443h71.713l10.344-50.567h-71.714l-10.343 50.567z" fill="#A6A6A6"/><path d="M159.516 341.443h71.713l10.343-50.567h-71.713l-10.343 50.567z" fill="#C7C7C7"/><path d="M206.979 314.206c.115 2.413-1.494 4.712-3.563 5.056-2.068.46-3.792-1.149-3.792-3.562-.115-2.414 1.494-4.712 3.562-5.057 2.069-.345 3.793 1.264 3.793 3.563z" fill="#fff"/><path d="M367.531 446.485c-1.035 2.758-52.521 65.163-55.969 66.312-1.264.46-10.803-6.551-22.066-15.285-2.413-1.839-4.941-3.908-7.47-5.861-16.434-12.987-33.558-27.238-33.558-27.238l34.248-41.832 32.639 28.386 7.125 6.206s30.34-15.055 34.363-15.86c3.907-.919 11.837 2.299 10.688 5.172z" fill="#AD6359"/><path d="M367.531 446.485c-1.035 2.758-52.521 65.163-55.969 66.312-1.609.575-15.285-9.883-29.536-21.146l33.329-40.684 7.125 6.206s30.34-15.055 34.363-15.859c3.907-.92 11.837 2.298 10.688 5.171z" fill="#EBEBEB"/><path d="M367.531 446.485c-1.034 2.758-52.521 65.163-55.969 66.312-1.264.46-10.803-6.551-22.065-15.285l33.098-40.339s30.34-15.055 34.363-15.86c3.792-.919 11.722 2.299 10.573 5.172z" fill="#FE9563"/><path d="M364.314 445.221c-8.849 10.228-43.787 52.406-51.717 63.209-.115.115 0 .115.115 0 9.079-9.999 43.557-52.406 51.832-63.094.115-.115 0-.23-.23-.115zm-12.986-1.839c-2.184 2.413-2.988 5.746-2.644 8.389.345 2.414 1.38 5.172 3.678 6.896.115 0 .115-.115.115-.115-3.563-4.022-4.137-10.688-1.034-15.055.115-.115-.115-.23-.115-.115zm-24.365 10.573c-3.563 4.137-6.091 10.228-4.712 15.63 0 .23.345.115.345 0 1.149-5.402 2.643-10.228 4.942-15.285.115-.345-.345-.69-.575-.345zm3.908-2.184c-3.563 4.138-6.091 10.229-4.712 15.63 0 .23.345.115.345 0 1.149-5.401 2.643-10.228 4.942-15.285.114-.345-.345-.69-.575-.345zm3.907-2.183c-3.563 4.137-6.091 10.228-4.712 15.63 0 .23.344.115.344 0 1.15-5.402 2.644-10.229 4.942-15.285.115-.345-.345-.69-.574-.345zm3.908-2.184c-3.563 4.138-6.091 10.229-4.712 15.63 0 .23.344.115.344 0 1.15-5.401 2.644-10.228 4.942-15.285.23-.345-.345-.689-.574-.345z" fill="#263238"/><path d="M304.897 497.627c-3.907 4.712 3.448 10.688 7.356 5.976 3.792-4.712-3.563-10.688-7.356-5.976z" fill="#fff"/><path d="M319.493 440.164c-3.448.689-4.022 4.712-3.218 7.585 1.264 4.597 4.137 9.424 7.585 12.642.115.115.23 0 .23 0 .345.115.919 0 .919-.46.345-4.712 1.379-9.654.345-14.251-.575-2.758-2.528-6.091-5.861-5.516zm4.712 12.527c-.115 2.298-.345 4.597-.46 6.895-1.494-2.413-2.988-4.827-4.252-7.47-.575-1.264-1.149-2.528-1.609-3.907-.69-2.069-.69-9.079 4.137-5.747 2.758 1.954 2.299 7.471 2.184 10.229z" fill="#263238"/><path d="M316.734 472.113c3.563-3.218 5.632-7.815 8.045-11.837.23-.46-.115-.804-.459-.919 0-.115 0-.23-.115-.115-4.597.574-9.884 2.873-13.447 5.861-2.298 1.839-4.252 5.516-1.724 8.045 2.184 2.413 5.632.804 7.7-1.035zm-4.367.575c-5.976-.115-1.724-5.746-.115-7.01 1.15-.805 2.299-1.609 3.563-2.184 2.528-1.379 5.172-2.413 7.815-3.563-1.264 1.954-2.413 3.908-3.678 5.861-1.494 2.184-4.367 6.896-7.585 6.896zm1.378-28.156l-38.155 45.28-115.156-82.057-11.377-8.044s-3.218 2.183-8.16 4.827c-6.781 3.677-16.779 8.274-25.628 9.423-14.711 1.954-37.006 1.494-49.188-15.285-10.229-14.136-6.781-32.294-6.781-32.294l16.204-6.78s38.615-31.375 63.439-32.064c10.573-.345 25.744 7.929 39.879 16.434 14.136 8.504 134.923 100.56 134.923 100.56z" fill="#263238"/><path d="M148.942 399.711s-3.218 2.183-8.16 4.827c-8.504-10.459-26.547-29.421-27.007-30.111l35.167 25.284zM89.64 349.144c-2.298 1.609-4.596 3.217-6.78 4.826-2.183 1.609-4.597 3.103-6.666 4.827-2.183 1.724-4.252 3.678-6.32 5.517-1.035.919-1.954 1.839-2.874 2.758-.92.919-1.953 1.839-2.758 2.988-.115.115.115.23.115.115 1.15-.69 2.069-1.609 3.103-2.414 1.034-.919 2.184-1.838 3.218-2.643 2.069-1.724 4.252-3.448 6.32-5.171 2.07-1.724 4.023-3.563 5.977-5.287 2.184-1.954 4.482-3.678 6.666-5.516.115 0 .115 0 0 0zm212.267 91.02c-2.298 2.414-4.482 5.057-6.665 7.585a211.918 211.918 0 00-6.436 7.815c-4.252 5.172-8.62 10.459-12.757 15.63a256.96 256.96 0 00-6.78 8.849c-.115.115.114.345.229.115 4.597-4.941 8.85-10.228 13.102-15.4 4.252-5.171 8.504-10.458 12.757-15.744 2.298-2.874 4.712-5.747 6.78-8.85 0 0-.115-.115-.23 0zm-86.538 6.666c-5.861-4.712-19.192-14.021-25.168-18.388-6.092-4.367-12.068-8.849-18.159-13.101-1.724-1.265-3.562-2.414-5.286-3.678-1.724-1.264-3.563-2.299-5.402-3.563-.115-.115-.23.115-.115.115 1.609 1.149 3.103 2.529 4.712 3.678l4.482 3.448a445.399 445.399 0 018.85 6.665c5.976 4.482 12.067 8.85 18.158 13.217 3.448 2.413 14.136 9.653 17.698 11.952.115.115.345-.23.23-.345zm37.811-48.613c-5.402-4.597-17.699-13.447-23.445-17.699-5.746-4.252-11.378-8.619-17.239-12.872-5.746-4.252-11.378-8.504-17.124-12.756-5.516-4.138-11.033-8.275-16.894-11.952-3.218-1.954-6.436-3.793-9.883-5.517-3.333-1.609-6.666-3.333-10.229-4.367-.115 0-.115.115-.115.23 2.873 1.609 5.976 3.103 8.849 4.712 2.874 1.609 5.747 3.218 8.505 4.942 5.861 3.677 11.263 7.7 16.779 11.837 11.378 8.389 22.87 16.894 34.363 25.169 6.436 4.711 19.307 14.25 25.973 18.503.345.344.575 0 .46-.23z" fill="#37474F"/></g><defs><clipPath id="clip0_2_7143"><path fill="#fff" d="M0 0h501.419v515.9H0z"/></clipPath></defs></svg>