<svg width="88" height="16" viewBox="0 0 88 16" fill="none" xmlns="http://www.w3.org/2000/svg">
<path d="M8 0L10.2101 4.9581L15.6085 5.52786L11.576 9.1619L12.7023 14.4721L8 11.76L3.29772 14.4721L4.42403 9.1619L0.391548 5.52786L5.78993 4.9581L8 0Z" fill="#FFB30C"/>
<path d="M26 0L28.2101 4.9581L33.6085 5.52786L29.576 9.1619L30.7023 14.4721L26 11.76L21.2977 14.4721L22.424 9.1619L18.3915 5.52786L23.7899 4.9581L26 0Z" fill="#FFB30C"/>
<path d="M44 0L46.2101 4.9581L51.6085 5.52786L47.576 9.1619L48.7023 14.4721L44 11.76L39.2977 14.4721L40.424 9.1619L36.3915 5.52786L41.7899 4.9581L44 0Z" fill="#FFB30C"/>
<path d="M62 0L64.2101 4.9581L69.6085 5.52786L65.576 9.1619L66.7023 14.4721L62 11.76L57.2977 14.4721L58.424 9.1619L54.3915 5.52786L59.7899 4.9581L62 0Z" fill="#FFB30C"/>
<path d="M80 0L82.2101 4.9581L87.6085 5.52786L83.576 9.1619L84.7023 14.4721L80 11.76L75.2977 14.4721L76.424 9.1619L72.3915 5.52786L77.7899 4.9581L80 0Z" fill="#FFB30C"/>
</svg>
